<?xml version="1.0" encoding="iso-8859-1"?>
<!-- Generator: Adobe Illustrator 16.0.0, SVG Export Plug-In . SVG Version: 6.00 Build 0)  -->
<!DOCTYPE svg PUBLIC "-//W3C//DTD SVG 1.1//EN" "http://www.w3.org/Graphics/SVG/1.1/DTD/svg11.dtd">
<svg version="1.1" id="Capa_1" xmlns="http://www.w3.org/2000/svg" xmlns:xlink="http://www.w3.org/1999/xlink" x="0px" y="0px"
	 width="104.708px" height="104.708px" viewBox="0 0 104.708 104.708" style="enable-background:new 0 0 104.708 104.708;"
	 xml:space="preserve">
<g>
	<g>
		<path d="M89.272,48.281c-0.901-1.296-2.371-2.267-3.284-2.166l-9.644,1.063c-0.913,0.101-0.922,1.233-0.021,2.53
			c0.195,0.282,0.419,0.55,0.656,0.793c0.857,0.875,1.913,1.451,2.628,1.372l9.643-1.063C90.165,50.709,90.173,49.577,89.272,48.281
			z"/>
		<path d="M84.085,63.116c0.599,0.612,1.314,1.103,1.963,1.296l12.317,3.684c1.166,0.35,1.678-0.384,1.143-1.637
			c-0.533-1.251-1.912-2.551-3.078-2.9l-12.316-3.684c-1.166-0.35-1.679,0.385-1.145,1.637
			C83.207,62.066,83.609,62.629,84.085,63.116z"/>
		<path d="M101.556,79.65l-13.505-7.987c-1.279-0.757-2.23-0.513-2.128,0.547c0.07,0.709,0.597,1.604,1.322,2.347
			c0.354,0.362,0.76,0.688,1.181,0.938l13.505,7.988c1.278,0.756,2.231,0.511,2.127-0.547
			C103.957,81.877,102.837,80.406,101.556,79.65z"/>
		<path d="M100.749,92.451L87.683,81.123c-1.235-1.073-2.515-1.346-2.854-0.609c-0.303,0.655,0.243,1.893,1.242,2.914
			c0.121,0.123,0.25,0.243,0.382,0.359l13.064,11.326c1.237,1.074,2.517,1.347,2.855,0.611
			C102.712,94.988,101.986,93.523,100.749,92.451z"/>
		<path d="M83.054,87.113c-1.046-1.262-2.496-2.018-3.238-1.693c-0.743,0.325-0.496,1.607,0.55,2.867l11.048,13.302
			c0.113,0.138,0.23,0.267,0.352,0.392c1,1.021,2.226,1.592,2.888,1.303c0.742-0.324,0.496-1.608-0.55-2.867L83.054,87.113z"/>
		<path d="M74.722,88.91c-0.729-1.297-2.176-2.444-3.229-2.572c-1.056-0.126-1.321,0.821-0.592,2.116l7.699,13.672
			c0.24,0.427,0.559,0.836,0.914,1.2c0.727,0.74,1.61,1.285,2.317,1.371c1.055,0.125,1.321-0.821,0.591-2.115L74.722,88.91z"/>
		<path d="M63.694,86.297c-0.325-1.174-1.595-2.58-2.835-3.141c-1.241-0.561-1.985-0.062-1.661,1.109l3.421,12.393
			c0.181,0.654,0.655,1.379,1.254,1.99c0.476,0.486,1.031,0.9,1.58,1.149c1.242,0.562,1.984,0.063,1.662-1.108L63.694,86.297z"/>
		<path d="M49.201,76.262c-1.277-0.929-2.41-0.943-2.53-0.031l-1.269,9.617c-0.094,0.713,0.46,1.78,1.317,2.655
			c0.238,0.244,0.5,0.474,0.777,0.675c1.278,0.928,2.41,0.942,2.531,0.031l1.269-9.617C51.416,78.682,50.477,77.191,49.201,76.262z"
			/>
		<path d="M34.828,65.314l-5.806,5.685c-0.549,0.537-0.056,1.935,1.104,3.116c1.159,1.185,2.544,1.707,3.094,1.171l5.806-5.685
			c0.55-0.539,0.056-1.936-1.103-3.119C36.764,65.299,35.378,64.775,34.828,65.314z"/>
		<path d="M28.385,55c-0.9-1.293-2.371-2.266-3.285-2.165l-9.643,1.063c-0.913,0.102-0.922,1.232-0.021,2.531
			c0.195,0.281,0.419,0.547,0.658,0.791c0.857,0.875,1.912,1.452,2.627,1.373l9.643-1.064C29.277,57.43,29.287,56.296,28.385,55z"/>
		<path d="M21.738,43.198c-0.534-1.253-1.913-2.552-3.079-2.901L6.343,36.613c-1.167-0.348-1.678,0.385-1.144,1.638
			c0.236,0.555,0.639,1.118,1.115,1.604c0.599,0.612,1.314,1.102,1.964,1.296l12.317,3.684
			C21.761,45.183,22.272,44.45,21.738,43.198z"/>
		<path d="M18.785,32.499c-0.103-1.057-1.224-2.528-2.503-3.284L2.777,21.228c-1.279-0.757-2.231-0.512-2.127,0.546
			c0.069,0.71,0.596,1.605,1.321,2.347c0.356,0.363,0.76,0.689,1.181,0.938l13.505,7.987C17.936,33.802,18.889,33.557,18.785,32.499
			z"/>
		<path d="M3.959,12.257l13.064,11.329c1.237,1.072,2.516,1.346,2.855,0.61c0.34-0.735-0.386-2.201-1.624-3.274L5.189,9.594
			c-1.236-1.073-2.515-1.346-2.855-0.61c-0.303,0.656,0.242,1.894,1.242,2.914C3.698,12.022,3.826,12.141,3.959,12.257z"/>
		<path d="M21.653,17.596c0.114,0.136,0.231,0.267,0.352,0.39c1,1.021,2.225,1.593,2.888,1.304c0.743-0.324,0.497-1.608-0.55-2.867
			L13.293,3.12c-1.047-1.26-2.496-2.018-3.239-1.693c-0.742,0.324-0.497,1.607,0.549,2.867L21.653,17.596z"/>
		<path d="M29.986,15.798c0.24,0.427,0.557,0.838,0.913,1.201c0.726,0.741,1.609,1.287,2.317,1.372
			c1.056,0.125,1.321-0.822,0.592-2.117l-7.7-13.672c-0.729-1.295-2.176-2.445-3.231-2.571c-1.055-0.126-1.321,0.821-0.591,2.115
			L29.986,15.798z"/>
		<path d="M41.015,18.411c0.181,0.654,0.655,1.38,1.254,1.991c0.476,0.486,1.031,0.9,1.581,1.148
			c1.241,0.562,1.985,0.065,1.661-1.108L42.09,8.049c-0.325-1.174-1.593-2.579-2.834-3.14c-1.241-0.562-1.985-0.065-1.662,1.108
			L41.015,18.411z"/>
		<path d="M55.507,28.446c1.278,0.929,2.41,0.943,2.53,0.033l1.269-9.618c0.12-0.911-0.818-2.402-2.095-3.331
			c-1.277-0.928-2.41-0.942-2.53-0.032l-1.269,9.618c-0.093,0.713,0.46,1.781,1.316,2.656
			C54.967,28.016,55.229,28.245,55.507,28.446z"/>
		<path d="M74.583,30.592c-1.159-1.184-2.544-1.707-3.094-1.169l-5.685,5.564l4.104-11.729c0.191,0.017,0.385,0.029,0.581,0.029
			c2.265,0,4.267-1.133,5.479-2.858l12.589,6.94c-0.168,0.586-0.263,1.203-0.263,1.842c0,3.693,3.004,6.697,6.697,6.697
			c3.692,0,6.696-3.004,6.696-6.697s-3.004-6.697-6.696-6.697c-1.978,0-3.751,0.866-4.979,2.232l-12.916-7.12
			c0.054-0.339,0.088-0.683,0.088-1.036c0-3.693-3.004-6.697-6.696-6.697s-6.697,3.004-6.697,6.697c0,2.437,1.312,4.567,3.263,5.738
			l-8.461,24.194c-0.7-0.249-1.449-0.392-2.232-0.392c-1.265,0-2.443,0.358-3.453,0.97L40.263,36.826
			c0.292-0.751,0.458-1.564,0.458-2.417c0-3.693-3.004-6.697-6.697-6.697c-3.692,0-6.697,3.004-6.697,6.697
			c0,3.693,3.004,6.697,6.697,6.697c1.755,0,3.349-0.684,4.545-1.792l12.167,9.889c-0.677,1.046-1.074,2.289-1.074,3.625
			c0,3.693,3.004,6.697,6.697,6.697c3.692,0,6.696-3.004,6.696-6.697c0-1.797-0.715-3.428-1.871-4.632l4.293-12.273
			c0.079,0.658,0.545,1.523,1.309,2.303c1.159,1.185,2.545,1.707,3.095,1.169l5.806-5.684
			C76.236,33.172,75.742,31.776,74.583,30.592z M94.992,25.514c2.039,0,3.696,1.658,3.696,3.697s-1.658,3.697-3.696,3.697
			s-3.697-1.658-3.697-3.697S92.953,25.514,94.992,25.514z M70.489,12.893c2.039,0,3.696,1.658,3.696,3.697
			c0,2.039-1.658,3.697-3.696,3.697s-3.697-1.658-3.697-3.697C66.792,14.551,68.451,12.893,70.489,12.893z M30.327,34.409
			c0-2.039,1.658-3.697,3.697-3.697c2.039,0,3.697,1.658,3.697,3.697c0,2.039-1.659,3.697-3.697,3.697
			C31.986,38.106,30.327,36.448,30.327,34.409z M56.359,56.525c-2.039,0-3.697-1.658-3.697-3.697s1.658-3.697,3.697-3.697
			c2.038,0,3.696,1.658,3.696,3.697S58.397,56.525,56.359,56.525z"/>
	</g>
</g>
<g>
</g>
<g>
</g>
<g>
</g>
<g>
</g>
<g>
</g>
<g>
</g>
<g>
</g>
<g>
</g>
<g>
</g>
<g>
</g>
<g>
</g>
<g>
</g>
<g>
</g>
<g>
</g>
<g>
</g>
</svg>
