<?xml version="1.0" encoding="UTF-8" standalone="no"?>
<svg
   xmlns:dc="http://purl.org/dc/elements/1.1/"
   xmlns:cc="http://creativecommons.org/ns#"
   xmlns:rdf="http://www.w3.org/1999/02/22-rdf-syntax-ns#"
   xmlns:svg="http://www.w3.org/2000/svg"
   xmlns="http://www.w3.org/2000/svg"
   xmlns:sodipodi="http://sodipodi.sourceforge.net/DTD/sodipodi-0.dtd"
   xmlns:inkscape="http://www.inkscape.org/namespaces/inkscape"
   version="1.1"
   id="Layer_1"
   x="0px"
   y="0px"
   viewBox="0 0 200 135"
   style="enable-background:new 0 0 200 135;"
   xml:space="preserve"
   sodipodi:docname="moulding.svg"
   inkscape:version="1.0.1 (3bc2e813f5, 2020-09-07)"><metadata
   id="metadata1466"><rdf:RDF><cc:Work
       rdf:about=""><dc:format>image/svg+xml</dc:format><dc:type
         rdf:resource="http://purl.org/dc/dcmitype/StillImage" /></cc:Work></rdf:RDF></metadata><defs
   id="defs1464"><inkscape:path-effect
     effect="bspline"
     id="path-effect2315"
     is_visible="true"
     lpeversion="1"
     weight="33.333333"
     steps="2"
     helper_size="0"
     apply_no_weight="true"
     apply_with_weight="true"
     only_selected="false" /></defs><sodipodi:namedview
   pagecolor="#ffffff"
   bordercolor="#666666"
   borderopacity="1"
   objecttolerance="10"
   gridtolerance="10"
   guidetolerance="10"
   inkscape:pageopacity="0"
   inkscape:pageshadow="2"
   inkscape:window-width="1920"
   inkscape:window-height="1137"
   id="namedview1462"
   showgrid="false"
   inkscape:zoom="5.285"
   inkscape:cx="100"
   inkscape:cy="67.5"
   inkscape:window-x="-8"
   inkscape:window-y="-8"
   inkscape:window-maximized="1"
   inkscape:current-layer="Layer_1" />
<style
   type="text/css"
   id="style1457">
	.st0{fill:#000000; }
</style>
<path
   class="st0"
   stroke-width="70"
   d="M197.5,115.6h-12.7c0-0.1,0-0.2,0-0.3V79.7c0-1.8-1.5-3.3-3.3-3.3h-9v-9.2H193c1.2,0,2.2-1,2.2-2.2V53.1  c0-1.2-1-2.2-2.2-2.2h-29.4l6.4-9.5c0.2-0.2,0.3-0.5,0.3-0.8V27.9c0-0.8-0.7-1.5-1.5-1.5h-15.1c-0.8,0-1.5,0.7-1.5,1.5v12.7  c0,0.3,0.1,0.6,0.3,0.8l6.4,9.5h-22.6c-1.4,0-2.8,0.4-3.9,1.1l-4.2,2.6c-0.7,0.4-0.9,1.4-0.5,2.1c0.4,0.7,1.4,0.9,2.1,0.5l4.2-2.6  c0.7-0.4,1.5-0.7,2.4-0.7h56v10.2H171h-19.9h-14.9c-0.8,0-1.7-0.2-2.4-0.7l-4.4-2.7c-0.7-0.4-1.6-0.2-2.1,0.5  c-0.4,0.7-0.2,1.6,0.5,2.1l4.4,2.7c1.2,0.7,2.5,1.1,3.9,1.1h13.4v9.2H127v-33c0-1.1-0.9-2-2-2h-12.9V38c0-1.6-1.3-2.9-2.9-2.9H5.2  c-1.6,0-2.9,1.3-2.9,2.9v38.5c0,1.6,1.3,2.9,2.9,2.9h10c0,0.1,0,0.2,0,0.3v35.7c0,0.1,0,0.2,0,0.3H2.5c-0.8,0-1.5,0.7-1.5,1.5  s0.7,1.5,1.5,1.5h16h163.1h16c0.8,0,1.5-0.7,1.5-1.5S198.3,115.6,197.5,115.6z M155.1,29.4h12.1v10.8l-6,9l-6-9V29.4H155.1z   M152.6,67.2h16.9v9.2h-16.9V67.2z M124.1,44.3v32.1h-11.8V44.3H124.1z M109.2,76.4H73.6V38h35.6V76.4z M5.4,38h65.2v38.4H18.5H5.4  V38z M135.8,115.6V83.4c0-0.8-0.7-1.5-1.5-1.5s-1.5,0.7-1.5,1.5v32.2H18.5c-0.1,0-0.3-0.1-0.3-0.3V79.7c0-0.1,0.1-0.3,0.3-0.3h90.9  h1.9h13.9h26H171h10.5c0.1,0,0.3,0.1,0.3,0.3v35.7c0,0.1-0.1,0.3-0.3,0.3L135.8,115.6L135.8,115.6z"
   id="path1459"
   style="stroke-width:4;stroke-miterlimit:4;stroke-dasharray:none;fill-opacity:1;fill:#000000;stroke:#000000;stroke-opacity:1" />
<path
   style="fill:none;stroke:#000000;stroke-width:1px;stroke-linecap:butt;stroke-linejoin:miter;stroke-opacity:1"
   d="m 5.4,38 c 0,0 103.8,0 103.8,0"
   id="path2313"
   inkscape:path-effect="#path-effect2315"
   inkscape:original-d="M 5.4,38 H 109.2" /></svg>
