<?xml version="1.0" encoding="iso-8859-1"?>
<!-- Generator: Adobe Illustrator 19.0.0, SVG Export Plug-In . SVG Version: 6.00 Build 0)  -->
<svg version="1.1" id="Layer_1" xmlns="http://www.w3.org/2000/svg" xmlns:xlink="http://www.w3.org/1999/xlink" x="0px" y="0px"
	 viewBox="0 0 512 512" style="enable-background:new 0 0 512 512;" xml:space="preserve">
<g>
	<g>
		<path d="M331.837,211.97c-2.744-3.405-7.73-3.938-11.133-1.194c-5.126,4.134-10.783,4.581-12.976,4.581
			c-6.586,0-11.268-3.203-12.976-4.579c-3.405-2.748-8.387-2.212-11.133,1.193c-2.745,3.405-2.211,8.388,1.193,11.133
			c3.745,3.02,11.704,8.089,22.916,8.089c4.813,0,14.188-1.05,22.917-8.088C334.048,220.358,334.582,215.375,331.837,211.97z"/>
	</g>
</g>
<g>
	<g>
		<path d="M356.289,175.241h-5.278c-4.373,0-7.918,3.544-7.918,7.917s3.545,7.918,7.918,7.918h5.278
			c4.373,0,7.917-3.544,7.917-7.918S360.661,175.241,356.289,175.241z"/>
	</g>
</g>
<g>
	<g>
		<path d="M264.445,175.241h-5.278c-4.373,0-7.917,3.544-7.917,7.917s3.545,7.918,7.917,7.918h5.278
			c4.373,0,7.918-3.544,7.918-7.918S268.818,175.241,264.445,175.241z"/>
	</g>
</g>
<g>
	<g>
		<path d="M484.025,337.814h-8.973v-15.78c19.796-8.53,32.726-27.902,32.726-49.895c0-23.388-14.897-44.101-37.069-51.54
			c-5.048-1.699-10.436,2.192-10.436,7.506v42.451h-13.724v-42.451c0-5.315-5.387-9.202-10.436-7.506
			c-20.899,7.012-35.329,25.818-36.918,47.541h-56.579c24.118-7.5,44.932-22.565,59.664-42.404c0.367-0.409,0.694-0.853,0.971-1.331
			c3.887-5.39,7.331-11.122,10.275-17.139c3.856,1.837,8.067,2.812,12.436,2.812c16.008,0,29.031-13.024,29.031-29.031
			c0-16.007-13.022-29.031-29.03-29.031c-0.197,0-0.395,0.011-0.592,0.015c-0.011-0.357-0.024-0.714-0.038-1.07h13.298
			c4.373,0,7.918-3.544,7.918-7.918V121.93c0-4.374-3.545-7.918-7.918-7.918h-15.014c-8.007-45.275-42.375-82.2-86.858-93.507V7.918
			c0-4.374-3.545-7.918-7.918-7.918h-42.227c-4.373,0-7.918,3.544-7.918,7.918v12.588c-44.484,11.307-78.851,48.233-86.858,93.507
			h-15.014c-4.373,0-7.918,3.544-7.918,7.918v21.113c0,4.374,3.545,7.918,7.918,7.918h13.298c-0.014,0.357-0.027,0.714-0.038,1.07
			c-0.197-0.004-0.395-0.015-0.592-0.015c-16.008,0-29.031,13.024-29.031,29.031s13.023,29.031,29.031,29.031
			c4.368,0,8.579-0.975,12.436-2.812c2.944,6.018,6.388,11.749,10.275,17.139c0.278,0.478,0.604,0.923,0.971,1.331
			c14.731,19.839,35.547,34.905,59.664,42.404H152.227c6.653-12.522,11.402-24.792,11.402-34.309c0-32.307-26.283-58.59-58.59-58.59
			c-32.307,0-58.59,26.283-58.59,58.59c0,9.517,4.75,21.787,11.402,34.309H12.14c-4.373,0-7.918,3.544-7.918,7.918v181.575
			c0,4.374,3.545,7.918,7.918,7.918h25.336c4.373,0,7.917-3.544,7.917-7.918s-3.545-7.918-7.917-7.918H20.058v-165.74h47.041
			c8.004,12.682,16.757,24.504,23.139,32.726h-50.65c-4.373,0-7.918,3.544-7.918,7.918v35.893c0,4.374,3.545,7.918,7.918,7.918
			h125.097v24.28h-59.645c-4.373,0-7.918,3.544-7.918,7.918v29.559c0,4.374,3.545,7.917,7.918,7.917
			c4.373,0,7.918-3.544,7.918-7.917v-21.641h59.645c4.373,0,7.918-3.544,7.918-7.918v-40.115c0-4.374-3.545-7.918-7.918-7.918
			H47.505v-20.058h156.767c4.373,0,7.918-3.544,7.918-7.917c0-4.374-3.545-7.918-7.918-7.918h-84.431
			c6.383-8.222,15.135-20.044,23.139-32.726h80.822v165.74H79.703c-4.373,0-7.918,3.544-7.918,7.918s3.545,7.918,7.918,7.918h94.558
			l-0.076,38.516c-0.008,4.317,3.601,7.933,7.918,7.933h184.742c4.373,0,7.917-3.544,7.917-7.917c0-4.374-3.545-7.918-7.917-7.918
			H190.036l0.06-30.614h236.394v30.614h-17.419c-4.373,0-7.918,3.544-7.918,7.918c0,4.374,3.545,7.917,7.918,7.917h25.336
			c4.373,0,7.918-3.544,7.918-7.917v-59.645h41.699c13.098,0,23.753-10.656,23.753-23.753v-59.118
			C507.777,348.47,497.122,337.814,484.025,337.814z M105.039,309.933c-18.6-23.578-42.755-59.689-42.755-76.102
			c0-23.575,19.179-42.755,42.755-42.755c23.575,0,42.755,19.179,42.755,42.755C147.794,250.245,123.639,286.355,105.039,309.933z
			 M430.713,240.993v37.48c0,4.374,3.545,7.918,7.917,7.918h29.559c4.373,0,7.918-3.544,7.918-7.918v-37.48
			c9.773,7.115,15.835,18.585,15.835,31.146c0,17.01-10.908,31.807-27.144,36.822c-3.318,1.025-5.581,4.092-5.581,7.565v21.289
			h-11.612v-21.289c0-3.473-2.263-6.54-5.581-7.565c-16.236-5.014-27.144-19.812-27.144-36.822
			C414.878,259.579,420.94,248.108,430.713,240.993z M351.575,283.975h48.75c3.215,14.633,12.307,27.203,25.146,34.837H324.15
			L351.575,283.975z M307.728,314.072l-23.693-30.097h47.387L307.728,314.072z M404.322,188.095v-31.911
			c1.751-0.68,3.5-1.373,5.24-2.091c0.008,0.539,0.038,1.08,0.038,1.618C409.6,167.027,407.743,177.916,404.322,188.095z
			 M425.962,167.852c7.278,0,13.197,5.919,13.197,13.196s-5.919,13.196-13.196,13.196c-2.29,0-4.483-0.584-6.442-1.685
			c2.605-7.885,4.403-16.133,5.284-24.65C425.189,167.876,425.574,167.852,425.962,167.852z M294.532,15.835h26.392v32.198
			c0,4.374,3.545,7.917,7.918,7.917s7.918-3.544,7.918-7.917V36.925c35.706,10.624,63.21,40.492,70.745,77.087h-70.745V81.814
			c0-4.374-3.545-7.918-7.918-7.918s-7.918,3.544-7.918,7.918v32.198h-26.392V15.835z M278.697,36.925v77.087h-70.745
			C215.487,77.417,242.991,47.549,278.697,36.925z M189.493,194.243c-7.277,0-13.196-5.919-13.196-13.196
			s5.919-13.196,13.196-13.196c0.387,0,0.773,0.024,1.157,0.057c0.88,8.517,2.678,16.765,5.284,24.649
			C193.976,193.66,191.783,194.243,189.493,194.243z M211.134,188.095c-3.421-10.179-5.278-21.068-5.278-32.384
			c0-0.538,0.031-1.079,0.038-1.618c1.741,0.718,3.488,1.411,5.24,2.091V188.095z M184.742,135.126v-5.278h245.971v5.278H184.742z
			 M368.485,150.961c-19.735,4.899-40.049,7.39-60.757,7.39c-20.706,0-41.021-2.49-60.756-7.39H368.485z M226.969,217.731V161.78
			c25.994,8.24,53.053,12.405,80.759,12.405c27.708,0,54.767-4.166,80.759-12.405v55.951
			c-18.641,24.216-47.906,39.853-80.759,39.853C274.875,257.583,245.61,241.947,226.969,217.731z M239.637,283.975h24.243
			l27.425,34.837h-51.669V283.975z M239.637,334.647h192.132v3.167h-2.639c-13.098,0-23.753,10.656-23.753,23.753v1.583h-165.74
			V334.647z M239.637,378.986h165.74v26.392h-165.74V378.986z M426.491,449.715H239.637v-28.503h165.754
			c0.263,11.966,9.412,21.776,21.1,23.075V449.715z M491.942,420.685c0,4.366-3.551,7.917-7.917,7.917H429.13
			c-4.188,0-7.618-3.27-7.891-7.39h17.392c4.373,0,7.918-3.544,7.918-7.918s-3.545-7.918-7.918-7.918h-17.419v-5.278h17.419
			c4.373,0,7.918-3.544,7.918-7.918s-3.545-7.918-7.918-7.918h-17.419v-5.278h17.419c4.373,0,7.918-3.544,7.918-7.918
			s-3.545-7.918-7.918-7.918h-17.419v-1.583c0-4.366,3.551-7.918,7.917-7.918h54.895c4.366,0,7.917,3.551,7.917,7.918V420.685z"/>
	</g>
</g>
<g>
	<g>
		<path d="M105.039,202.689c-17.172,0-31.142,13.97-31.142,31.142s13.971,31.142,31.142,31.142s31.142-13.97,31.142-31.142
			S122.211,202.689,105.039,202.689z M105.039,249.138c-8.44,0-15.307-6.867-15.307-15.307s6.867-15.307,15.307-15.307
			s15.307,6.867,15.307,15.307S113.479,249.138,105.039,249.138z"/>
	</g>
</g>
<g>
</g>
<g>
</g>
<g>
</g>
<g>
</g>
<g>
</g>
<g>
</g>
<g>
</g>
<g>
</g>
<g>
</g>
<g>
</g>
<g>
</g>
<g>
</g>
<g>
</g>
<g>
</g>
<g>
</g>
</svg>
