<?xml version="1.0" encoding="iso-8859-1"?>
<!-- Generator: Adobe Illustrator 19.0.0, SVG Export Plug-In . SVG Version: 6.00 Build 0)  -->
<svg version="1.1" id="Layer_1" xmlns="http://www.w3.org/2000/svg" xmlns:xlink="http://www.w3.org/1999/xlink" x="0px" y="0px"
	 viewBox="0 0 512 512" style="enable-background:new 0 0 512 512;" xml:space="preserve">
<g transform="translate(1 1)">
	<g>
		<g>
			<path d="M508.44,152.6l-27.996-27.996c-0.426-0.975-1.047-1.9-1.871-2.724s-1.749-1.445-2.724-1.871L357.4,1.56
				c-3.413-3.413-8.533-3.413-11.947,0L1.56,345.453c-3.413,3.413-3.413,8.533,0,11.947L152.6,508.44
				c1.707,1.707,3.413,2.56,5.973,2.56s4.267-0.853,5.973-2.56L508.44,164.547C511.853,161.133,511.853,156.013,508.44,152.6z
				 M158.573,490.52l-17.92-17.92l66.56-66.56c3.413-3.413,3.413-8.533,0-11.947c-3.413-3.413-8.533-3.413-11.947,0l-66.56,66.56
				l-18.773-18.773l23.893-23.893c3.413-3.413,3.413-8.533,0-11.947s-8.533-3.413-11.947,0l-23.893,23.893l-17.92-17.92l66.56-66.56
				c3.413-3.413,3.413-8.533,0-11.947c-3.413-3.413-8.533-3.413-11.947,0l-66.56,66.56l-17.92-17.92l96.427-96.427
				c3.413-3.413,3.413-8.533,0-11.947s-8.533-3.413-11.947,0L38.253,370.2L19.48,351.427L351.427,19.48l48.64,48.64l-60.587,60.587
				c-3.413,3.413-3.413,8.533,0,11.947c1.707,1.707,3.413,2.56,5.973,2.56c2.56,0,4.267-0.853,5.973-2.56l60.587-60.587
				l18.347,18.347l-24.32,24.32c-3.413,3.413-3.413,8.533,0,11.947c1.707,1.707,3.413,2.56,5.973,2.56s4.267-0.853,5.973-2.56
				l24.32-24.32l17.92,17.92l-36.267,36.267c-3.413,3.413-3.413,8.533,0,11.947c1.707,1.707,3.413,2.56,5.973,2.56
				s4.267-0.853,5.973-2.56l36.267-36.267l18.347,18.347L158.573,490.52z"/>
			<path d="M182.467,245.613c2.56,0,5.12-0.853,5.973-2.56l78.507-78.507c3.413-3.413,3.413-8.533,0-11.947s-8.533-3.413-11.947,0
				l-78.507,78.507c-3.413,3.413-3.413,8.533,0,11.947C178.2,244.76,179.907,245.613,182.467,245.613z"/>
			<path d="M291.693,137.24c1.707,0,4.267-0.853,5.973-2.56l54.613-54.613c3.413-3.413,3.413-8.533,0-11.947s-8.533-3.413-11.947,0
				l-54.613,54.613c-3.413,3.413-3.413,8.533,0,11.947C287.427,136.387,289.133,137.24,291.693,137.24z"/>
			<path d="M315.587,152.6l-48.64,48.64c-3.413,3.413-3.413,8.533,0,11.947c1.707,1.707,3.413,2.56,5.973,2.56
				s5.12-0.853,5.973-2.56l48.64-48.64c3.413-3.413,3.413-8.533,0-11.947C324.12,149.187,319,149.187,315.587,152.6z"/>
			<path d="M333.507,206.36c1.707,1.707,3.413,2.56,5.973,2.56s4.267-0.853,5.973-2.56l42.667-42.667
				c3.413-3.413,3.413-8.533,0-11.947c-3.413-3.413-8.533-3.413-11.947,0l-42.667,42.667
				C330.093,197.827,330.093,202.947,333.507,206.36z"/>
			<path d="M231.107,309.613c-6.827-6.827-17.067-6.827-23.893,0s-6.827,17.067,0,23.893s17.067,6.827,23.893,0
				S237.933,316.44,231.107,309.613z"/>
			<path d="M249.027,243.053c3.413-3.413,3.413-8.533,0-11.947s-8.533-3.413-11.947,0l-54.613,54.613
				c-13.653,13.653-17.92,43.52-5.12,65.707L158.573,370.2c-3.413,3.413-3.413,8.533,0,11.947c1.707,1.707,3.413,2.56,5.973,2.56
				s4.267-0.853,6.827-3.413l23.893-23.893c3.413-2.56,3.413-7.68,0.853-11.093c-12.8-15.36-9.387-40.107-0.853-48.64
				L249.027,243.053z"/>
			<path d="M260.973,290.84l54.613-54.613c3.413-3.413,3.413-8.533,0-11.947c-3.413-3.413-8.533-3.413-11.947,0l-60.587,60.587
				c-1.707,1.707-2.56,3.413-2.56,5.973s0.853,4.267,2.56,5.973c5.12,5.12,11.093,13.653,11.947,23.04
				c0.853,8.533-3.413,17.067-11.947,25.6l-17.92,17.92c-3.413,3.413-3.413,8.533,0,11.947c1.707,1.707,3.413,2.56,5.973,2.56
				s4.267-0.853,5.973-3.413l17.92-17.92c11.947-11.947,17.92-24.747,17.067-38.4C271.213,308.76,267.8,299.373,260.973,290.84z"/>
			<path d="M352.28,237.08l-60.587,60.587c-3.413,3.413-3.413,8.533,0,11.947c1.707,1.707,3.413,2.56,5.973,2.56
				c1.707,0,4.267-0.853,5.973-2.56l60.587-60.587c3.413-3.413,3.413-8.533,0-11.947S355.693,233.667,352.28,237.08z"/>
			<path d="M394.093,195.267l-11.947,11.947c-3.413,3.413-3.413,8.533,0,11.947c1.707,1.707,3.413,2.56,5.973,2.56
				c1.707,0,4.267-0.853,5.973-2.56l11.947-11.947c3.413-3.413,3.413-8.533,0-11.947
				C402.627,191.853,397.507,191.853,394.093,195.267z"/>
		</g>
	</g>
</g>
<g>
</g>
<g>
</g>
<g>
</g>
<g>
</g>
<g>
</g>
<g>
</g>
<g>
</g>
<g>
</g>
<g>
</g>
<g>
</g>
<g>
</g>
<g>
</g>
<g>
</g>
<g>
</g>
<g>
</g>
</svg>
