<?xml version="1.0" encoding="UTF-8" standalone="no"?>
<svg
   xmlns:dc="http://purl.org/dc/elements/1.1/"
   xmlns:cc="http://creativecommons.org/ns#"
   xmlns:rdf="http://www.w3.org/1999/02/22-rdf-syntax-ns#"
   xmlns:svg="http://www.w3.org/2000/svg"
   xmlns="http://www.w3.org/2000/svg"
   xmlns:sodipodi="http://sodipodi.sourceforge.net/DTD/sodipodi-0.dtd"
   xmlns:inkscape="http://www.inkscape.org/namespaces/inkscape"
   version="1.1"
   id="svg845"
   width="517.38947"
   height="517.38947"
   viewBox="0 0 517.38947 517.38947"
   sodipodi:docname="press.svg"
   inkscape:version="1.0.1 (3bc2e813f5, 2020-09-07)">
  <metadata
     id="metadata851">
    <rdf:RDF>
      <cc:Work
         rdf:about="">
        <dc:format>image/svg+xml</dc:format>
        <dc:type
           rdf:resource="http://purl.org/dc/dcmitype/StillImage" />
        <dc:title></dc:title>
      </cc:Work>
    </rdf:RDF>
  </metadata>
  <defs
     id="defs849" />
  <sodipodi:namedview
     pagecolor="#ffffff"
     bordercolor="#666666"
     borderopacity="1"
     objecttolerance="10"
     gridtolerance="10"
     guidetolerance="10"
     inkscape:pageopacity="0"
     inkscape:pageshadow="2"
     inkscape:window-width="1920"
     inkscape:window-height="1137"
     id="namedview847"
     showgrid="false"
     inkscape:zoom="1.3587443"
     inkscape:cx="258.69473"
     inkscape:cy="258.69473"
     inkscape:window-x="-8"
     inkscape:window-y="-8"
     inkscape:window-maximized="1"
     inkscape:current-layer="g853" />
  <g
     inkscape:groupmode="layer"
     inkscape:label="Image"
     id="g853">
    <g
       id="g857"
       transform="translate(2.943895,0.73597367)"
       style="stroke-width:1.0015748;stroke-miterlimit:4;stroke-dasharray:none;fill:#000000;fill-opacity:1">
      <path
         style="fill:#000000;fill-opacity:1;stroke-width:1.0015748;stroke-miterlimit:4;stroke-dasharray:none"
         d="m 104.08421,509.30526 v -8.08421 h 14.65263 14.65263 v -48 -48 H 162.69474 192 v -7.54687 -7.54689 l -11.87369,-0.28469 -11.87368,-0.28471 -13.40514,-26.52631 -13.40514,-26.52632 -14.88959,-0.0222 c -12.33183,-0.0184 -15.58397,-0.34368 -18.93171,-1.89363 -4.70475,-2.17823 -9.018179,-6.48457 -10.546237,-10.52891 -1.396309,-3.69564 -1.396309,-31.03595 0,-34.73159 1.528058,-4.04434 5.841487,-8.35069 10.546237,-10.52892 3.87587,-1.79446 10.08922,-1.87143 151.07368,-1.87143 140.98447,0 147.19782,0.077 151.07369,1.87143 4.70475,2.17823 9.01818,6.48458 10.54623,10.52892 1.39632,3.69564 1.39632,31.03595 0,34.73159 -1.52805,4.04434 -5.84148,8.35068 -10.54623,10.52891 -3.34774,1.54995 -6.59988,1.87525 -18.93171,1.89363 l -14.88959,0.0222 -13.40514,26.52632 -13.40514,26.52631 -11.87368,0.28471 -11.87369,0.28469 v 7.54689 7.54687 H 354.69473 384 v 48 48 h 14.65263 14.65263 v 8.08421 8.08421 H 258.69473 104.08421 Z M 192,469.38947 v -31.83158 h 66.69473 66.69474 v 31.83158 31.83158 h 21.22105 21.22106 V 461.30526 421.38947 H 258.69473 149.55789 v 39.91579 39.91579 H 170.77895 192 Z m 117.22105,8.08421 v -23.74737 h -50.52632 -50.52631 v 23.74737 23.74737 h 50.52631 50.52632 z m -66.69474,0 v -8.58947 h 16.16842 16.16843 v 8.58947 8.58947 h -16.16843 -16.16842 z m 66.69474,-79.83158 v -7.57894 h -50.52632 -50.52631 v 7.57894 7.57895 h 50.52631 50.52632 z M 208.16842,360.71539 v -12.16883 l 7.83158,0.29515 7.83158,0.29513 0.2847,11.87368 0.2847,11.87369 h 13.10478 13.10476 v -12.12632 -12.12631 h 8.08421 8.08422 v 12.12631 12.12632 h 13.10476 13.10478 l 0.2847,-11.87369 0.2847,-11.87368 7.83158,-0.29513 7.83158,-0.29515 v 12.16883 12.16882 h 14.91866 14.91867 l 8.8287,-17.69165 c 4.85579,-9.7304 8.82871,-17.91566 8.82871,-18.18947 0,-0.27381 -44.10948,-0.49783 -98.02106,-0.49783 -53.91157,0 -98.02105,0.22402 -98.02105,0.49783 0,0.27381 3.97292,8.45907 8.82871,18.18947 l 8.8287,17.69165 h 14.91867 14.91866 z M 404.71579,306.69473 V 294.56842 H 258.69473 112.67368 l -0.28872,11.05084 c -0.1588,6.07797 -0.0588,11.65004 0.22223,12.38236 0.42011,1.09481 26.43112,1.286 146.30977,1.07548 l 145.79883,-0.25605 z M 123.31427,206.56828 c -4.6185,-2.00325 -6.90966,-4.16664 -9.23233,-8.7175 -1.62557,-3.18503 -1.91352,-6.02632 -1.91352,-18.88158 0,-16.1811 0.61495,-19.18044 4.86429,-23.72524 3.794,-4.0578 8.14073,-5.66124 17.25145,-6.36381 l 7.8623,-0.60629 13.03755,-26.13693 13.03754,-26.136931 H 180.11077 192 V 79.831578 63.663157 h 10.61052 10.61053 V 39.915789 16.168421 H 184.92631 156.63158 V 8.0842105 0 h 102.06315 102.06316 v 8.0842105 8.0842105 h -28.29473 -28.29474 v 23.747368 23.747368 h 10.61053 10.61052 v 16.168421 16.168421 h 11.88923 11.88922 l 13.03754,26.136931 13.03755,26.13693 7.8623,0.60629 c 9.11072,0.70257 13.45745,2.30601 17.25145,6.36381 4.24934,4.5448 4.86429,7.54414 4.86429,23.72524 0,16.00031 -0.94908,20.02823 -5.73998,24.36068 -5.57438,5.04096 0.28799,4.84144 -141.00651,4.79899 -114.94077,-0.0346 -132.09868,-0.23265 -135.16029,-1.56059 z m 264.50876,-15.42202 c 0.96426,-0.61186 1.22334,-3.91111 1.01053,-12.86874 l -0.28619,-12.04594 H 258.69473 128.8421 l -0.28619,12.04594 c -0.21281,8.95763 0.0463,12.25688 1.01053,12.86874 1.69512,1.07558 256.56147,1.07558 258.25659,0 z m -31.10724,-43.09672 c 0,-0.27381 -3.97292,-8.45907 -8.82871,-18.18947 l -8.8287,-17.69165 h -14.91867 -14.91866 v 12.12632 12.12631 h -8.08421 -8.08421 v -12.12631 -12.12632 h -13.13684 -13.13684 v 12.12632 12.12631 h -8.08422 -8.08421 v -12.12631 -12.12632 h -13.13684 -13.13684 v 12.12632 12.12631 h -8.08421 -8.08421 v -12.12631 -12.12632 h -14.91866 -14.91867 l -8.8287,17.69165 c -4.85579,9.7304 -8.82871,17.91566 -8.82871,18.18947 0,0.2738 44.10948,0.49783 98.02105,0.49783 53.91158,0 98.02106,-0.22403 98.02106,-0.49783 z M 309.22105,87.915789 v -8.084211 h -50.52632 -50.52631 v 8.084211 8.08421 h 50.52631 50.52632 z M 288,39.915789 V 16.168421 H 258.69473 229.38947 V 39.915789 63.663157 H 258.69473 288 Z m -45.47369,0 v -8.589473 h 16.16842 16.16843 v 8.589473 8.589474 h -16.16843 -16.16842 z"
         id="path869" />
      <path
         style="fill:#000000;fill-opacity:1;stroke-width:1.0015748;stroke-miterlimit:4;stroke-dasharray:none"
         d="m 104.08421,509.30526 v -8.08421 h 14.65263 14.65263 v -48 -48 H 162.69474 192 v -8.08421 -8.08421 h -11.88923 -11.88922 l -13.05589,-26.1737 -13.05588,-26.1737 -16.23384,-0.35262 c -18.26344,-0.3967 -20.40905,-1.07378 -26.23196,-8.27799 -3.138718,-3.88327 -3.138718,-3.88327 -3.138718,-21.37989 0,-17.49661 0,-17.49661 3.138718,-21.37988 1.7263,-2.1358 4.68209,-4.79275 6.56842,-5.90433 3.3879,-1.99641 5.24662,-2.02105 152.48233,-2.02105 147.23572,0 149.09444,0.0247 152.48234,2.02105 1.88633,1.11158 4.84212,3.76853 6.56842,5.90433 3.13872,3.88327 3.13872,3.88327 3.13872,21.37988 0,17.49662 0,17.49662 -3.13872,21.37989 -5.82291,7.20421 -7.96852,7.88129 -26.23196,8.27799 l -16.23384,0.35262 -13.05588,26.1737 -13.05589,26.1737 H 337.2787 325.38947 v 8.08421 8.08421 H 354.69473 384 v 48 48 h 14.65263 14.65263 v 8.08421 8.08421 H 258.69473 104.08421 Z M 192,469.38947 v -31.83158 h 66.69473 66.69474 v 31.83158 31.83158 h 21.22105 21.22106 V 461.30526 421.38947 H 258.69473 149.55789 v 39.91579 39.91579 H 170.77895 192 Z m 117.22105,8.08421 v -23.74737 h -50.52632 -50.52631 v 23.74737 23.74737 h 50.52631 50.52632 z m -65.99578,7.94107 c -0.38442,-0.38443 -0.69896,-4.26107 -0.69896,-8.61476 v -7.91578 h 16.20929 16.20929 l -0.2935,8.33684 -0.2935,8.33684 -15.21683,0.27791 c -8.36926,0.15285 -15.53136,-0.0366 -15.91579,-0.42105 z m 65.99578,-88.27791 v -8.08421 h -50.52632 -50.52631 v 8.08421 8.08421 h 50.52631 50.52632 z M 208.16842,361.26316 V 349.6421 h 8.08421 8.08421 v 11.62106 11.62105 h 13.13684 13.13684 V 361.26316 349.6421 h 8.08421 8.08422 v 11.62106 11.62105 h 13.13684 13.13684 V 361.26316 349.6421 h 8.08421 8.08421 v 11.62106 11.62105 h 14.91866 14.91867 l 8.8287,-17.69165 c 4.85579,-9.7304 8.82871,-17.91566 8.82871,-18.18947 0,-0.27381 -44.10948,-0.49783 -98.02106,-0.49783 -53.91157,0 -98.02105,0.22402 -98.02105,0.49783 0,0.27381 3.97292,8.45907 8.82871,18.18947 l 8.8287,17.69165 h 14.91867 14.91866 z m 195.09801,-41.9724 c 1.75745,-0.94056 1.95462,-2.21116 1.95462,-12.59603 0,-10.38486 -0.19717,-11.65546 -1.95462,-12.59602 -2.72457,-1.45814 -286.41882,-1.45814 -289.14339,0 -1.75722,0.94044 -1.95462,2.211 -1.95462,12.58136 0,9.91992 0.24765,11.67953 1.76842,12.5653 2.47962,1.44425 286.6325,1.48883 289.32959,0.0454 z M 124.44142,207.09304 c -4.51954,-1.82126 -8.28385,-5.17209 -10.34165,-9.20572 -1.87631,-3.67786 -2.03581,-5.55478 -1.74554,-20.54033 0.31945,-16.49259 0.31945,-16.49259 3.42288,-20.37243 4.58899,-5.73704 8.628,-7.41324 17.86747,-7.4151 l 7.83406,-0.002 13.37813,-26.77894 13.37813,-26.778951 H 180.11745 192 V 79.831578 63.663157 h 10.61052 10.61053 V 39.915789 16.168421 H 185.43158 157.6421 V 8.0842105 0 h 101.05263 101.05264 v 8.0842105 8.0842105 h -27.78948 -27.78947 v 23.747368 23.747368 h 10.61053 10.61052 v 16.168421 16.168421 h 11.88255 11.88255 l 13.37813,26.778951 13.37813,26.77894 7.83406,0.002 c 9.23947,0.002 13.27848,1.67806 17.86747,7.41511 3.10343,3.87983 3.10343,3.87983 3.42288,20.37243 0.29227,15.08886 0.14005,16.84426 -1.78838,20.6243 -1.1775,2.30809 -3.96196,5.35875 -6.30863,6.91178 -4.20079,2.78008 -4.20079,2.78008 -137.15898,2.97449 -82.00635,0.11991 -133.87012,-0.17307 -135.33783,-0.76453 z m 263.38161,-15.94678 c 0.96426,-0.61186 1.22334,-3.91111 1.01053,-12.86874 l -0.28619,-12.04594 H 258.69473 128.8421 l -0.28619,12.04594 c -0.21281,8.95763 0.0463,12.25688 1.01053,12.86874 1.69512,1.07558 256.56147,1.07558 258.25659,0 z M 356.71579,148.5548 c 0,-0.5517 -3.97292,-8.96433 -8.82871,-18.69473 l -8.8287,-17.69165 h -14.91867 -14.91866 v 12.12632 12.12631 h -8.08421 -8.08421 v -12.12631 -12.12632 h -13.13684 -13.13684 v 12.12632 12.12631 h -8.08422 -8.08421 v -12.12631 -12.12632 h -13.13684 -13.13684 v 12.12632 12.12631 h -8.08421 -8.08421 v -12.12631 -12.12632 h -14.91866 -14.91867 l -8.8287,17.69165 c -4.85579,9.7304 -8.82871,18.14303 -8.82871,18.69473 0,0.65688 33.83174,1.00309 98.02105,1.00309 64.18932,0 98.02106,-0.34621 98.02106,-1.00309 z M 309.22105,87.915789 v -8.084211 h -50.52632 -50.52631 v 8.084211 8.08421 h 50.52631 50.52632 z M 288,39.915789 V 16.168421 H 258.69473 229.38947 V 39.915789 63.663157 H 258.69473 288 Z m -45.26192,0.252632 0.2935,-8.336842 h 15.66315 15.66316 l 0.2935,8.336842 0.2935,8.336842 h -16.25016 -16.25015 z"
         id="path867" />
      <path
         style="fill:#000000;fill-opacity:1;stroke-width:1.0015748;stroke-miterlimit:4;stroke-dasharray:none"
         d="m 104.08421,509.30526 v -8.08421 h 14.65263 14.65263 v -48 -48 H 162.69474 192 v -8.08421 -8.08421 h -11.88923 -11.88922 l -13.04875,-26.15938 -13.04874,-26.15939 -16.24098,-0.42335 c -17.23792,-0.44933 -19.92937,-1.11192 -24.52959,-6.03881 -4.406323,-4.71924 -5.354951,-8.95359 -5.331298,-23.79714 0.01804,-11.32151 0.369263,-14.69126 1.877257,-18.0111 2.084477,-4.58897 7.006121,-9.1786 11.062641,-10.31639 3.5299,-0.99007 295.93539,-0.99007 299.46529,0 4.05652,1.13779 8.97816,5.72742 11.06264,10.31639 1.50799,3.31984 1.85921,6.68959 1.87726,18.0111 0.0237,14.84355 -0.92498,19.0779 -5.3313,23.79714 -4.60022,4.92689 -7.29167,5.58948 -24.52959,6.03881 l -16.24098,0.42335 -13.04874,26.15939 -13.04875,26.15938 H 337.2787 325.38947 v 8.08421 8.08421 H 354.69473 384 v 48 48 h 14.65263 14.65263 v 8.08421 8.08421 H 258.69473 104.08421 Z M 192,469.38947 v -31.83158 h 66.69473 66.69474 v 31.83158 31.83158 h 21.22105 21.22106 V 461.30526 421.38947 H 258.69473 149.55789 v 39.91579 39.91579 H 170.77895 192 Z m 117.22105,8.08421 v -23.74737 h -50.52632 -50.52631 v 23.74737 23.74737 h 50.52631 50.52632 z m -66.48461,-0.25263 0.29514,-7.83158 h 15.66315 15.66316 l 0.29514,7.83158 0.29514,7.83158 H 258.69473 242.4413 Z m 66.48461,-80.08421 v -8.08421 h -50.52632 -50.52631 v 8.08421 8.08421 h 50.52631 50.52632 z M 208.16842,361.26316 V 349.6421 h 8.08421 8.08421 v 11.62106 11.62105 h 13.13684 13.13684 V 361.26316 349.6421 h 8.08421 8.08422 v 11.62106 11.62105 h 13.13684 13.13684 V 361.26316 349.6421 h 8.08421 8.08421 v 11.62106 11.62105 h 14.91866 14.91867 l 8.8287,-17.69165 c 4.85579,-9.7304 8.82871,-17.91566 8.82871,-18.18947 0,-0.27381 -44.10948,-0.49783 -98.02106,-0.49783 -53.91157,0 -98.02105,0.22402 -98.02105,0.49783 0,0.27381 3.97292,8.45907 8.82871,18.18947 l 8.8287,17.69165 h 14.91867 14.91866 z m 195.84,-42.13895 c 1.66784,-1.66785 1.66784,-23.19111 0,-24.85895 -1.7624,-1.7624 -288.86497,-1.7624 -290.62737,0 -1.66784,1.66784 -1.66784,23.1911 0,24.85895 1.7624,1.7624 288.86497,1.7624 290.62737,0 z M 122.44372,206.0001 c -2.55808,-1.26622 -5.49794,-3.85817 -7.07368,-6.23658 -2.59082,-3.91056 -2.70893,-4.6927 -3.01739,-19.98196 -0.26973,-13.36898 -0.0484,-16.45011 1.38502,-19.2784 4.10401,-8.09787 9.33803,-10.94527 20.11929,-10.94527 h 7.62168 L 154.85677,122.77895 168.2349,95.999999 H 180.11745 192 V 79.831578 63.663157 h 10.61052 10.61053 V 39.915789 16.168421 H 185.43158 157.6421 V 8.0842105 0 h 101.05263 101.05264 v 8.0842105 8.0842105 h -27.78948 -27.78947 v 23.747368 23.747368 h 10.61053 10.61052 v 16.168421 16.168421 h 11.88255 11.88255 l 13.37813,26.778951 13.37813,26.77894 h 7.62168 c 10.78126,0 16.01528,2.8474 20.11929,10.94527 1.43339,2.82829 1.65475,5.90942 1.38502,19.2784 -0.30896,15.31379 -0.42302,16.06603 -3.03331,20.006 -1.63124,2.46222 -4.47704,4.94822 -7.14009,6.23738 -4.42784,2.14348 -4.42784,2.14348 -136.2351,2.14268 -131.80727,-8e-4 -131.80727,-8e-4 -136.1846,-2.16752 z M 388.54737,178.86316 V 166.23158 H 258.69473 128.8421 l -0.28751,11.55927 c -0.15813,6.35759 -0.0581,12.1572 0.22239,12.88804 0.41838,1.0903 23.77365,1.28274 130.14014,1.07231 l 129.63025,-0.25646 z m -40.15926,-48 -9.33117,-18.69474 H 324.139 309.22105 v 12.16882 12.16883 l -7.83158,-0.29515 -7.83158,-0.29513 -0.2847,-11.87369 -0.2847,-11.87368 h -13.10478 -13.10476 v 12.12632 12.12631 h -8.08422 -8.08421 v -12.12631 -12.12632 h -13.10476 -13.10478 l -0.2847,11.87368 -0.2847,11.87369 -7.83158,0.29513 -7.83158,0.29515 v -12.16883 -12.16882 h -14.91795 -14.91794 l -9.33117,18.69474 -9.33117,18.69473 h 99.02454 99.02455 z M 309.22105,87.915789 v -8.084211 h -50.52632 -50.52631 v 8.084211 8.08421 h 50.52631 50.52632 z M 288,39.915789 V 16.168421 H 258.69473 229.38947 V 39.915789 63.663157 H 258.69473 288 Z m -44.77473,7.941067 c -0.38442,-0.384429 -0.69896,-4.033698 -0.69896,-8.109488 v -7.410526 h 16.21093 16.21093 L 274.65303,40.168421 274.35789,48 259.14106,48.277908 c -8.36926,0.15285 -15.53136,-0.03662 -15.91579,-0.421052 z"
         id="path865" />
      <path
         style="fill:#000000;fill-opacity:1;stroke-width:1.0015748;stroke-miterlimit:4;stroke-dasharray:none"
         d="m 104.08421,509.30526 v -8.08421 h 14.65263 14.65263 v -48 -48 H 162.69474 192 v -8.08421 -8.08421 H 180.11745 168.2349 l -13.34466,-26.71196 -13.34467,-26.71196 -17.04459,-0.31962 c -17.01573,-0.31907 -17.05104,-0.32455 -20.86172,-3.23389 -6.347067,-4.84579 -7.594874,-9.0157 -7.594874,-25.38047 0,-16.36748 1.24825,-20.53686 7.598534,-25.38047 C 107.46373,278.4 107.46373,278.4 258.69473,278.4 c 151.23101,0 151.23101,0 155.05182,2.91426 6.35029,4.84361 7.59854,9.01299 7.59854,25.38047 0,16.36477 -1.24781,20.53468 -7.59488,25.38047 -3.81068,2.90934 -3.84599,2.91482 -20.86172,3.23389 l -17.04459,0.31962 -13.34467,26.71196 -13.34466,26.71196 h -11.88255 -11.88255 v 8.08421 8.08421 H 354.69473 384 v 48 48 h 14.65263 14.65263 v 8.08421 8.08421 H 258.69473 104.08421 Z M 192,469.38947 v -31.83158 h 66.69473 66.69474 v 31.83158 31.83158 h 21.22105 21.22106 V 461.30526 421.38947 H 258.69473 149.55789 v 39.91579 39.91579 H 170.77895 192 Z m 117.22105,8.08421 v -23.74737 h -50.52632 -50.52631 v 23.74737 23.74737 h 50.52631 50.52632 z m -66.69474,0 v -7.57895 h 16.16842 16.16843 v 7.57895 7.57895 h -16.16843 -16.16842 z m 66.69474,-80.33684 v -8.08421 h -50.52632 -50.52631 v 8.08421 8.08421 h 50.52631 50.52632 z m -101.27319,-35.62105 0.2847,-11.87369 h 8.05214 8.05214 v 12.12632 12.12631 h 13.13684 13.13684 V 361.76842 349.6421 h 8.08421 8.08422 v 12.12632 12.12631 h 13.13684 13.13684 V 361.76842 349.6421 h 8.05214 8.05214 l 0.2847,11.87369 0.2847,11.87368 h 14.65264 14.65263 L 348.27873,355.2 c 5.08593,-10.00421 9.03805,-18.53053 8.78246,-18.94737 -0.55306,-0.90205 -195.77087,-1.03769 -196.67191,-0.13665 -0.59112,0.59111 15.53176,33.83654 17.72183,36.54246 0.77802,0.96126 4.67657,1.21878 15.29807,1.01052 l 14.25398,-0.27949 z m 195.67475,-41.79233 c 2.38174,-0.91396 2.38174,-25.14349 0,-26.05745 -2.08946,-0.8018 -287.76629,-0.8018 -289.85575,0 -1.33778,0.51336 -1.59844,2.64186 -1.59844,13.05263 0,9.00588 0.34864,12.57993 1.26316,12.94895 1.82024,0.73448 288.27888,0.78963 290.19103,0.0559 z M 122.72472,205.65935 c -2.89568,-1.45355 -6.06118,-4.07739 -7.52472,-6.23714 -2.35969,-3.48219 -2.54835,-4.69968 -2.86031,-18.45935 -0.19634,-8.66019 0.11583,-16.23662 0.75746,-18.38393 2.63055,-8.80332 9.36823,-12.96346 21.05269,-12.99885 l 7.3288,-0.0222 13.37813,-26.77894 13.37813,-26.778951 H 180.11745 192 V 79.831578 63.663157 h 10.61052 10.61053 V 39.915789 16.168421 H 185.43158 157.6421 V 8.0842105 0 h 101.05263 101.05264 v 8.0842105 8.0842105 h -27.78948 -27.78947 v 23.747368 23.747368 h 10.61053 10.61052 v 16.168421 16.168421 h 11.88255 11.88255 l 13.37813,26.778951 13.37813,26.77894 7.3288,0.0222 c 11.68446,0.0354 18.42214,4.19552 21.05269,12.99884 0.64163,2.14731 0.9538,9.72374 0.75746,18.38393 -0.31196,13.75967 -0.50062,14.97716 -2.86031,18.45935 -1.46354,2.15975 -4.62904,4.78359 -7.52472,6.23714 -4.99842,2.50903 -4.99842,2.50903 -135.97002,2.50903 -130.97159,0 -130.97159,0 -135.97001,-2.50907 z M 388.54737,178.86316 V 166.23158 H 258.69473 128.8421 l -0.28751,11.55927 c -0.15813,6.35759 -0.0581,12.1572 0.22239,12.88804 0.41838,1.0903 23.77365,1.28274 130.14014,1.07231 l 129.63025,-0.25646 z m -40.15926,-48 -9.33117,-18.69474 H 324.139 309.22105 v 12.16882 12.16883 l -7.83158,-0.29515 -7.83158,-0.29513 -0.2847,-11.87369 -0.2847,-11.87368 h -13.0727 -13.07271 l -0.28469,11.87368 -0.28471,11.87369 h -7.57895 -7.57894 l -0.28471,-11.87369 -0.28469,-11.87368 h -13.07271 -13.0727 l -0.2847,11.87368 -0.2847,11.87369 -7.83158,0.29513 -7.83158,0.29515 v -12.16883 -12.16882 h -14.91795 -14.91794 l -9.33117,18.69474 -9.33117,18.69473 h 99.02454 99.02455 z M 309.22105,87.915789 v -8.084211 h -50.52632 -50.52631 v 8.084211 8.08421 h 50.52631 50.52632 z M 288,39.915789 V 16.168421 H 258.69473 229.38947 V 39.915789 63.663157 H 258.69473 288 Z m -45.47369,0 v -7.578947 h 16.16842 16.16843 v 7.578947 7.578948 h -16.16843 -16.16842 z"
         id="path863" />
      <path
         style="fill:#000000;fill-opacity:1;stroke-width:1.0015748;stroke-miterlimit:4;stroke-dasharray:none"
         d="m 104.08421,509.30526 v -8.08421 h 14.65263 14.65263 v -48 -48 H 162.69474 192 v -8.08421 -8.08421 H 180.11745 168.2349 l -13.37813,-26.77895 -13.37813,-26.77895 h -15.70589 c -13.41805,0 -16.25204,-0.27874 -19.45512,-1.91352 -8.416919,-4.29583 -10.228921,-9.05863 -10.228921,-26.88648 0,-17.82784 1.812002,-22.59064 10.228921,-26.88647 3.6287,-1.85201 8.52691,-1.91353 152.3771,-1.91353 143.8502,0 148.74841,0.0616 152.37711,1.91353 8.41692,4.29583 10.22892,9.05863 10.22892,26.88647 0,17.82785 -1.812,22.59065 -10.22892,26.88648 -3.20308,1.63478 -6.03707,1.91352 -19.45512,1.91352 h -15.70589 l -13.37813,26.77895 -13.37813,26.77895 h -11.88255 -11.88255 v 8.08421 8.08421 H 354.69473 384 v 48 48 h 14.65263 14.65263 v 8.08421 8.08421 H 258.69473 104.08421 Z M 192,469.38947 v -31.83158 h 66.69473 66.69474 v 31.83158 31.83158 h 21.22105 21.22106 V 461.30526 421.38947 H 258.69473 149.55789 v 39.91579 39.91579 H 170.77895 192 Z m 117.22105,7.57895 v -24.25263 h -50.52632 -50.52631 v 24.25263 24.25263 h 50.52631 50.52632 z m -66.69474,0.50526 v -7.57895 h 16.16842 16.16843 v 7.57895 7.57895 h -16.16843 -16.16842 z m 66.69474,-80.33684 v -8.08421 h -50.52632 -50.52631 v 8.08421 8.08421 h 50.52631 50.52632 z M 208.16842,361.76842 V 349.6421 h 8.08421 8.08421 v 12.12632 12.12631 h 13.13684 13.13684 V 361.76842 349.6421 h 8.08421 8.08422 v 12.12632 12.12631 h 13.13684 13.13684 V 361.76842 349.6421 h 8.08421 8.08421 v 12.15333 12.15334 l 14.90526,-0.27966 14.90527,-0.27964 9.3014,-18.18947 c 5.11577,-10.00421 9.32208,-18.53053 9.34736,-18.94737 0.0253,-0.41684 -44.51824,-0.7579 -98.98561,-0.7579 -54.46736,0 -99.03157,0.23243 -99.03157,0.51649 0,0.83875 17.3092,35.24018 18.42566,36.62036 0.73173,0.90457 5.14623,1.26315 15.5507,1.26315 h 14.5289 z m 195.45419,-42.04496 c 2.38174,-0.91396 2.38174,-25.14349 0,-26.05745 -2.08946,-0.8018 -287.76629,-0.8018 -289.85575,0 -1.33778,0.51336 -1.59844,2.64186 -1.59844,13.05263 0,9.00588 0.34864,12.57993 1.26316,12.94895 1.82024,0.73448 288.27888,0.78963 290.19103,0.0559 z M 124.8,206.67001 c -4.85852,-1.71307 -11.1193,-8.37176 -11.99681,-12.7593 -0.34912,-1.74562 -0.63477,-9.1124 -0.63477,-16.37062 0,-15.61905 1.56835,-20.25222 8.38298,-24.76466 3.49144,-2.31193 5.38332,-2.76331 12.81721,-3.05809 l 8.72117,-0.34582 13.33158,-26.68575 13.33157,-26.685771 H 180.37647 192 V 80.336842 64.673684 h 10.61052 10.61053 V 40.421052 16.168421 H 185.43158 157.6421 V 8.0842105 0 h 101.05263 101.05264 v 8.0842105 8.0842105 h -27.78948 -27.78947 v 24.252631 24.252632 h 10.61053 10.61052 v 15.663158 15.663157 h 11.62353 11.62354 l 13.33157,26.685771 13.33158,26.68575 8.72117,0.34582 c 10.68157,0.42355 15.62214,3.1033 19.14739,10.3855 2.0653,4.26633 2.2082,5.7919 1.89084,20.18571 -0.3433,15.57059 -0.3433,15.57059 -3.48202,19.45154 -1.7263,2.13453 -4.68209,4.79043 -6.56842,5.90201 -3.37706,1.99003 -5.44646,2.02437 -134.79813,2.23709 -110.87867,0.18234 -131.99887,-0.006 -135.41052,-1.20918 z m 264.03249,-27.72713 c 0.21268,-9.36273 -0.0441,-12.76075 -1.01053,-13.37401 -1.48118,-0.93987 -255.44692,-1.17592 -257.88668,-0.2397 -1.33697,0.51304 -1.59844,2.63444 -1.59844,12.96842 0,6.79527 0.30488,12.65991 0.6775,13.03254 0.37262,0.37262 58.91999,0.5621 130.10526,0.42105 l 129.42777,-0.25644 z M 357.72631,149.042 c 0,-0.28375 -4.09502,-8.69638 -9.10006,-18.69474 l -9.10006,-18.17884 h -15.15257 -15.15257 v 11.62105 11.62106 h -8.08421 -8.08421 v -11.62106 -11.62105 h -13.13684 -13.13684 v 11.62105 11.62106 h -8.08422 -8.08421 v -11.62106 -11.62105 h -13.13684 -13.13684 v 11.62105 11.62106 h -8.08421 -8.08421 v -11.62106 -11.62105 h -15.15257 -15.15257 l -9.10006,18.17884 c -5.00504,9.99836 -9.10006,18.41099 -9.10006,18.69474 0,0.28374 44.56421,0.51589 99.03157,0.51589 54.46737,0 99.03158,-0.23215 99.03158,-0.51589 z M 309.22105,87.915789 v -8.084211 h -50.52632 -50.52631 v 8.084211 8.08421 h 50.52631 50.52632 z M 288,40.421052 V 16.168421 H 258.69473 229.38947 V 40.421052 64.673684 H 258.69473 288 Z m -45.47369,-0.505263 v -7.578947 h 16.16842 16.16843 v 7.578947 7.578948 h -16.16843 -16.16842 z"
         id="path861" />
      <path
         style="fill:#000000;fill-opacity:1;stroke-width:1.0015748;stroke-miterlimit:4;stroke-dasharray:none"
         d="m 104.08421,509.30526 v -8.08421 h 14.65263 14.65263 v -48 -48 H 162.69474 192 v -8.08421 -8.08421 H 180.39461 168.78923 L 155.38408,362.52631 141.97895,336 125.22667,335.49473 c -16.03507,-0.48362 -16.92601,-0.62037 -20.81048,-3.19403 -6.819752,-4.51842 -7.910928,-8.05032 -7.910928,-25.60597 0,-17.55884 1.091601,-21.08997 7.915718,-25.60596 4.063,-2.68877 4.063,-2.68877 154.27375,-2.68877 150.21076,0 150.21076,0 154.27376,2.68877 6.82412,4.51599 7.91572,8.04712 7.91572,25.60596 0,17.55565 -1.09118,21.08755 -7.91093,25.60597 -3.88447,2.57366 -4.77541,2.71041 -20.81048,3.19403 L 375.41052,336 l -13.40513,26.52631 -13.40515,26.52632 h -11.60538 -11.60539 v 8.08421 8.08421 H 354.69473 384 v 48 48 h 14.65263 14.65263 v 8.08421 8.08421 H 258.69473 104.08421 Z M 192,469.38947 v -31.83158 h 66.69473 66.69474 v 31.83158 31.83158 h 21.22105 21.22106 V 461.30526 421.38947 H 258.69473 149.55789 v 39.91579 39.91579 H 170.77895 192 Z m 117.22105,7.57895 v -24.25263 h -50.52632 -50.52631 v 24.25263 24.25263 h 50.52631 50.52632 z m -66.69474,0.50526 v -7.57895 h 16.16842 16.16843 v 7.57895 7.57895 h -16.16843 -16.16842 z m 66.69474,-80.33684 v -8.08421 h -50.52632 -50.52631 v 8.08421 8.08421 h 50.52631 50.52632 z M 208.16842,361.76842 V 349.6421 h 7.54687 7.54689 l 0.28469,11.87369 0.28471,11.87368 13.38947,0.28197 13.38947,0.28196 V 361.79775 349.6421 h 8.08421 8.08422 v 12.15565 12.15565 l 13.38947,-0.28196 13.38947,-0.28197 0.28471,-11.87368 0.28469,-11.87369 h 7.54689 7.54687 v 12.12632 12.12631 h 14.91795 14.91794 l 9.33469,-18.70178 c 5.13408,-10.28598 9.33468,-18.92598 9.33468,-19.2 0,-0.27402 -44.56421,-0.49822 -99.03158,-0.49822 -54.46736,0 -99.03157,0.2242 -99.03157,0.49822 0,0.27402 4.2006,8.91402 9.33468,19.2 l 9.33469,18.70178 h 14.91794 14.91795 z M 404.71579,306.69473 V 293.55789 H 258.69473 112.67368 l -0.28637,12.06749 c -0.15751,6.63711 -0.0575,12.66392 0.22223,13.39288 0.41699,1.08669 26.76816,1.27929 146.30742,1.06936 l 145.79883,-0.25604 z M 128.8421,207.51776 c -1.11157,-0.24121 -3.03587,-0.65479 -4.2762,-0.91907 -3.65655,-0.77913 -9.10728,-6.27498 -10.9131,-11.00344 -1.35514,-3.54841 -1.61104,-7.20307 -1.32875,-18.97693 0.3224,-13.44624 0.53933,-14.85879 2.78482,-18.13347 4.38141,-6.38954 8.27981,-8.2612 18.1942,-8.73522 l 8.8082,-0.42112 13.32083,-26.66426 13.32083,-26.664251 H 180.37647 192 V 80.336842 64.673684 h 10.61052 10.61053 V 40.421052 16.168421 H 185.43158 157.6421 V 8.0842105 0 h 101.05263 101.05264 v 8.0842105 8.0842105 h -27.78948 -27.78947 v 24.252631 24.252632 h 10.61053 10.61052 v 15.663158 15.663157 h 11.62353 11.62354 l 13.32083,26.664251 13.32083,26.66426 8.8082,0.42112 c 9.91454,0.47403 13.81298,2.34577 18.1942,8.73548 2.23483,3.25935 2.46431,4.71715 2.78915,17.71835 0.38872,15.55804 -0.41874,19.9802 -4.54336,24.88203 -5.98239,7.10967 5.37262,6.56157 -139.30534,6.72424 -71.69684,0.0806 -131.26737,-0.0507 -132.37895,-0.29197 z m 260.00842,-16.73039 c 1.95199,-1.95199 1.63743,-22.47085 -0.37534,-24.48361 -1.42691,-1.42692 -14.5892,-1.58797 -129.78045,-1.58797 -115.19124,0 -128.35353,0.16105 -129.78044,1.58797 -2.01277,2.01276 -2.32733,22.53162 -0.37534,24.48361 1.76147,1.76147 258.5501,1.76147 260.31157,0 z M 357.72631,149.042 c 0,-0.28375 -4.09502,-8.69638 -9.10006,-18.69474 l -9.10006,-18.17884 h -15.15257 -15.15257 v 11.62105 11.62106 h -7.57895 -7.57894 v -11.62106 -11.62105 h -13.64211 -13.6421 v 11.62105 11.62106 h -8.08422 -8.08421 v -11.62106 -11.62105 h -13.6421 -13.64211 v 11.62105 11.62106 h -7.57894 -7.57895 v -11.62106 -11.62105 h -15.15257 -15.15257 l -9.10006,18.17884 c -5.00504,9.99836 -9.10006,18.41099 -9.10006,18.69474 0,0.28374 44.56421,0.51589 99.03157,0.51589 54.46737,0 99.03158,-0.23215 99.03158,-0.51589 z M 309.22105,87.915789 v -8.084211 h -50.52632 -50.52631 v 8.084211 8.08421 h 50.52631 50.52632 z M 288,40.421052 V 16.168421 H 258.69473 229.38947 V 40.421052 64.673684 H 258.69473 288 Z m -45.47369,-0.505263 v -7.578947 h 16.16842 16.16843 v 7.578947 7.578948 h -16.16843 -16.16842 z"
         id="path859" />
    </g>
  </g>
</svg>
