<?xml version="1.0" encoding="iso-8859-1"?>
<!-- Generator: Adobe Illustrator 19.0.0, SVG Export Plug-In . SVG Version: 6.00 Build 0)  -->
<svg version="1.1" id="Layer_1" xmlns="http://www.w3.org/2000/svg" xmlns:xlink="http://www.w3.org/1999/xlink" x="0px" y="0px"
	 viewBox="0 0 512 512" style="enable-background:new 0 0 512 512;" xml:space="preserve">
<g>
	<g>
		<path d="M507.689,399.841c0-14.511-10.129-26.694-23.686-29.869c42.289-59.849,36.675-143.428-16.86-196.965
			c-28.977-28.977-67.505-44.935-108.487-44.935c-18.459,0-36.416,3.248-53.23,9.455l-78.924-78.923
			c-14.139-14.137-37.145-14.138-51.284,0c-14.138,14.139-14.139,37.146-0.001,51.287l74.926,74.923
			c0.009,0.01,0.018,0.021,0.028,0.03l17.962,17.962c-38.519,44.253-39.136,110.243-1.853,155.194H139.475v-36.263
			c0-4.623-3.746-8.369-8.369-8.369H64.158c-4.623,0-8.368,3.746-8.368,8.369v36.263H39.053v-2.789c0-4.623-3.746-8.368-8.368-8.368
			c-4.623,0-8.369,3.746-8.369,8.368v22.316c0,4.623,3.746,8.368,8.369,8.368c4.623,0,8.368-3.746,8.368-8.368v-2.789H55.79v16.737
			H30.684c-4.623,0-8.369,3.746-8.369,8.368v47.421H8.369c-4.623,0-8.369,3.746-8.369,8.369C0,460.254,3.746,464,8.369,464H499.32
			c4.623,0,8.368-3.746,8.368-8.368c0-4.623-3.746-8.369-8.368-8.369h-13.948v-17.907
			C498.236,425.702,507.689,413.857,507.689,399.841z M187.051,98.054c-7.614-7.614-7.614-20.003,0.001-27.616
			c7.613-7.615,20.002-7.613,27.613,0l74.299,74.298c-11.725,5.99-22.713,13.53-32.713,22.516L187.051,98.054z M268.099,179.1
			c25.464-25.464,67.385-34.292,90.556-34.292c36.511-0.001,70.835,14.216,96.652,40.034c51.306,51.306,53.218,133.589,5.74,187.204
			L268.099,179.1z M450.22,384.893c-1.154,2.059-2.073,4.263-2.73,6.578h-40.809c11.058-4.831,21.388-11.359,30.667-19.449
			L450.22,384.893z M369.485,304.156c-5.799,5.799-20.232,3.438-28.58-4.911c-7.716-7.716-9.349-19.243-4.904-28.572
			L369.485,304.156z M279.994,214.666l43.753,43.753c-10.738,16.237-8.964,38.371,5.323,52.66
			c7.903,7.902,18.411,12.254,29.588,12.254c8.333,0,16.292-2.421,23.078-6.927l43.749,43.75
			c-18.637,15.886-42.066,24.545-66.827,24.545c-27.569,0-53.488-10.735-72.981-30.23
			C247.424,316.223,245.532,255.174,279.994,214.666z M139.475,374.735h143.714c8.43,6.848,17.652,12.457,27.446,16.737h-171.16
			V374.735z M72.527,330.103h50.211v61.369H72.527V330.103z M468.636,447.262H39.053v-39.053H447.49
			c2.897,10.202,10.945,18.25,21.146,21.145V447.262z M477.004,413.788c-7.691,0-13.948-6.256-13.948-13.948
			s6.256-13.947,13.948-13.947c7.691,0,13.947,6.256,13.947,13.947S484.695,413.788,477.004,413.788z"/>
	</g>
</g>
<g>
</g>
<g>
</g>
<g>
</g>
<g>
</g>
<g>
</g>
<g>
</g>
<g>
</g>
<g>
</g>
<g>
</g>
<g>
</g>
<g>
</g>
<g>
</g>
<g>
</g>
<g>
</g>
<g>
</g>
</svg>
