<?xml version="1.0" encoding="iso-8859-1"?>
<!-- Generator: Adobe Illustrator 19.0.0, SVG Export Plug-In . SVG Version: 6.00 Build 0)  -->
<svg version="1.1" id="Layer_1" xmlns="http://www.w3.org/2000/svg" xmlns:xlink="http://www.w3.org/1999/xlink" x="0px" y="0px"
	 viewBox="0 0 511.988 511.988" style="enable-background:new 0 0 511.988 511.988;" xml:space="preserve">
<g>
	<g>
		<g>
			<path d="M510.535,381.208l-37.328-64c-1.906-3.266-5.422-5.281-9.219-5.281h-74.655c-3.797,0-7.312,2.016-9.219,5.281l-37.327,64
				c-1.938,3.328-1.938,7.438,0,10.75l37.327,64c1.906,3.281,5.422,5.297,9.219,5.297h74.655c3.797,0,7.312-2.016,9.219-5.297
				l37.328-64C512.473,388.645,512.473,384.536,510.535,381.208z M457.863,439.927h-62.405l-31.109-53.344l31.109-53.328h62.405
				l31.109,53.328L457.863,439.927z"/>
			<path d="M426.66,343.255c-23.53,0-42.671,19.141-42.671,42.672s19.141,42.656,42.671,42.656
				c23.531,0,42.672-19.125,42.672-42.656S450.191,343.255,426.66,343.255z M426.66,407.255c-11.765,0-21.327-9.562-21.327-21.328
				s9.562-21.344,21.327-21.344c11.766,0,21.328,9.578,21.328,21.344S438.426,407.255,426.66,407.255z"/>
			<path d="M145.444,199.968c1.922,3.273,5.422,5.289,9.219,5.289h74.671c3.781,0,7.297-2.016,9.203-5.289l37.344-64
				c1.938-3.32,1.938-7.43,0-10.75l-37.344-64c-1.906-3.273-5.422-5.289-9.203-5.289h-74.671c-3.797,0-7.297,2.016-9.219,5.289
				l-37.328,64c-1.938,3.32-1.938,7.43,0,10.75L145.444,199.968z M160.787,77.258h62.422l31.109,53.335l-31.109,53.335h-62.422
				l-31.108-53.335L160.787,77.258z"/>
			<path d="M191.99,172.6c23.531,0,42.672-19.14,42.672-42.671c0-23.523-19.141-42.664-42.672-42.664
				c-23.516,0-42.655,19.14-42.655,42.664C149.335,153.46,168.474,172.6,191.99,172.6z M191.99,108.601
				c11.766,0,21.344,9.562,21.344,21.328s-9.578,21.336-21.344,21.336c-11.75,0-21.328-9.57-21.328-21.336
				S180.24,108.601,191.99,108.601z"/>
			<path d="M355.927,288.473l31.688-55.584v-0.008l31.702-55.593l26.422-46.328l18.531,10.562c1.672,0.953,3.484,1.406,5.266,1.406
				c3.719,0,7.312-1.938,9.281-5.391l31.703-55.593c1.406-2.461,1.766-5.375,1.016-8.102c-0.75-2.727-2.547-5.047-5-6.453
				L395.333,3.993c-5.109-2.914-11.625-1.133-14.547,3.984l-31.702,55.601c-1.391,2.453-1.766,5.367-1.016,8.094
				c0.75,2.734,2.547,5.055,4.999,6.453l18.531,10.57l-10.562,18.531l-47.546,83.39c0,0.008,0,0.008,0,0.008l-47.547,83.383v0.016
				l-15.859,27.795c-2.906,5.109-1.125,11.625,3.984,14.547l55.609,31.703c1.656,0.938,3.484,1.391,5.266,1.391
				c3.703,0,7.312-1.938,9.281-5.375l15.828-27.781c0.016,0,0.016-0.016,0.016-0.016c0.016-0.017,0.016-0.017,0.016-0.032
				l15.827-27.766C355.911,288.489,355.911,288.489,355.927,288.473z M394.036,27.813l37.062,21.132l-5.281,9.266
				c-2.922,5.117-1.125,11.633,3.984,14.547c1.672,0.953,3.484,1.406,5.281,1.406c3.703,0,7.297-1.938,9.266-5.391l5.281-9.266
				l37.078,21.133l-21.141,37.07l-92.655-52.835L394.036,27.813z M347.958,259.375l-5.281,9.273
				c-5.125-2.922-11.641-1.141-14.562,3.977c-2.906,5.109-1.125,11.625,3.984,14.547l-5.281,9.264
				c-5.109-2.906-11.625-1.125-14.547,3.984c-2.922,5.125-1.125,11.641,3.984,14.547l-5.281,9.272l-37.062-21.125l5.281-9.266
				c1.672,0.953,3.484,1.391,5.266,1.391c3.719,0,7.312-1.922,9.281-5.375c2.922-5.123,1.141-11.639-3.984-14.545l5.281-9.266
				c1.672,0.945,3.484,1.398,5.281,1.398c3.703,0,7.297-1.93,9.266-5.383c2.922-5.117,1.141-11.633-3.969-14.547l5.281-9.266
				c1.656,0.945,3.469,1.398,5.266,1.398c3.703,0,7.312-1.938,9.281-5.383c2.922-5.117,1.125-11.632-3.984-14.554l5.281-9.266
				c1.672,0.953,3.484,1.406,5.281,1.406c3.703,0,7.297-1.938,9.266-5.383c2.922-5.125,1.141-11.633-3.984-14.555l5.281-9.266
				c1.672,0.953,3.484,1.398,5.281,1.398c3.703,0,7.312-1.93,9.28-5.383c2.906-5.117,1.125-11.633-3.984-14.547l5.281-9.265
				c1.656,0.945,3.484,1.398,5.266,1.398c3.703,0,7.312-1.938,9.281-5.383c2.922-5.117,1.125-11.633-3.984-14.555l5.281-9.266
				c1.672,0.953,3.484,1.406,5.281,1.406c3.703,0,7.297-1.938,9.266-5.391c2.922-5.117,1.141-11.625-3.984-14.547l5.297-9.266
				l37.062,21.133l-5.281,9.266c-5.125-2.914-11.64-1.133-14.562,3.984c-2.906,5.117-1.125,11.633,3.984,14.547l-5.281,9.273v-0.008
				c-5.109-2.914-11.625-1.133-14.547,3.984c-2.922,5.117-1.141,11.633,3.984,14.555l-5.281,9.266
				c-5.125-2.922-11.641-1.133-14.547,3.984c-2.922,5.117-1.141,11.625,3.984,14.547l-5.297,9.266
				c-5.109-2.914-11.625-1.133-14.547,3.984c-2.922,5.117-1.125,11.632,3.984,14.546l-5.281,9.266
				c-5.109-2.914-11.624-1.133-14.546,3.984S342.833,256.461,347.958,259.375z"/>
			<path d="M330.99,438.848l-76.969-57.359l-25.656-19.109l-0.016-0.016l-94.077-70.094l12.75-17.107
				c3.516-4.727,2.547-11.406-2.188-14.93l-51.312-38.234c-2.266-1.695-5.125-2.414-7.922-2.008
				c-2.797,0.414-5.312,1.914-7.016,4.187L2.117,326.802c-1.688,2.281-2.422,5.125-2,7.922c0.406,2.797,1.906,5.328,4.172,7.016
				l51.327,38.234c1.844,1.375,4.078,2.109,6.375,2.109c0.5,0,1.016-0.031,1.531-0.109c2.797-0.406,5.328-1.906,7.016-4.172
				l12.75-17.109l68.422,50.984l25.655,19.125l51.312,38.234c0.016,0,0.016,0,0.016,0l51.312,38.234
				c1.859,1.391,4.094,2.125,6.375,2.125c0.516,0,1.031-0.047,1.547-0.109c2.797-0.422,5.312-1.922,7-4.188l38.25-51.328
				C336.693,449.052,335.724,442.364,330.99,438.848z M72.554,339.395l-12.75,17.094l-34.218-25.484l25.499-34.219l8.547,6.375
				c1.922,1.422,4.156,2.109,6.375,2.109c3.25,0,6.469-1.484,8.562-4.281c3.516-4.734,2.547-11.406-2.188-14.936l-8.547-6.375
				l25.484-34.204l34.219,25.493l-37.969,50.959L72.554,339.395z M284.209,483.802l-8.562-6.375
				c3.516-4.734,2.547-11.406-2.188-14.922c-4.719-3.531-11.406-2.547-14.922,2.172l-8.547-6.375
				c3.516-4.719,2.547-11.406-2.188-14.922c-4.719-3.516-11.406-2.547-14.922,2.172l-8.547-6.375
				c3.516-4.719,2.531-11.406-2.188-14.922s-11.406-2.547-14.922,2.188l-8.562-6.375c3.531-4.734,2.547-11.406-2.172-14.938
				c-4.719-3.516-11.406-2.531-14.922,2.188l-8.562-6.375c3.516-4.719,2.547-11.406-2.172-14.922
				c-4.734-3.516-11.405-2.547-14.937,2.172l-8.547-6.375c3.516-4.719,2.547-11.406-2.188-14.922
				c-4.719-3.516-11.391-2.547-14.922,2.188l-8.547-6.375c3.516-4.734,2.547-11.406-2.188-14.938
				c-4.719-3.516-11.406-2.531-14.922,2.188l-8.547-6.375l25.484-34.219l8.562,6.375c-3.531,4.734-2.547,11.406,2.172,14.938
				c1.922,1.422,4.156,2.109,6.359,2.109c3.266,0,6.469-1.484,8.562-4.297l8.562,6.375c-3.531,4.719-2.547,11.406,2.172,14.922
				c1.922,1.438,4.155,2.125,6.374,2.125c3.25,0,6.469-1.484,8.562-4.297l8.547,6.375c-3.516,4.719-2.547,11.406,2.172,14.922
				c1.922,1.422,4.156,2.109,6.375,2.109c3.25,0,6.469-1.484,8.562-4.281v-0.016l8.547,6.375
				c-3.516,4.734-2.547,11.406,2.188,14.938c1.906,1.422,4.141,2.109,6.359,2.109c3.25,0,6.469-1.484,8.562-4.297l8.547,6.375
				c-3.516,4.719-2.531,11.406,2.188,14.922c1.906,1.438,4.141,2.125,6.359,2.125c3.266,0,6.469-1.484,8.562-4.297l8.562,6.375
				c-3.531,4.719-2.547,11.406,2.172,14.922c1.922,1.422,4.156,2.109,6.375,2.109c3.25,0,6.453-1.484,8.547-4.281l8.562,6.359
				c-3.516,4.734-2.547,11.406,2.172,14.938c1.922,1.422,4.156,2.109,6.375,2.109c3.25,0,6.469-1.484,8.562-4.297l8.547,6.375
				L284.209,483.802z"/>
		</g>
	</g>
</g>
<g>
</g>
<g>
</g>
<g>
</g>
<g>
</g>
<g>
</g>
<g>
</g>
<g>
</g>
<g>
</g>
<g>
</g>
<g>
</g>
<g>
</g>
<g>
</g>
<g>
</g>
<g>
</g>
<g>
</g>
</svg>
