<?xml version="1.0" encoding="UTF-8" standalone="no"?>
<svg
   xmlns:dc="http://purl.org/dc/elements/1.1/"
   xmlns:cc="http://creativecommons.org/ns#"
   xmlns:rdf="http://www.w3.org/1999/02/22-rdf-syntax-ns#"
   xmlns:svg="http://www.w3.org/2000/svg"
   xmlns="http://www.w3.org/2000/svg"
   xmlns:sodipodi="http://sodipodi.sourceforge.net/DTD/sodipodi-0.dtd"
   xmlns:inkscape="http://www.inkscape.org/namespaces/inkscape"
   version="1.1"
   id="svg2321"
   width="682.66669"
   height="682.66669"
   viewBox="0 0 682.66669 682.66669"
   sodipodi:docname="wrapping.svg"
   inkscape:version="1.0.1 (3bc2e813f5, 2020-09-07)">
  <metadata
     id="metadata2327">
    <rdf:RDF>
      <cc:Work
         rdf:about="">
        <dc:format>image/svg+xml</dc:format>
        <dc:type
           rdf:resource="http://purl.org/dc/dcmitype/StillImage" />
        <dc:title />
      </cc:Work>
    </rdf:RDF>
  </metadata>
  <defs
     id="defs2325" />
  <sodipodi:namedview
     pagecolor="#ffffff"
     bordercolor="#666666"
     borderopacity="1"
     objecttolerance="10"
     gridtolerance="10"
     guidetolerance="10"
     inkscape:pageopacity="0"
     inkscape:pageshadow="2"
     inkscape:window-width="1920"
     inkscape:window-height="1137"
     id="namedview2323"
     showgrid="false"
     inkscape:zoom="1.0766601"
     inkscape:cx="406.65615"
     inkscape:cy="340.57064"
     inkscape:window-x="-8"
     inkscape:window-y="-8"
     inkscape:window-maximized="1"
     inkscape:current-layer="g2329"
     inkscape:document-rotation="0" />
  <g
     inkscape:groupmode="layer"
     inkscape:label="Image"
     id="g2329">
    <g
       id="g2894"
       transform="translate(2.7092634e-6,-4.6439909)"
       style="fill:#000000;fill-opacity:1">
      <path
         style="fill:#000000;fill-opacity:1;stroke-width:1.33333"
         d="m 52.149359,657.25418 c -76.273637,-10.14472 -64.648641,-119.92083 12.699297,-119.92083 8.48468,0 8.48468,0 8.485732,-11 0.0028,-29.47724 21.867547,-47.43811 60.484592,-49.68532 17.90888,-1.04215 28.24432,-2.74636 40.898,-6.74365 10.47311,-3.30846 10.47311,-3.30846 8.46817,-8.93975 -2.7821,-7.81411 -2.65209,-22.86555 0.2617,-30.29795 2.02837,-5.17391 2.47758,-12.79228 3.26265,-55.33333 1.09377,-59.26962 2.63743,-67.55899 16.6642,-89.48637 4.82784,-7.54713 4.82784,-7.54713 -1.95739,-13.48268 -32.54462,-28.46924 -25.07078,-78.80989 14.25036,-95.98453 6.43564,-2.81095 8.33334,-4.27988 8.33334,-6.4505 0,-1.54585 1.41209,-5.59989 3.13797,-9.00894 2.62127,-5.17767 3.28955,-9.12067 4.05851,-23.94613 2.83117,-54.584687 29.71361,-92.352592 76.80352,-107.903451 40.54627,-13.389903 110.55488,6.285607 90.2474,25.363501 -4.14381,3.892907 -8.33089,3.653024 -18.43104,-1.055934 -58.85968,-27.441971 -124.42625,12.463406 -127.51397,77.608044 -0.6015,12.6902 -0.42727,14.34698 1.5088,14.34698 1.65002,0 2.18881,-1.26196 2.18881,-5.12668 0,-8.00002 2.98873,-9.78383 18.39163,-10.97694 34.8125,-2.69659 56.79214,-15.94879 65.6133,-39.56027 3.68445,-9.862105 5.99781,-12.336114 11.53506,-12.336114 9.35929,0 12.47725,9.28948 7.0974,21.145606 -1.45056,3.196748 -2.63739,6.281998 -2.63739,6.856098 0,0.5741 6.75,1.30616 15,1.62678 25.0612,0.97397 40.89248,10.32567 50.49276,29.82661 6.00454,12.19695 9.17391,11.96508 9.17391,-0.67113 0,-17.48697 -4.29108,-33.53525 -12.92585,-48.341649 -4.95514,-8.49678 -5.48718,-12.84646 -2.07415,-16.957254 13.42933,-16.174847 33.49552,20.574625 35.788,65.542623 0.78828,15.46221 1.43148,19.3396 4.07403,24.55931 1.72588,3.40905 3.13797,7.46309 3.13797,9.00894 0,2.17062 1.8977,3.63955 8.33334,6.4505 39.29368,17.16264 46.7946,67.51563 14.29297,95.94727 -6.74263,5.89826 -6.74263,5.89826 -0.87145,15.42102 17.67645,28.67035 21.10374,77.58529 5.43612,77.58529 -8.63203,0 -11.19098,-4.96666 -11.19098,-21.72051 0,-39.59003 -24.73164,-73.53339 -61.80712,-84.82824 -5.02724,-1.53152 -9.97724,-2.78459 -11,-2.78459 -1.53991,0 -1.85955,5.61507 -1.85955,32.66667 0,26.92564 0.32419,32.66666 1.84467,32.66666 1.32549,0 2.00049,-2.44712 2.39831,-8.6946 0.84956,-13.34202 9.77958,-19.20686 17.49777,-11.49174 2.90572,2.90458 2.92852,3.30737 3.302,58.34847 0.35136,51.77921 0.52671,55.36229 2.66667,54.48976 14.18413,-5.78335 28.98672,-6.13059 40.62392,-0.95299 6.33333,2.81783 6.33333,2.81783 6.33333,-5.84008 0,-13.78528 4.76232,-19.6298 14.08787,-17.28924 5.89531,1.47963 7.24297,7.3632 7.26588,31.72093 0.0241,25.68562 0.55004,27.23491 6.78815,19.99843 10.08417,-11.69811 20.03678,-12.74816 33.98677,-3.58577 15.9482,10.4748 32.27268,12.15769 51.64543,5.32411 15.20045,-5.36185 23.22133,-3.67391 30.81019,6.48377 2.61832,3.50461 2.76742,5.66351 3.13548,45.39597 0.38642,41.71638 0.38642,41.71638 9.10373,43.16089 69.5847,11.53056 66.63843,110.53795 -3.54075,118.98419 -26.10593,3.14192 -428.83572,0.98785 -432.13476,-2.31134 -4.20173,-4.20196 -3.89036,-10.66641 0.70414,-14.61842 3.6299,-3.12232 3.6299,-3.12232 218.20792,-3.12232 205.92777,0 214.841,-0.0999 221.1016,-2.47876 38.41763,-14.59757 33.36769,-68.58282 -7.11548,-76.06654 -11.09432,-2.05089 -563.664689,-2.05089 -574.759003,0 -40.483177,7.48372 -45.5331179,61.46897 -7.115488,76.06654 5.964255,2.26622 11.100782,2.47876 59.908821,2.47876 61.80965,0 62.58616,0.13908 62.58616,11.20996 0,9.12896 -1.84759,9.43757 -57.77249,9.65021 -27.991799,0.1064 -54.726971,-0.31628 -59.411491,-0.93935 z M 320.00001,535.33335 c 0,-1.76209 -13.48148,-2 -113.33334,-2 -99.85185,0 -113.333333,0.23791 -113.333333,2 0,1.7621 13.481483,2 113.333333,2 99.85186,0 113.33334,-0.2379 113.33334,-2 z m 35.9934,-8.33333 c -0.0148,-23.25084 16.4025,-42.81908 40.0066,-47.68492 6.58238,-1.35692 6.49327,-1.17543 4.39224,-8.94554 -2.22149,-8.21556 -1.5205,-21.0882 1.54831,-28.4329 1.7272,-4.13377 2.05945,-12.64671 2.05945,-52.76614 0,-47.83718 0,-47.83718 -62.66667,-47.83718 -62.66666,0 -62.66666,0 -62.66666,43.97526 0,59.1338 0.70368,63.24091 10.62482,62.01312 4.05635,-0.50198 11.77352,-2.42725 17.14927,-4.27836 14.53288,-5.00431 22.70045,-3.16152 30.14352,6.80103 2.619,3.50552 2.76737,5.66212 3.13623,45.58428 0.38717,41.90468 0.38717,41.90468 8.33333,41.90468 7.94616,0 7.94616,0 7.93956,-10.33333 z m 246.67328,8.33333 c 0,-1.76209 -13.48148,-2 -113.33334,-2 -99.85186,0 -113.33334,0.23791 -113.33334,2 0,1.7621 13.48148,2 113.33334,2 99.85186,0 113.33334,-0.2379 113.33334,-2 z m -480.00002,-30 c 0,-7.53536 -0.50148,-7.78272 -9.40747,-4.64051 -6.17024,2.17699 -14.59253,7.9727 -14.59253,10.0417 0,0.70468 5.31785,1.26548 12,1.26548 12,0 12,0 12,-6.66667 z m 162.66101,-1 c 4.35166,-10.5856 18.12644,-24.416 27.70673,-27.81863 6.9656,-2.47396 6.9656,-2.47396 6.9656,-8.60544 0,-8.07314 0.003,-8.07202 -10.37496,-4.24108 -6.11903,2.25884 -12.86856,3.52704 -21.29536,4.00127 -12.18329,0.68564 -12.37028,0.74815 -15.00883,5.0174 -14.19498,22.96799 -47.20907,30.12391 -69.83512,15.13703 -6.15328,-4.07576 -6.15328,-4.07576 -17.15284,-0.1008 -10.76021,3.88842 -27.69419,7.80817 -36.99956,8.56437 -4.66667,0.37924 -4.66667,0.37924 -5.06654,8.04591 -0.39988,7.66666 -0.39988,7.66666 68.75465,7.66666 69.15452,0 69.15452,0 72.30623,-7.66666 z m 34.67233,-0.38024 c 0,-9.14537 -1.12499,-9.28965 -9.23077,-1.18387 -8.10579,8.10579 -7.96151,9.23078 1.18386,9.23078 8.04691,0 8.04691,0 8.04691,-8.04691 z m 85.33334,1.38024 c 0,-7.53536 -0.50148,-7.78272 -9.40747,-4.64051 -6.17024,2.17699 -14.59253,7.9727 -14.59253,10.0417 0,0.70468 5.31785,1.26548 12,1.26548 12,0 12,0 12,-6.66667 z m 162.661,-1 c 4.35167,-10.5856 18.12644,-24.416 27.70674,-27.81863 6.9656,-2.47396 6.9656,-2.47396 6.9656,-8.60544 0,-8.08549 -0.007,-8.0881 -10.37496,-4.11701 -19.63892,7.52169 -47.0987,4.44447 -64.43286,-7.22057 -6.77011,-4.55595 -6.77011,-4.55595 -14.41011,3.2036 -18.51914,18.8089 -48.6559,32.75984 -77.68377,35.96142 -8.43164,0.92996 -8.43164,0.92996 -8.83151,8.59663 -0.39988,7.66667 -0.39988,7.66667 68.75464,7.66667 69.15453,0 69.15453,0 72.30623,-7.66667 z m 34.67234,-0.38024 c 0,-9.14537 -1.12499,-9.28965 -9.23078,-1.18387 -8.10578,8.10579 -7.9615,9.23078 1.18387,9.23078 8.04691,0 8.04691,0 8.04691,-8.04691 z m -363.1267,-29.94 c 35.67051,-10.593 20.80266,-65.39823 -15.38637,-56.71662 -26.03588,6.24591 -30.96275,42.03055 -7.48695,54.37895 8.37374,4.40463 13.98276,4.97788 22.87332,2.33767 z m 211.5846,-2.20701 c 25.92611,-7.12311 30.77937,-11.88327 25.02725,-24.54716 -12.57482,-27.68485 -54.00349,-20.5433 -55.92545,9.64053 -1.23903,19.45864 4.41024,22.18409 30.8982,14.90663 z M 257.61976,353.369 c 0.37586,-48.72978 0.41396,-49.33138 3.30617,-52.22223 7.7184,-7.71475 16.64823,-1.84992 17.49777,11.49197 0.39782,6.24748 1.07282,8.6946 2.39831,8.6946 1.52048,0 1.84467,-5.74102 1.84467,-32.66666 0,-27.0516 -0.31964,-32.66667 -1.85955,-32.66667 -11.67159,0 -34.59311,12.16671 -47.48802,25.20655 -21.15649,21.39432 -25.3191,35.3359 -25.3191,84.7998 0,34.91311 0,34.91311 7.66666,32.31371 9.96699,-3.37932 26.41207,-2.7479 34.33334,1.31826 2.93333,1.50575 5.76221,2.80312 6.28641,2.88304 0.52419,0.0799 1.12419,-22.03865 1.33334,-49.15237 z m 121.04692,-60.03566 c 0,-15.4 -0.45,-27.99969 -1,-27.99933 -0.55,3.7e-4 -4.04237,1.15703 -7.76081,2.57036 -16.32567,6.20512 -40.81938,6.20512 -57.14505,0 -3.71844,-1.41333 -7.21081,-2.56999 -7.76081,-2.57036 -0.55,-3.6e-4 -1,12.59933 -1,27.99933 0,28 0,28 37.33333,28 37.33334,0 37.33334,0 37.33334,-28 z m -148.11837,-37.3673 c 3.92878,-2.95202 8.07588,-5.88926 9.21582,-6.52719 1.79533,-1.00472 1.48932,-2.34472 -2.28732,-10.01616 -3.5072,-7.12415 -4.62484,-11.51944 -5.71444,-22.47282 -1.95552,-19.65814 -4.90812,-24.6834 -11.79902,-20.0817 -22.20617,14.82914 -24.96969,41.47004 -6.10552,58.85844 7.4656,6.88155 7.84344,6.88696 16.69048,0.23943 z m 238.26055,-0.23943 c 18.86417,-17.3884 16.10065,-44.0293 -6.10552,-58.85844 -6.88704,-4.59912 -9.84374,0.42413 -11.79423,20.03777 -1.06401,10.69929 -2.2542,15.46769 -5.62209,22.52449 -3.60804,7.55998 -3.96444,9.12421 -2.29211,10.0601 1.08915,0.60951 5.19469,3.52349 9.12347,6.47551 8.84704,6.64753 9.22488,6.64212 16.69048,-0.23943 z m -108.7409,-6.41351 c 31.39251,-9.34909 46.59872,-33.7344 46.59872,-74.7276 0,-38.08106 -8.38485,-46.82608 -45.74061,-47.7054 -21.07395,-0.49606 -21.07395,-0.49606 -28.95454,5.03185 -12.36236,8.67171 -22.58503,12.47428 -45.97152,17.10026 -12.77947,2.52785 -14.23791,44.44068 -2.36279,67.90202 13.90926,27.48013 46.52403,41.30549 76.43074,32.39887 z m -60.016,-62.89784 c -8.26226,-8.86848 4.0888,-21.93232 13.63576,-14.42269 4.53445,3.5668 5.00674,10.64632 0.97896,14.6741 -3.66655,3.66655 -11.08347,3.53896 -14.61472,-0.25141 z m 67.94805,0.25141 c -4.02778,-4.02778 -3.55549,-11.1073 0.97896,-14.6741 9.69828,-7.62867 22.23572,6.01736 13.26844,14.44169 -3.9275,3.68969 -10.67996,3.79985 -14.2474,0.23241 z m -97.8698,50.31424 c 1.77687,-1.77685 -12.12521,-24.9809 -14.96663,-24.9809 -5.25176,0 -3.91489,10.60002 2.777,22.01888 3.21386,5.48402 8.40596,6.74569 12.18963,2.96202 z m 156.71447,-6.73876 c 4.55799,-8.80365 4.96601,-18.24214 0.7886,-18.24214 -3.20564,0 -7.10255,6.14762 -15.38556,24.27173 -0.23588,0.51613 1.56189,1.48757 3.99505,2.15876 4.98508,1.37516 6.09388,0.51879 10.60191,-8.18835 z M 255.33334,178.66667 c 0,-14.33305 -0.7417,-15.52773 -7.42098,-11.95309 -3.66531,1.96161 -3.86903,21.73589 -0.24568,23.84629 6.69732,3.90084 7.66666,2.39711 7.66666,-11.8932 z m 179.80677,11.63952 c 4.28856,-3.13588 2.59269,-22.54316 -2.11408,-24.1931 -4.76703,-1.67108 -4.58682,-2.10622 -5.33716,12.88692 -0.70024,13.99186 0.75616,16.20174 7.45124,11.30618 z M 95.016573,619.29503 c -1.600563,-1.12108 -3.300841,-4.12108 -3.778397,-6.66666 -0.868282,-4.62835 -0.868282,-4.62835 -11.206749,-4.62835 -12.691926,0 -17.364758,-2.71703 -17.364758,-10.09677 0,-7.82524 3.466013,-9.90323 16.518279,-9.90323 11.184946,0 11.184946,0 12.026078,-4.48361 1.062605,-5.66418 5.01604,-9.29416 10.122314,-9.29416 5.10627,0 9.0597,3.62998 10.12231,9.29416 1.33141,7.09702 458.42398,7.09702 459.7554,0 2.38444,-12.71016 20.78897,-11.62599 20.78897,1.22462 0,3.20082 0.20228,3.25899 11.33333,3.25899 13.21335,0 16.66667,2.05193 16.66667,9.90323 0,7.37974 -4.67283,10.09677 -17.36476,10.09677 -10.33847,0 -10.33847,0 -11.20675,4.62835 -2.13888,11.4012 -16.23409,11.89273 -19.59253,0.68322 -2.51835,-8.40545 -458.48693,-8.40545 -461.00526,0 -2.33285,7.78636 -9.41464,10.46583 -15.814147,5.98344 z M 111.75106,456.55807 c -14.268019,-4.39043 -15.148629,-20.55806 -1.11974,-20.55806 17.33314,0 28.17044,10.65279 19.57828,19.24495 -3.94202,3.94203 -8.79352,4.28715 -18.45854,1.31311 z m 16.65774,-30.52974 c -9.23209,-9.53161 -9.47009,-15.87504 -0.76949,-20.50946 10.56159,-5.62568 28.54018,16.83728 19.94143,24.9154 -5.5674,5.23029 -11.06143,3.9677 -19.17194,-4.40594 z m 30.44529,-12.80098 c -6.64066,-7.12791 -7.69066,-24.59196 -1.67223,-27.81294 9.18627,-4.91633 18.81815,5.92687 18.81815,21.18475 0,7.64843 -11.9071,12.2514 -17.14592,6.62819 z m 408.47926,-0.10031 c -13.25756,-7.25132 -1.77728,-22.46036 16.9538,-22.46036 7.04947,0 11.41044,9.09103 7.693,16.03711 -2.3264,4.34693 -20.01481,8.95674 -24.6468,6.42325 z m -17.5795,-25.10763 c -8.23862,-3.40061 -7.68316,-11.8292 1.37661,-20.88896 8.41548,-8.41549 13.40291,-9.38497 19.07916,-3.70872 8.23627,8.23627 -9.22516,29.23331 -20.45577,24.59768 z m -26.07022,-18.07512 c -9.31716,-5.1355 -2.51412,-31.27761 8.13947,-31.27761 4.62635,0 9.94428,5.67423 9.80807,10.46519 -0.46771,16.44972 -8.64942,25.93744 -17.94754,20.81242 z"
         id="path2908" />
      <path
         style="fill:#000000;fill-opacity:1;stroke-width:1.33333"
         d="M 43.260835,655.3617 C -25.66599,633.58381 -7.4085935,537.41469 65.666669,537.34107 c 7.666667,-0.008 7.666667,-0.008 7.667719,-11.00772 0.003,-30.87775 21.464929,-47.07217 66.665612,-50.30348 17.57021,-1.25605 28.30018,-3.30323 39.55823,-7.54729 5.55822,-2.09535 5.55822,-2.09535 3.66667,-7.45659 -2.7522,-7.80057 -2.41864,-23.48103 0.6802,-31.97596 2.30797,-6.32692 2.63479,-11.90478 3.18636,-54.38335 0.73932,-56.9384 2.63097,-67.08364 16.61461,-89.10675 4.51246,-7.10675 4.51246,-7.10675 -3.56506,-14.41648 -32.91439,-29.78582 -21.27492,-82.5795 21.3573,-96.87143 1.23031,-0.41244 2.56836,-2.93035 3.09932,-5.83223 0.5139,-2.80854 2.38966,-7.61329 4.16836,-10.67721 2.92179,-5.03293 3.23626,-7.09256 3.25716,-21.33334 0.0819,-55.716376 35.03783,-99.413349 88.25398,-110.322466 39.65966,-8.130085 95.15311,12.185049 77.80482,28.482916 -4.17179,3.919193 -8.52192,3.33296 -22.83491,-3.077278 -45.92602,-20.568504 -102.92703,5.458234 -118.70659,54.201578 -4.54241,14.03158 -6.29373,39.61935 -2.71171,39.61935 1.57904,0 2.17127,-1.23258 2.17127,-4.51896 0,-8.36177 2.93665,-10.17722 18.6868,-11.55224 36.34535,-3.17303 57.12401,-16.16196 65.97192,-41.23963 2.78526,-7.894234 5.56468,-10.689174 10.62986,-10.689174 10.08189,0 12.81526,10.728715 6.09128,23.908814 -2.76739,5.42452 -2.76739,5.42452 10.6351,5.42452 25.94215,0 45.12192,11.16435 54.11528,31.49995 2.41822,5.468 3.85028,7.16672 6.04176,7.16672 7.21611,0 1.55607,-34.16875 -9.21404,-55.62372 -6.89316,-13.731739 -6.89148,-18.107926 0.008,-21.414862 14.47835,-6.939189 31.70071,29.857964 31.70071,67.731032 0,14.69132 0.29502,16.6742 3.23402,21.73679 1.7787,3.06392 3.65446,7.86867 4.16836,10.67721 0.53096,2.90188 1.86901,5.41979 3.09932,5.83223 42.63222,14.29193 54.27169,67.08561 21.3573,96.87143 -8.07752,7.30973 -8.07752,7.30973 -3.56506,14.41648 19.19284,30.2272 23.08226,79.52252 6.29081,79.73102 -8.17068,0.10146 -10.21455,-4.72739 -10.98689,-25.95761 -1.51967,-41.7732 -37.85385,-83.0796 -73.28823,-83.3175 -3.47654,-0.0233 -2.95104,64.36414 0.53077,65.03361 1.78619,0.34344 2.27204,-1.12569 2.72505,-8.24028 0.6767,-10.62717 3.27035,-14.14249 10.43455,-14.14249 10.21436,0 9.95135,-1.54379 10.37601,60.90225 0.29126,42.82634 0.74214,55.13732 2,54.60754 13.6047,-5.7299 29.91475,-6.17798 41.29066,-1.13435 6.33333,2.80795 6.33333,2.80795 6.33333,-5.84996 0,-12.59092 3.3294,-17.93052 11.10906,-17.81641 8.36809,0.1228 10.21972,5.97469 10.24469,32.37773 0.0244,25.81319 0.36497,26.71048 7.38543,19.45998 11.18337,-11.54987 19.44472,-12.33591 33.38949,-3.17695 15.91938,10.45587 33.80439,12.35103 51.56844,5.46437 10.80858,-4.1902 15.37663,-4.36772 22.24372,-0.86438 11.3119,5.77089 11.34174,5.90508 11.77939,52.95652 0.38688,41.593 0.38688,41.593 6.66667,42.44128 65.13641,8.79864 72.58843,98.33538 9.77115,117.40116 -10.89435,3.30656 -438.79233,2.76456 -442.89922,-0.561 -4.39475,-3.55864 -4.11449,-10.3693 0.59331,-14.41878 3.6299,-3.12232 3.6299,-3.12232 218.1722,-3.12232 211.56256,0 214.64169,-0.0372 221.69812,-2.67734 33.87273,-12.67341 34.02948,-61.06825 0.24,-74.09943 -10.39251,-4.00796 -580.199061,-4.00796 -590.591574,0 -33.78947,13.03118 -33.632725,61.42602 0.24,74.09943 6.7276,2.51712 10.349597,2.67734 60.526784,2.67734 38.01862,0 54.20872,0.44618 56.28332,1.55112 6.64141,3.53724 7.96905,9.23166 3.48224,14.93573 -3.19895,4.06681 -111.049287,5.41504 -123.309065,1.54149 z M 320.00001,535.33335 c 0,-1.76209 -13.48148,-2 -113.33334,-2 -99.85185,0 -113.333333,0.23791 -113.333333,2 0,1.7621 13.481483,2 113.333333,2 99.85186,0 113.33334,-0.2379 113.33334,-2 z m 36,-9.12037 c 0,-22.69107 14.98795,-40.26674 40,-46.90611 3.96692,-1.053 5.84263,-2.22195 5.53558,-3.44976 -2.90352,-11.61041 -3.10702,-18.63824 -0.79272,-27.37768 2.08269,-7.86485 2.48494,-16.01026 2.87144,-58.14608 0.44945,-49.00001 0.44945,-49.00001 -62.2491,-49.00001 -62.69853,0 -62.69853,0 -62.69853,44.0765 0,59.74531 0.60234,63.16818 10.91093,62.00188 4.29263,-0.48565 11.70745,-2.35196 16.47736,-4.14736 10.50377,-3.9536 15.10797,-4.08569 21.88587,-0.62786 11.31434,5.77214 11.34169,5.89526 11.77968,53.03018 0.38717,41.66667 0.38717,41.66667 8.33333,41.66667 7.94616,0 7.94616,0 7.94616,-11.12037 z m 246.66668,9.12037 c 0,-1.76209 -13.48148,-2 -113.33334,-2 -99.85186,0 -113.33334,0.23791 -113.33334,2 0,1.7621 13.48148,2 113.33334,2 99.85186,0 113.33334,-0.2379 113.33334,-2 z m -480.00002,-30 c 0,-4.63773 -0.53639,-6.66667 -1.76248,-6.66667 -4.39557,0 -14.44331,4.57066 -19.11017,8.69311 -5.12735,4.52923 -5.12735,4.52923 7.87265,4.58472 13,0.0555 13,0.0555 13,-6.61116 z m 162.66635,-1 c 4.20024,-10.19995 16.5612,-22.59851 26.97756,-27.05961 7.64392,-3.27372 7.64392,-3.27372 7.66667,-9.38483 0.03,-8.04516 0.0277,-8.04605 -10.3522,-4.26127 -5.94588,2.168 -13.11009,3.51852 -21.30451,4.01607 -12.15993,0.73832 -12.38629,0.81461 -15.00881,5.05795 -13.91013,22.50705 -45.08726,29.74918 -68.17936,15.83738 -8.83344,-5.32169 -8.45811,-5.27554 -15.96287,-1.96297 -8.20745,3.62275 -26.47541,8.17584 -36.96585,9.21333 -8.87031,0.87728 -8.87031,0.87728 -9.27018,8.54395 -0.39988,7.66667 -0.39988,7.66667 69.42131,7.66667 69.82119,0 69.82119,0 72.97824,-7.66667 z m 34.66699,-0.40872 c 0,-8.97264 -4.09381,-8.70105 -11.18513,0.74205 -5.58082,7.43164 -5.62246,7.33334 3.10644,7.33334 8.07869,0 8.07869,0 8.07869,-8.07539 z m 85.33334,1.40872 c 0,-4.63773 -0.53639,-6.66667 -1.76248,-6.66667 -4.39558,0 -14.44331,4.57066 -19.11018,8.69311 -5.12734,4.52923 -5.12734,4.52923 7.87266,4.58472 13,0.0555 13,0.0555 13,-6.61116 z m 162.66635,-1 c 4.20024,-10.19995 16.5612,-22.59851 26.97756,-27.05961 7.64392,-3.27372 7.64392,-3.27372 7.66667,-9.38483 0.0303,-8.13696 -0.1752,-8.21953 -10.42862,-4.18981 -19.425,7.63425 -47.2722,4.49736 -64.34777,-7.24858 -6.84452,-4.7082 -6.84452,-4.7082 -13.10179,1.85218 -18.1776,19.05812 -46.11268,32.76397 -74.3364,36.47181 -16.12386,2.11824 -15.096,1.44756 -15.096,9.85033 0,7.37518 0,7.37518 69.75465,7.37518 69.75465,0 69.75465,0 72.9117,-7.66667 z m 34.66699,-0.40872 c 0,-8.97264 -4.09382,-8.70105 -11.18514,0.74205 -5.58081,7.43164 -5.62245,7.33334 3.10644,7.33334 8.0787,0 8.0787,0 8.0787,-8.07539 z M 245.14456,471.65932 c 19.90266,-10.24942 20.21974,-39.69129 0.55197,-51.25227 -19.58639,-11.51314 -44.30463,2.76556 -44.30463,25.59297 0,22.40688 23.40941,36.13562 43.75266,25.6593 z m 197.245,2.28688 c 11.55808,-2.30981 14.50444,-3.28053 27.27712,-8.98681 10.24352,-4.57636 11.24028,-7.28139 6.49488,-17.62604 -13.31481,-29.02546 -56.35203,-20.03958 -56.35203,11.76592 0,16.61459 3.20144,18.71961 22.58003,14.84693 z M 257.61976,353.47179 c 0.42978,-55.60309 0.27865,-54.80511 10.38025,-54.80511 7.1642,0 9.75785,3.51532 10.43455,14.14249 0.45301,7.11459 0.93886,8.58372 2.72505,8.24028 3.48181,-0.66947 4.00731,-65.05696 0.53077,-65.03361 -18.2646,0.12266 -47.61337,19.2959 -60.31039,39.4002 -11.45552,18.13854 -12.6204,24.12342 -13.12,67.40749 -0.44041,38.15684 -0.44041,38.15684 7.31647,35.52578 9.8916,-3.35515 24.91721,-2.76818 33.75688,1.31868 3.3,1.5257 6.42888,2.82456 6.95308,2.88634 0.52419,0.0617 1.12419,-22.02534 1.33334,-49.08254 z m 121.04692,-60.83935 c 0,-28.70091 0,-28.70091 -3.72579,-26.77423 -7.52289,3.89024 -20.92368,6.47017 -33.60755,6.47017 -12.68386,0 -26.08465,-2.57993 -33.60754,-6.47017 -3.72579,-1.92668 -3.72579,-1.92668 -3.72579,26.77423 0,28.7009 0,28.7009 37.33333,28.7009 37.33334,0 37.33334,0 37.33334,-28.7009 z m -148.13891,-36.2991 c 3.54713,-2.75 7.5709,-5.65998 8.94174,-6.46664 2.39423,-1.40886 2.35422,-1.75028 -1.01565,-8.66667 -4.91105,-10.07956 -6.43783,-16.45908 -6.44641,-26.93586 -0.012,-15.11602 -5.00083,-21.85408 -12.67411,-17.11938 -22.20944,13.70406 -23.98391,45.6197 -3.38149,60.81969 5.96156,4.3983 6.94001,4.28881 14.57592,-1.63114 z m 236.93886,1.23052 c 19.78236,-14.34011 17.54517,-47.04264 -4.13328,-60.41907 -7.69712,-4.74941 -12.66667,2.0029 -12.66667,17.21071 0,9.9628 -2.66901,20.70197 -7.14916,28.76573 -2.7739,4.99271 -2.78301,5.17274 -0.33706,6.67165 1.38257,0.84725 5.28257,3.75185 8.66666,6.45466 7.49458,5.98579 9.0026,6.11287 15.61951,1.31632 z m -108.70862,-7.71254 c 32.71586,-9.70679 47.90867,-33.36699 47.90867,-74.60955 0,-38.98837 -8.05791,-47.52516 -45.63653,-48.34873 -20.96989,-0.45958 -20.96989,-0.45958 -30.66667,5.99036 -10.85447,7.21998 -21.60732,11.37039 -38.36347,14.80766 -14.24648,2.92244 -15.84849,6.10267 -15.94164,31.64652 -0.18273,50.11164 38.96401,83.49007 82.69964,70.51374 z m -58.66123,-64.03113 c -4.53196,-5.76145 -3.45744,-11.37 2.79811,-14.60486 6.86511,-3.55008 14.43845,0.81642 14.43845,8.32466 0,9.35611 -11.51644,13.55216 -17.23656,6.2802 z m 67.90323,0.84648 c -5.0666,-5.0666 -2.3351,-14.79018 4.64707,-16.5426 3.8832,-0.97462 10.60892,2.0139 11.85803,5.269 3.87098,10.08766 -8.94039,18.83831 -16.5051,11.2736 z m -97.81681,50.26127 c 1.84437,-1.84439 -12.00523,-24.92793 -14.95619,-24.92793 -5.59625,0 -4.31888,9.9448 2.85661,22.23985 3.08662,5.28883 8.33322,6.45443 12.09958,2.68808 z m 156.61501,-6.75523 c 9.68698,-20.47628 1.40362,-26.1531 -8.69186,-5.95678 -7.2594,14.52265 -7.04295,12.78705 -1.773,14.21688 5.66112,1.53597 5.93146,1.32258 10.46486,-8.2601 z m -170.7982,-51.50604 c 0,-14.47624 -1.64709,-16.63104 -8.74516,-11.44081 -3.80768,2.78424 -3.80768,20.09739 0,22.88163 7.09807,5.19022 8.74516,3.03542 8.74516,-11.44082 z m 179.41183,11.44082 c 7.02595,-5.1375 2.5344,-24.77415 -5.66667,-24.77415 -3.01053,0 -3.07849,0.29433 -3.07849,13.33333 0,14.47624 1.64709,16.63104 8.74516,11.44082 z M 94.625003,618.62502 c -1.489584,-1.48959 -3.064584,-4.48959 -3.5,-6.66667 -0.791667,-3.95833 -0.791667,-3.95833 -11.111855,-3.95833 -12.509868,0 -17.346479,-2.74512 -17.346479,-9.84536 0,-7.85005 3.760604,-10.15464 16.570219,-10.15464 11.133006,0 11.133006,0 11.974138,-4.48361 2.331583,-12.4284 17.723294,-12.50202 20.050694,-0.0959 1.35988,7.24877 458.78338,7.24877 460.14325,0 2.32741,-12.40612 17.71912,-12.33251 20.05069,0.0959 0.84113,4.48361 0.84113,4.48361 12.02608,4.48361 13.05227,0 16.51828,2.07799 16.51828,9.90323 0,7.3761 -4.67417,10.09677 -17.34648,10.09677 -10.32019,0 -10.32019,0 -11.11185,3.95833 -2.44595,12.22971 -17.51492,12.30467 -20.19543,0.1004 -1.41104,-6.42446 -458.61478,-6.42446 -460.02583,0 -1.86508,8.49166 -11.12724,12.1344 -16.695427,6.56622 z M 111.85006,456.50216 c -10.27715,-3.15316 -14.201835,-11.5535 -8.39544,-17.96949 4.68941,-5.18175 24.37968,-1.29904 27.896,5.50077 5.80813,11.23167 -3.70564,17.3148 -19.50056,12.46872 z m 17.58198,-29.50215 c -7.67432,-7.41014 -9.39057,-12.1631 -6.16795,-17.08144 4.99032,-7.61618 12.02221,-6.47566 21.31289,3.45682 14.12291,15.09853 -0.23832,28.01812 -15.14494,13.62462 z m 29.57469,-14 c -6.84198,-7.35313 -7.9631,-24.30052 -1.82487,-27.5856 9.20683,-4.92734 15.45593,1.49434 18.31844,18.82427 1.57047,9.50779 -10.05359,15.68244 -16.49357,8.76133 z m 408.1454,0.13647 c -2.93904,-1.45331 -5.81878,-6.38671 -5.81878,-9.96844 0,-7.75179 20.77795,-15.41628 27.74816,-10.23565 7.79347,5.7925 4.8318,15.41244 -5.65804,18.3782 -10.76905,3.0447 -13.2447,3.32252 -16.27134,1.82589 z m -17.15211,-25.34277 c -8.54988,-4.67643 -8.1576,-11.14334 1.24637,-20.54732 9.62019,-9.62019 18.87216,-9.59092 21.29623,0.0673 2.33636,9.30876 -14.68848,24.77583 -22.5426,20.47996 z m -26.24178,-17.84168 c -9.28084,-5.03936 -2.60352,-31.28535 7.9594,-31.28535 4.97639,0 9.61571,5.07631 9.61571,10.52144 0,16.1992 -8.18112,25.86469 -17.57511,20.76391 z"
         id="path2906" />
      <path
         style="fill:#000000;fill-opacity:1;stroke-width:1.33333"
         d="M 40.564277,654.18202 C -26.004762,629.43234 -5.7171747,537.4471 66.333336,537.34342 c 7,-0.0101 7,-0.0101 7,-11.13044 0,-29.75376 22.121126,-47.06591 63.333334,-49.5651 16.64594,-1.00944 31.17479,-3.62824 41.44283,-7.47001 7.02237,-2.62741 7.02237,-2.62741 4.96149,-8.67576 -2.86672,-8.41339 -1.84905,-25.65218 2.02712,-34.33826 2.79968,-6.27378 2.9019,-8.13302 2.9019,-52.78672 0,-56.35232 1.73606,-65.80036 16.24842,-88.42763 4.09439,-6.38384 4.09439,-6.38384 -4.04528,-13.74981 -30.88009,-27.94488 -22.5071,-79.25322 15.43502,-94.58336 7.33672,-2.96434 7.7714,-3.40659 9.3317,-9.49447 0.9001,-3.51191 2.8501,-8.02673 4.33334,-10.03292 2.35678,-3.18773 2.6968,-5.67879 2.6968,-19.75783 0,-85.382243 83.81001,-138.716585 158.9498,-101.151182 10.94319,5.470937 13.3837,11.607794 7.1108,17.880681 -4.35186,4.351876 -7.12952,4.143594 -19.5541,-1.466261 -59.86653,-27.030484 -126.34485,15.930672 -126.48335,81.738992 -0.0209,9.93914 0.22198,11 2.51869,11 1.87855,0 2.36133,-0.69028 1.85009,-2.64527 -2.3594,-9.02235 3.33639,-12.62368 21.74354,-13.74801 30.76644,-1.87926 63.19786,-23.92328 63.19786,-42.956338 0,-3.487347 6.19158,-8.650386 10.37365,-8.650386 9.14149,0 11.72682,8.738466 6.41022,21.666667 -3.15284,7.666667 -3.15284,7.666667 10.07371,7.666667 25.88687,0 43.93912,10.59205 53.88551,31.61697 5.4823,11.58863 8.59025,10.06875 8.59025,-4.2009 0,-15.5222 -2.94669,-27.08331 -10.94628,-42.946768 -7.61983,-15.110399 -7.58909,-19.876646 0.14883,-23.081798 14.13356,-5.854311 30.79745,31.622552 30.79745,69.263026 0,14.09301 0.33971,16.58361 2.6968,19.77174 1.48324,2.00619 3.43324,6.52101 4.33334,10.03292 1.5603,6.08788 1.99498,6.53013 9.3317,9.49447 37.95631,15.33588 46.35522,66.93494 15.38558,94.52184 -8.18044,7.28691 -8.18044,7.28691 -4.04095,13.74104 19.26203,30.03264 23.32155,80.66546 6.44705,80.41174 -7.38494,-0.11107 -10.14638,-6.36627 -10.17322,-23.0444 -0.0678,-42.10363 -37.3861,-86.24654 -72.91267,-86.24654 -4.09651,0 -4.34855,64.25701 -0.25512,65.04407 1.74706,0.3359 2.28024,-1.26176 2.86906,-8.59746 0.82738,-10.30729 3.58086,-13.77994 10.92616,-13.77994 9.50399,0 9.34584,-0.98462 9.78154,60.89761 0.29972,42.56986 0.75976,55.13102 2,54.60776 13.50611,-5.69813 29.48897,-6.08502 41.2774,-0.99917 6.33333,2.73237 6.33333,2.73237 6.33333,-5.13345 0,-12.60887 3.44099,-18.57322 10.76759,-18.66368 7.89776,-0.0975 9.23241,3.87954 9.23241,27.51124 0,29.84289 0.87084,31.86492 10.00359,23.22756 10.4846,-9.9159 19.74576,-10.7646 30.80431,-2.82296 15.80432,11.34981 33.30161,13.37831 53.22692,6.17071 15.38133,-5.56391 25.49717,-2.83386 31.24473,8.43229 2.55939,5.01683 2.72046,7.70023 2.72046,45.32523 0,39.99269 0,39.99269 5,40.80015 17.90519,2.89148 27.48904,7.53106 38.13584,18.46173 30.49825,31.3114 17.10783,83.65103 -25.11779,98.17878 -12.21839,4.20374 -440.48123,4.20972 -444.68473,0.006 -3.59379,-3.59379 -3.52239,-10.81221 0.13973,-14.12668 2.72917,-2.47008 8.79296,-2.55833 220.33334,-3.20665 217.52694,-0.66667 217.52694,-0.66667 224.31364,-4.24771 29.64325,-15.64143 28.41518,-57.12106 -2.12003,-71.60675 -11.58838,-5.49744 -583.078315,-5.49744 -594.666688,0 -30.535214,14.48569 -31.763281,55.96532 -2.120027,71.60675 6.786693,3.58104 6.786693,3.58104 63.453365,4.24771 31.16666,0.36666 57.6354,1.14968 58.8194,1.74001 5.14208,2.56383 6.32475,9.77916 2.41716,14.74684 -4.04077,5.137 -112.325521,5.44793 -126.005623,0.36181 z M 320.00001,535.33335 c 0,-1.76209 -13.48148,-2 -113.33334,-2 -99.85185,0 -113.333333,0.23791 -113.333333,2 0,1.7621 13.481483,2 113.333333,2 99.85186,0 113.33334,-0.2379 113.33334,-2 z m 36.23078,-10.33333 c 1.02724,-23.08295 17.71569,-41.71548 40.8661,-45.62672 4.61752,-0.78012 5.58258,-1.40643 4.88868,-3.17264 -3.57142,-9.09062 -3.485,-23.50447 0.2041,-34.03495 1.39522,-3.9827 1.81034,-16.1356 1.81034,-53 0,-47.83237 0,-47.83237 -62.76668,-47.83237 -62.76667,0 -62.76667,0 -62.17005,49.66667 0.72526,60.37587 0.21654,57.59453 10.34072,56.53634 4.23208,-0.44233 11.71892,-2.31897 16.63742,-4.17029 10.99331,-4.13787 14.41816,-4.19484 22.00391,-0.36604 11.55717,5.83332 11.90741,7.41826 11.93275,54 0.0219,40.33333 0.0219,40.33333 7.86289,40.33333 7.84096,0 7.84096,0 8.38982,-12.33333 z m 246.4359,10.33333 c 0,-1.76209 -13.48148,-2 -113.33334,-2 -99.85186,0 -113.33334,0.23791 -113.33334,2 0,1.7621 13.48148,2 113.33334,2 99.85186,0 113.33334,-0.2379 113.33334,-2 z m -480.00002,-30 c 0,-8.06367 -2.19753,-8.63281 -12.84521,-3.32685 -14.651337,7.30106 -14.665853,9.99352 -0.0539,9.99352 12.89908,0 12.89908,0 12.89908,-6.66667 z m 162.66635,-1 c 4.20024,-10.19995 16.5612,-22.59851 26.97756,-27.05961 7.64392,-3.27372 7.64392,-3.27372 7.66667,-9.38483 0.0301,-8.07988 0.0193,-8.08416 -10.85275,-4.30323 -5.86386,2.03926 -13.90773,3.56406 -21.34266,4.04575 -11.93199,0.77304 -11.93199,0.77304 -15.77867,6.36399 -16.31265,23.70964 -48.20082,28.59185 -72.29764,11.06909 -1.87444,-1.36307 -3.46096,-1.21679 -8.66667,0.79903 -10.02535,3.88213 -29.46944,8.7887 -39.00101,9.84161 -8.70451,0.96153 -8.70451,0.96153 -9.10438,8.6282 -0.39988,7.66667 -0.39988,7.66667 69.42131,7.66667 69.82119,0 69.82119,0 72.97824,-7.66667 z m 34.66699,-0.36757 c 0,-9.12734 -4.14873,-8.99007 -11.06771,0.36617 -5.75153,7.77757 -5.79421,7.66807 2.98902,7.66807 8.07869,0 8.07869,0 8.07869,-8.03424 z m 85.33334,1.36757 c 0,-8.06367 -2.19754,-8.63281 -12.8452,-3.32685 -14.65135,7.30106 -14.66587,9.99352 -0.0539,9.99352 12.89908,0 12.89908,0 12.89908,-6.66667 z m 162.66635,-1 c 4.20024,-10.19995 16.5612,-22.59851 26.97756,-27.05961 7.64392,-3.27372 7.64392,-3.27372 7.66667,-9.38483 0.0301,-8.07988 0.0193,-8.08416 -10.85275,-4.30323 -22.74713,7.91067 -48.92552,4.49178 -66.17654,-8.64265 -4.38537,-3.33889 -4.38537,-3.33889 -12.66666,4.81353 -19.72635,19.41942 -48.59232,32.77234 -77.61463,35.90324 -9.33334,1.00688 -9.33334,1.00688 -9.7332,8.67355 -0.39988,7.66667 -0.39988,7.66667 69.42131,7.66667 69.82119,0 69.82119,0 72.97824,-7.66667 z m 34.66699,-0.36757 c 0,-9.12734 -4.14874,-8.99007 -11.06771,0.36617 -5.75153,7.77757 -5.79421,7.66807 2.98901,7.66807 8.0787,0 8.0787,0 8.0787,-8.03424 z M 246.09274,471.3495 c 16.38278,-9.60095 19.36834,-34.18122 5.70062,-46.93339 -14.6789,-13.69563 -38.2695,-9.68903 -47.08254,7.99644 -13.31836,26.72647 15.67199,54.00397 41.38192,38.93695 z m 193.90728,3.22694 c 9.37057,-1.51741 25.64008,-6.72413 33.66666,-10.77432 6.2199,-3.13852 6.65324,-7.96092 1.62252,-18.05624 -13.86916,-27.83177 -55.63951,-17.63123 -55.63951,13.58747 0,15.61121 3.21339,18.01815 20.35033,15.24309 z M 257.6053,353.47157 c 0.44183,-55.06868 0.39472,-54.80489 9.78698,-54.80489 7.3453,0 10.09878,3.47265 10.92616,13.77994 0.58882,7.3357 1.122,8.93336 2.86906,8.59746 4.09343,-0.78706 3.84139,-65.04407 -0.25512,-65.04407 -20.03832,0 -52.71351,23.85901 -63.91053,46.66667 -8.08851,16.4758 -8.97987,22.70705 -9.00214,62.93196 -0.0197,35.59864 -0.0197,35.59864 4.9803,33.40107 7.89701,-3.47086 28.62665,-3.15442 36.33333,0.55462 3.3,1.58822 6.42239,2.93822 6.93863,3 0.51624,0.0617 1.11624,-22.02545 1.33333,-49.08276 z m 121.06138,-60.6394 c 0,-28.50119 0,-28.50119 -8.78375,-25.31285 -17.2178,6.24972 -39.88137,6.24972 -57.09917,0 -8.78375,-3.18834 -8.78375,-3.18834 -8.78375,25.31285 0,28.50117 0,28.50117 37.33333,28.50117 37.33334,0 37.33334,0 37.33334,-28.50117 z M 226.00401,259.99354 c 0.45542,-0.73689 4.40764,-3.77066 8.7827,-6.74172 7.95467,-5.4019 7.95467,-5.4019 5.35906,-9.0471 -4.6929,-6.59057 -8.14576,-19.39897 -8.14576,-30.21665 0,-8.30672 -0.5309,-10.85448 -2.9955,-14.37538 -1.64752,-2.35364 -3.12828,-4.51011 -3.29058,-4.79215 -0.75727,-1.316 -8.74623,3.26519 -13.14662,7.53879 -13.00733,12.63256 -14.93576,31.92086 -4.74288,47.43879 5.44607,8.29124 15.77602,14.08445 18.17958,10.19542 z m 240.19069,-1.44718 c 18.1258,-11.20236 20.1552,-40.40473 3.90468,-56.18703 -4.40039,-4.2736 -12.38935,-8.85479 -13.14662,-7.53879 -0.1623,0.28204 -1.64306,2.43851 -3.29058,4.79215 -2.4646,3.5209 -2.9955,6.06866 -2.9955,14.37538 0,10.81768 -3.45286,23.62608 -8.14576,30.21665 -2.59561,3.6452 -2.59561,3.6452 5.35906,9.0471 4.37506,2.97106 8.32728,6.00483 8.7827,6.74172 1.29395,2.09364 4.61986,1.5887 9.53202,-1.44718 z m -106.00595,-9.04859 c 33.17376,-11.41344 46.47793,-33.02971 46.47793,-75.5161 0,-38.73731 -8.77048,-47.315 -48.37837,-47.315 -19.4193,0 -20.00219,0.0832 -23.96766,3.41989 -9.09639,7.65411 -25.69213,14.11959 -48.28833,18.8125 -12.94179,2.68783 -14.41875,46.35365 -2.33391,69.00113 14.10697,26.43703 49.27019,40.96269 76.49034,31.59758 z m -60.09197,-63.67758 c -4.50301,-5.72464 -3.16034,-11.39766 3.54254,-14.968 6.13189,-3.26618 13.69402,1.81043 13.69402,9.19307 0,8.71415 -11.8117,12.67152 -17.23656,5.77493 z m 67.95518,0.59507 c -7.14197,-7.666 1.04756,-19.71143 10.68692,-15.71868 6.42821,2.66265 8.18319,9.59073 3.83103,15.12361 -3.56999,4.53851 -10.57652,4.8257 -14.51795,0.59507 z m -99.38584,51.46575 c 3.08504,-0.7743 3.08504,-0.7743 -1.32502,-8.32766 -2.42553,-4.15433 -5.19008,-9.80334 -6.14342,-12.55334 -2.47356,-7.13514 -9.19767,-7.50138 -9.19767,-0.50098 0,9.2904 7.66769,24.42544 11.60829,22.9133 1.08503,-0.41636 3.36104,-1.10546 5.05782,-1.53132 z m 159.98649,-11.11852 c 3.34902,-9.81754 2.77351,-14.76248 -1.71808,-14.76248 -3.11566,0 -4.01846,0.82592 -5.46552,5 -0.95334,2.75 -3.7203,8.40306 -6.1488,12.56237 -4.41542,7.56236 -4.41542,7.56236 0.46552,8.8206 5.85563,1.50949 9.51542,-1.79579 12.86688,-11.62049 z m -172.6526,-48.09582 c 0,-14.47624 -1.64709,-16.63104 -8.74516,-11.44081 -6.6082,4.83203 -2.65713,24.77415 4.90841,24.77415 3.83675,0 3.83675,0 3.83675,-13.33334 z m 181.02531,9.33334 c 4.67172,-8.88442 0.24509,-22.66667 -7.28015,-22.66667 -3.01182,0 -3.07849,0.29056 -3.07849,13.41781 0,13.41782 0,13.41782 4.30293,13 2.98136,-0.28949 4.84126,-1.44158 6.05571,-3.75114 z M 94.802427,618.80245 c -1.392,-1.392 -2.92646,-4.33186 -3.409913,-6.53299 -0.879004,-4.00209 -0.879004,-4.00209 -12.253662,-4.46923 -23.966901,-0.98426 -23.524669,-19.80021 0.465364,-19.80021 10.765678,0 10.765678,0 11.60681,-4.48361 2.266408,-12.081 18.547684,-12.39214 19.714914,-0.37676 0.64496,6.63912 460.16985,6.63912 460.81481,0 1.16723,-12.01538 17.44851,-11.70424 19.71491,0.37676 0.84113,4.48361 0.84113,4.48361 11.79367,4.48361 23.78776,0 24.14342,18.82013 0.3741,19.79629 -11.27906,0.46322 -11.27906,0.46322 -12.83157,5.64504 -3.36823,11.24214 -18.79184,10.01651 -18.79184,-1.49328 0,-3.94805 0,-3.94805 -230.66668,-3.94805 -230.66667,0 -230.66667,0 -230.66667,3.94805 0,7.93678 -10.32205,12.39656 -15.864243,6.85438 z M 112.8946,456.65872 c -16.28681,-4.47601 -15.986465,-22.18591 0.34345,-20.25187 14.62804,1.73248 21.93987,7.90127 18.88599,15.93361 -2.42679,6.38293 -7.53923,7.53101 -19.22944,4.31826 z m 16.52247,-30.25203 c -10.66014,-11.05206 -9.89277,-19.83718 1.81919,-20.82669 10.23076,-0.86435 22.62452,16.15604 17.13831,23.53608 -4.84238,6.51393 -10.8957,5.6488 -18.9575,-2.70939 z m 29.68094,-13.40668 c -3.3542,-3.72664 -6.51811,-15.48801 -5.9182,-22 0.26524,-2.8792 5.35172,-7 8.64038,-7 6.80118,0 14.17982,12.04539 14.17982,23.14808 0,7.27975 -11.90652,11.4021 -16.902,5.85192 z m 409.37801,0.33214 c -3.41068,-1.36155 -7.14267,-6.35368 -7.14267,-9.55446 0,-8.10462 20.50664,-16.2294 27.61764,-10.94216 8.38415,6.23386 4.60458,15.67231 -7.61764,19.02298 -9.63736,2.64202 -9.86512,2.66813 -12.85733,1.47364 z m -17.68837,-25.53794 c -9.23816,-3.4473 -9.0691,-11.01997 0.45874,-20.54782 9.55322,-9.5532 16.92335,-9.82682 20.6758,-0.76759 3.64266,8.79415 -12.11101,24.68264 -21.13454,21.31541 z m -25.58578,-17.34966 c -11.18813,-3.8712 -5.44159,-30.88898 6.56992,-30.88898 9.22735,0 11.87364,8.30932 7.12134,22.36087 -2.55398,7.55153 -7.53922,10.65677 -13.69126,8.52811 z"
         id="path2904" />
      <path
         style="fill:#000000;fill-opacity:1;stroke-width:1.33333"
         d="M 42.349268,654.74421 C -23.237025,633.77793 -8.6975848,542.5995 61.000002,537.78339 c 12.333334,-0.85224 12.333334,-0.85224 12.333334,-10.60112 0,-30.5614 21.857365,-47.97977 63.333334,-50.47105 19.09486,-1.14694 48.66667,-7.61184 48.66667,-10.63936 0,-0.22179 -0.9,-2.95411 -2,-6.07184 -2.90909,-8.24527 -2.49077,-21.84962 0.94299,-30.66667 2.67885,-6.87864 2.90685,-10.47483 3.67726,-58 0.98488,-60.75605 0.78296,-59.75863 18.16474,-89.72702 2.52146,-4.34733 2.52022,-4.40911 -0.11827,-5.85697 -37.02609,-20.31772 -29.24417,-87.74957 11.53672,-99.96782 5.671,-1.69907 6.94564,-3.27637 8.26459,-10.22708 0.46397,-2.44504 1.97116,-6.04504 3.3493,-8 2.09716,-2.97489 2.62544,-6.92423 3.23998,-24.22112 2.99521,-84.30488 88.35147,-135.596761 160.2485,-96.295783 17.6421,9.643679 7.55081,25.033657 -10.89858,16.621152 -62.06588,-28.300617 -129.74056,13.370167 -129.74056,79.887911 0,10.52534 0.26067,11.78672 2.43575,11.78672 1.9264,0 2.31768,-0.80442 1.87113,-3.84688 -1.22485,-8.34547 4.95021,-12.13086 19.81317,-12.14569 29.24355,-0.0292 59.09392,-19.40975 65.13898,-42.291951 2.56061,-9.692623 11.92596,-13.048146 17.31087,-6.202338 3.5514,4.514881 3.44782,8.668758 -0.4527,18.153522 -3.15284,7.666667 -3.15284,7.666667 9.03164,7.682497 27.60594,0.0358 51.23339,14.73475 56.23464,34.98417 0.67315,2.72547 1.72415,3.66667 4.0944,3.66667 7.78806,0 3.1308,-33.22053 -7.57982,-54.067482 -7.475,-14.549205 -7.55744,-14.977534 -3.80128,-19.75271 13.34416,-16.964351 34.56989,23.902005 34.56989,66.558152 0,13.40087 0.36516,16.02987 2.67756,19.27733 1.47266,2.06816 3.05716,5.76079 3.52114,8.20583 1.31894,6.95071 2.59358,8.52801 8.26458,10.22708 40.76031,12.21209 48.54414,79.66035 11.53672,99.96782 -2.63854,1.44786 -2.63978,1.50964 -0.11826,5.85697 1.40158,2.41652 4.25165,7.39368 6.33348,11.06035 18.16169,31.98773 15.24657,85.83839 -3.76163,69.48821 -3.59419,-3.09158 -3.71933,-3.66548 -4.57939,-21 -2.07076,-41.73508 -24.68598,-71.7942 -62.44953,-83.00496 -14.53556,-4.31515 -13.42467,-6.84809 -13.42467,30.60948 0,32.7594 0,32.7594 3,32.33333 2.69819,-0.3832 3.06707,-1.34245 3.66667,-9.53474 0.73766,-10.07878 2.82956,-12.89132 9.58817,-12.89132 9.21055,0 9.07849,-0.8847 9.07849,60.82217 0,55.48884 0,55.48884 3,54.54452 18.04122,-5.67888 25.68503,-5.98808 38.66667,-1.56408 9,3.0671 9,3.0671 9,-4.50213 0,-15.86733 7.41571,-23.00575 16.48686,-15.87037 3.51314,2.76344 3.51314,2.76344 3.51314,24.4677 0,30.17014 0.85798,32.19961 9.96955,23.58226 10.99785,-10.40132 19.10549,-10.76799 32.99603,-1.49226 16.75811,11.19065 32.68336,12.11847 55.71564,3.24605 10.62103,-4.09139 22.14388,0.42289 26.70036,10.46036 2.33784,5.15002 2.5624,9.07424 2.58915,45.24537 0.0293,39.60624 0.0293,39.60624 5.02928,40.40179 59.41377,9.45321 75.21015,82.20088 24.2492,111.67576 -14.01255,8.1046 0.0762,7.64954 -236.82454,7.64954 -243.89049,0 -221.75801,0.97742 -221.75801,-9.79335 0,-10.42705 -21.18904,-9.45784 223.13978,-10.20665 217.5269,-0.66667 217.5269,-0.66667 223.5269,-3.78059 30.34071,-15.74642 29.61802,-57.59739 -1.24456,-72.07182 -11.72837,-5.50056 -583.115853,-5.50056 -594.84423,0 -30.862578,14.47443 -31.585276,56.3254 -1.244562,72.07182 5.947822,3.08684 6.496718,3.11972 63.117022,3.78059 57.11702,0.66666 57.11702,0.66666 60.43078,4.52097 3.61134,4.20041 3.42932,8.75779 -0.525,13.14569 -3.27761,3.637 -111.867287,3.41179 -123.340202,-0.25581 z M 320.00001,534.66668 c 0,-2.64574 -0.88889,-2.66666 -113.33334,-2.66666 -112.444444,0 -113.333333,0.0209 -113.333333,2.66666 0,2.64575 0.888889,2.66667 113.333333,2.66667 112.44445,0 113.33334,-0.0209 113.33334,-2.66667 z m 36,-7.28332 c 0,-23.4915 17.67514,-44.05298 41.30008,-48.0444 4.47776,-0.7565 5.32807,-1.35984 4.70099,-3.33557 -3.62945,-11.4354 -3.13541,-25.97989 1.23279,-36.29388 1.77613,-4.1937 2.09948,-12.15118 2.09948,-51.66667 0,-46.7095 0,-46.7095 -64.00001,-46.7095 -64,0 -64,0 -64,42.74291 0,23.5086 0.56842,45.2586 1.26314,48.33334 0.69472,3.07473 1.6219,7.84043 2.06041,10.59043 1.08651,6.81373 10.36405,6.47398 30.02433,-1.09948 10.62103,-4.09139 22.14388,0.42289 26.70036,10.46036 2.33812,5.15065 2.5624,9.07506 2.58915,45.30578 0.0293,39.66667 0.0293,39.66667 8.02928,39.66667 8,0 8,0 8,-9.94999 z m 246.66668,7.28332 c 0,-2.64574 -0.8889,-2.66666 -113.33334,-2.66666 -112.44444,0 -113.33334,0.0209 -113.33334,2.66666 0,2.64575 0.8889,2.66667 113.33334,2.66667 112.44444,0 113.33334,-0.0209 113.33334,-2.66667 z M 122.66667,505.44083 c 0,-7.89253 0,-7.89253 -5,-6.51957 -8.52514,2.34092 -20.333333,10.005 -20.333333,13.19728 0,0.66814 5.700003,1.21481 12.666663,1.21481 12.66667,0 12.66667,0 12.66667,-7.89252 z m 160.09391,5.22585 c 0.57791,-1.1 2.41012,-5 4.07159,-8.66666 4.23801,-9.35283 16.02419,-20.75059 25.50117,-24.66078 7.66667,-3.16326 7.66667,-3.16326 7.66667,-10.40676 0,-6.29466 -0.30564,-7.14548 -2.33333,-6.49534 -1.28334,0.41146 -5.93334,2.0159 -10.33334,3.56541 -4.45704,1.5696 -13.20008,3.16819 -19.74174,3.6096 -11.74175,0.79232 -11.74175,0.79232 -15.76032,6.63312 -15.96339,23.20199 -49.39285,28.30757 -71.63269,10.94025 -2.76418,-2.15857 -3.55228,-2.2326 -6.66666,-0.62628 -6.68234,3.44658 -26.21911,8.83523 -38.19859,10.53598 -12.15518,1.72569 -15.83868,6.71549 -12.11699,16.41406 1.10631,2.883 138.02125,2.05627 139.54423,-0.8426 z m 36.96972,-6.33333 c 0.21832,-4.58333 0.0472,-8.33333 -0.38025,-8.33333 -3.34216,0 -15.35004,12.72486 -15.35004,16.26658 0,0.65991 3.45,1.01988 7.66667,0.79995 7.66666,-0.39987 7.66666,-0.39987 8.06362,-8.7332 z m 85.60305,1.10748 c 0,-7.89253 0,-7.89253 -5,-6.51957 -8.52514,2.34092 -20.33334,10.005 -20.33334,13.19728 0,0.66814 5.7,1.21481 12.66667,1.21481 12.66667,0 12.66667,0 12.66667,-7.89252 z m 160.09391,5.22585 c 0.57791,-1.1 2.41012,-5 4.07159,-8.66666 4.23801,-9.35283 16.02418,-20.75059 25.50117,-24.66078 7.66667,-3.16326 7.66667,-3.16326 7.66667,-10.40676 0,-8.14477 1.15737,-7.88837 -12.66667,-2.80608 -18.18744,6.68648 -44.20003,3.74532 -60.59504,-6.85129 -8.47031,-5.47461 -8.47031,-5.47461 -17.27096,3.10928 -19.08571,18.6156 -44.46511,30.49868 -74.13401,34.71083 -12.15517,1.72569 -15.83868,6.71549 -12.11698,16.41406 1.1063,2.883 138.02124,2.05627 139.54423,-0.8426 z m 36.96972,-6.33333 c 0.21832,-4.58333 0.0472,-8.33333 -0.38025,-8.33333 -3.34216,0 -15.35004,12.72486 -15.35004,16.26658 0,0.65991 3.45,1.01988 7.66666,0.79995 7.66667,-0.39987 7.66667,-0.39987 8.06363,-8.7332 z m -358.9076,-31.53621 c 18.6176,-8.66883 23.07303,-34.61769 8.30706,-48.38103 -18.51874,-17.26128 -48.65338,-5.71594 -50.24305,19.24939 -1.48604,23.33761 20.93278,38.91128 41.93599,29.13164 z m 208.27913,-0.81523 c 27.774,-7.71748 32.48248,-14.11365 21.80933,-29.62653 -16.5254,-24.01885 -54.0198,-12.23805 -54.03531,16.97797 -0.009,17.54643 6.046,19.92311 32.22598,12.64856 z M 258.66668,353.33335 c 0,-54.81953 -0.0253,-54.66667 9.07849,-54.66667 6.75861,0 8.85051,2.81254 9.58817,12.89132 0.5996,8.19229 0.96848,9.15154 3.66667,9.53474 3,0.42607 3,0.42607 3,-32.33333 0,-37.45757 1.11089,-34.92463 -13.42467,-30.60948 -29.73147,8.82629 -53.54573,33.70559 -60.49805,63.20364 -1.55772,6.60921 -2.04251,17.01705 -2.05758,44.1733 -0.0197,35.52685 -0.0197,35.52685 8.31363,32.88081 10.17667,-3.23135 23.96011,-2.65116 33,1.38904 3.3,1.47488 6.75,2.72397 7.66667,2.77577 1.305,0.0737 1.66667,-10.61113 1.66667,-49.23914 z m 120,-60.50118 c 0,-28.50119 0,-28.50119 -9,-25.04023 -13.40612,5.15534 -43.26055,5.15534 -56.66667,0 -9,-3.46096 -9,-3.46096 -9,25.04023 0,28.50117 0,28.50117 37.33333,28.50117 37.33334,0 37.33334,0 37.33334,-28.50117 z M 225.4497,260.52648 c 0.97692,-1.17712 5.16009,-4.43816 9.29595,-7.24676 7.51972,-5.10655 7.51972,-5.10655 2.77601,-14.66319 -4.21933,-8.50026 -4.80563,-10.97264 -5.30396,-22.36658 -0.86264,-19.72353 -4.33108,-24.11438 -14.39135,-18.21866 -21.46909,12.58173 -22.10357,45.80117 -1.15968,60.71795 6.31551,4.49806 6.49483,4.53434 8.78303,1.77724 z m 239.86557,-1.33944 c 21.52141,-14.24219 21.25599,-48.42059 -0.47493,-61.15575 -10.06027,-5.89572 -13.52871,-1.50487 -14.39135,18.21866 -0.49833,11.39394 -1.08463,13.86632 -5.30396,22.36658 -4.74371,9.55664 -4.74371,9.55664 2.77601,14.66319 4.13586,2.8086 8.31903,6.06964 9.29595,7.24676 2.24836,2.7091 1.89128,2.76817 8.09828,-1.33944 z m -106.22648,-9.35435 c 31.91177,-8.31374 47.57789,-33.05736 47.57789,-75.14623 0,-29.88598 -4.95008,-40.00403 -22.49617,-45.98259 -9.63199,-3.28194 -45.06877,-2.90198 -48.75123,0.52273 -8.1241,7.55543 -29.5002,15.98911 -49.08262,19.36494 -13.08268,2.25535 -14.92828,45.20904 -2.95752,68.83219 13.60771,26.85352 45.17124,40.36489 75.70965,32.40896 z m -58.99201,-64.0125 c -6.6066,-8.39892 1.5189,-18.66373 11.46391,-14.48217 6.54384,2.75147 7.87364,10.22339 2.68672,15.09624 -4.36661,4.10221 -10.65547,3.82931 -14.15063,-0.61407 z m 68.13565,0.42722 c -4.91915,-5.2362 -3.57759,-12.19688 2.87357,-14.90939 9.94501,-4.18156 18.07051,6.08325 11.46391,14.48217 -3.61228,4.59227 -10.23911,4.78972 -14.33748,0.42722 z m -100.5563,51.97458 c 4.34279,-1.57513 4.34279,-1.57513 0.95803,-6.55625 -1.86162,-2.73961 -4.64914,-8.28515 -6.1945,-12.32343 -2.50096,-6.53541 -3.22898,-7.3423 -6.62469,-7.3423 -6.09859,0 -4.94591,12.13024 2.17521,22.89097 3.72496,5.6288 3.5329,5.56275 9.68595,3.33101 z m 158.06774,-5.14313 c 5.94681,-9.59585 6.65196,-21.07885 1.2944,-21.07885 -3.62186,0 -4.26808,0.69662 -6.81124,7.3423 -1.54536,4.03828 -4.33288,9.58382 -6.1945,12.32343 -3.38476,4.98112 -3.38476,4.98112 0.95803,6.55061 5.84681,2.11306 6.43371,1.83267 10.75331,-5.13749 z M 256.00001,178.66667 c 0,-14.39614 -4.10212,-18.68245 -9.9244,-10.36998 -5.4659,7.80365 -1.44123,23.70332 6,23.70332 3.9244,0 3.9244,0 3.9244,-13.33334 z m 180.59107,10.36999 c 5.4659,-7.80365 1.44123,-23.70332 -6,-23.70332 -3.9244,0 -3.9244,0 -3.9244,13.33333 0,14.39615 4.10212,18.68246 9.9244,10.36999 z M 95.036938,618.72547 c -1.539577,-1.43433 -3.187175,-4.37417 -3.66133,-6.53298 -0.861449,-3.92216 -0.870662,-3.92547 -12.236756,-4.39226 -24.000602,-0.98565 -23.518069,-19.80021 0.507812,-19.80021 10.808124,0 10.808124,0 11.729123,-4.33333 2.531123,-11.90903 16.739263,-12.60351 19.125763,-0.93486 1.48962,7.28343 460.17398,7.28343 461.66359,0 2.38649,-11.66865 16.59464,-10.97417 19.12576,0.93486 0.921,4.33333 0.921,4.33333 11.91597,4.33333 23.89964,0 24.2047,18.81936 0.32096,19.80021 -11.36609,0.46679 -11.3753,0.4701 -12.23674,4.39226 -2.57158,11.70825 -19.29107,11.45757 -19.29107,-0.28924 0,-3.90323 0,-3.90323 -230.66668,-3.90323 -230.66667,0 -230.66667,0 -230.66667,3.90323 0,7.66022 -10.03069,12.03852 -15.629732,6.82222 z M 112.66667,456.45216 C 101.33901,453.00496 97.513114,445.15358 104,438.66668 c 7.28475,-7.28475 28.56745,0.98183 28.28302,10.9856 -0.23866,8.39419 -6.84837,10.6854 -19.61635,6.79988 z M 129.3989,426.0664 c -7.90418,-8.0036 -9.24072,-13.08456 -4.7478,-18.04917 7.30712,-8.07428 28.05355,6.73196 25.22484,18.00238 -2.39687,9.54988 -11.07242,9.56971 -20.47704,0.0468 z m 30.93465,-12.11616 c -6.70392,-4.69561 -9.02952,-22.82709 -3.48706,-27.18679 7.4135,-5.83146 13.76401,-1.67113 16.97764,11.1224 3.61545,14.39319 -3.60358,22.98951 -13.49058,16.06439 z m 403.76324,-4.13004 c -5.56508,-7.07485 -1.4137,-13.64289 10.77511,-17.04771 11.99749,-3.35137 18.46145,-0.4475 18.46145,8.2936 0,9.77406 -23.01388,16.66496 -29.23656,8.75411 z m -13.30914,-22.02599 c -8.83871,-3.29825 -8.80442,-9.82137 0.1012,-19.23769 9.71974,-10.2772 16.86853,-11.27761 20.40949,-2.85613 4.01015,9.53732 -10.95637,25.6591 -20.51064,22.09382 z m -29.35753,-20.64068 c -3.32661,-4.22909 -3.36973,-5.28932 -0.60797,-14.9483 4.35588,-15.23429 20.5112,-17.84303 20.5112,-3.31214 0,17.01707 -12.12845,28.14446 -19.90323,18.26044 z"
         id="path2902" />
      <path
         style="fill:#000000;fill-opacity:1;stroke-width:1.33333"
         d="M 44.13646,655.22256 C -22.734763,637.24024 -9.2697366,542.74617 60.866411,537.81609 c 12.466925,-0.87634 12.466925,-0.87634 12.466925,-10.62953 0,-31.9253 21.006031,-47.37057 69.402644,-51.0302 16.4744,-1.24574 38.11843,-6.09622 41.55875,-9.31341 0.52876,-0.49448 0.0352,-3.88641 -1.0967,-7.53765 -2.80178,-9.0376 -1.90749,-24.56181 1.90918,-33.14145 2.78072,-6.25088 2.8928,-8.22897 2.8928,-51.05621 0,-56.35794 2.05869,-67.74672 16.24925,-89.89142 4.77433,-7.45044 4.77433,-7.45044 -1.36063,-12 -35.36837,-26.22841 -25.32166,-83.06568 17.40747,-98.47932 2.41103,-0.86973 3.88181,-2.55597 4.38125,-5.02307 0.41351,-2.0426 2.23026,-6.72333 4.03724,-10.40162 2.90204,-5.9074 3.28542,-8.44226 3.28542,-21.72289 0,-52.784317 30.23543,-94.227875 79.59004,-109.093722 36.86122,-11.102771 98.49856,5.118207 88.3247,23.244232 -3.48487,6.208712 -7.83674,6.638803 -18.31322,1.809876 -61.72423,-28.450533 -129.60152,13.446928 -129.60152,79.996914 0,10.45934 0.27016,11.78672 2.39893,11.78672 1.91732,0 2.30134,-0.86995 1.91276,-4.33334 -0.89914,-8.01407 5.25319,-11.41829 21.02164,-11.63175 28.39155,-0.38432 56.23448,-18.10113 63.33451,-40.300527 3.7519,-11.730924 10.79136,-15.063067 17.54804,-8.306387 3.94728,3.947284 3.69255,9.873115 -0.86757,20.182024 -2.53169,5.72331 -2.53169,5.72331 8.66104,5.72331 27.49755,0 46.65268,10.87165 55.60131,31.55697 7.6072,17.58454 12.81164,-2.0577 6.84205,-25.82277 -1.21769,-4.84761 -5.11769,-14.517117 -8.66667,-21.48779 -7.37498,-14.485423 -7.41004,-14.669741 -3.68926,-19.399932 13.15721,-16.726694 34.50199,24.332574 34.55237,66.465722 0.0153,12.84563 0.4213,15.46746 3.30294,21.33334 1.80698,3.67829 3.62373,8.35902 4.03724,10.40162 0.49944,2.4671 1.97022,4.15334 4.38125,5.02307 42.57829,15.35923 52.79984,71.93138 17.72763,98.11522 -6.49602,4.84972 -6.49602,4.84972 -1.70124,12.33214 21.7002,33.86391 22.57136,94.2623 1.11618,77.38565 -2.97964,-2.34379 -3.51665,-3.81176 -3.53625,-9.66667 -0.15631,-46.69855 -20.62667,-79.10791 -58.75512,-93.02307 -19.69532,-7.18791 -18.55511,-8.96255 -18.55511,28.87924 0,32.7594 0,32.7594 3,32.33333 2.69819,-0.3832 3.06707,-1.34245 3.66667,-9.53474 0.73766,-10.07878 2.82956,-12.89132 9.58817,-12.89132 9.20811,0 9.07849,-0.86611 9.07849,60.66667 0,30.43333 0.45,55.32558 1,55.31613 0.55,-0.009 4.80346,-1.20947 9.45212,-2.66667 12.33171,-3.86558 31.35958,-2.41584 36.81455,2.80492 3.56423,3.41119 4.73334,1.0999 4.73334,-9.35761 0,-14.54759 6.42401,-20.19996 15.15352,-13.33333 3.51314,2.76344 3.51314,2.76344 3.51314,25.24653 0,30.34146 0.57784,31.68571 9.85056,22.91595 11.06832,-10.46795 20.27728,-10.9478 32.66907,-1.7023 13.86199,10.34243 31.71875,11.95198 52.81371,4.76043 12.56815,-4.28465 19.01732,-3.42826 25.88252,3.43692 6.18893,6.18895 6.76864,10.646 6.77671,52.10304 0.008,41.76489 -0.37891,39.80933 7.87897,39.80933 9.19335,0 25.10264,7.85136 34.06031,16.80904 32.21527,32.21525 17.21761,88.38896 -26.64927,99.81483 -13.96084,3.63633 -438.28804,3.03734 -441.94925,-0.62387 -3.59379,-3.59379 -3.52239,-10.81221 0.13973,-14.12668 2.72917,-2.47008 8.79296,-2.55833 220.33334,-3.20665 242.62534,-0.74359 221.41872,0.17814 232.81661,-10.11917 21.18656,-19.1408 16.04236,-53.14049 -9.97743,-65.94408 -10.50356,-5.16849 -585.45427,-5.16849 -595.957835,0 -26.019787,12.80359 -31.163985,46.80328 -9.97742,65.94408 10.649049,9.62078 8.914784,9.3779 72.254445,10.11917 56.43929,0.66052 56.99174,0.69365 59.88889,3.59258 3.95049,3.95295 3.89605,10.7026 -0.11253,13.94852 -4.11196,3.32968 -109.063468,3.63092 -121.27139,0.3481 z M 320.00001,534.66668 c 0,-2.64574 -0.88889,-2.66666 -113.33334,-2.66666 -112.444444,0 -113.333333,0.0209 -113.333333,2.66666 0,2.64575 0.888889,2.66667 113.333333,2.66667 112.44445,0 113.33334,-0.0209 113.33334,-2.66667 z m 36,-7.28332 c 0,-23.39282 17.75286,-44.06612 41.25011,-48.03594 5.89575,-0.99608 6.10589,-1.36072 3.99057,-6.92443 -2.43205,-6.39679 -1.78225,-21.61667 1.29691,-30.37676 2.63275,-7.49008 2.79575,-10.65776 2.79575,-54.33334 0,-46.37955 0,-46.37955 -64.00001,-46.37955 -64,0 -64,0 -64,42.25307 0,25.06672 0.59899,45.53971 1.47262,50.33334 0.80993,4.44414 1.7394,9.50212 2.06548,11.23995 0.78654,4.19192 9.81338,3.58698 25.86978,-1.7337 28.22514,-9.35307 33.24039,-0.97093 33.25135,55.57402 0.007,38.33333 0.007,38.33333 8.00744,38.33333 8,0 8,0 8,-9.94999 z m 246.66668,7.28332 c 0,-2.64574 -0.8889,-2.66666 -113.33334,-2.66666 -112.44444,0 -113.33334,0.0209 -113.33334,2.66666 0,2.64575 0.8889,2.66667 113.33334,2.66667 112.44444,0 113.33334,-0.0209 113.33334,-2.66667 z M 122.66667,505.44083 c 0,-7.89253 0,-7.89253 -5,-6.51957 -9.00373,2.47234 -20.333333,9.89873 -20.333333,13.32821 0,0.59613 5.700003,1.08388 12.666663,1.08388 12.66667,0 12.66667,0 12.66667,-7.89252 z m 163.29361,-1.10748 c 4.9662,-11.49877 15.89414,-22.63644 26.53932,-27.04863 7.50041,-3.10874 7.50041,-3.10874 7.50041,-10.19672 0,-7.61285 -0.69707,-8.17498 -6.44892,-5.20058 -5.16128,2.669 -22.78368,6.1126 -31.28085,6.1126 -6.26091,0 -7.35958,0.40396 -8.61951,3.16921 -11.06685,24.28908 -50.52946,31.91028 -73.27951,14.15209 -2.84984,-2.22452 -3.41225,-2.1431 -14.83601,2.14784 -11.33779,4.25864 -30.89044,8.53086 -39.04319,8.53086 -3.75672,0 -6.12399,13.25692 -2.93646,16.44444 0.48888,0.48889 31.85538,0.88889 69.7033,0.88889 68.81442,0 68.81442,0 72.70142,-9 z m 34.03973,0.33333 c 0,-4.76666 -0.39336,-8.66666 -0.87415,-8.66666 -3.37989,0 -15.10257,12.66266 -15.12086,16.33333 -0.003,0.55 3.59501,1 7.99501,1 8,0 8,0 8,-8.66667 z m 85.33334,0.77415 c 0,-7.89253 0,-7.89253 -5,-6.51957 -9.00374,2.47234 -20.33334,9.89873 -20.33334,13.32821 0,0.59613 5.7,1.08388 12.66667,1.08388 12.66667,0 12.66667,0 12.66667,-7.89252 z m 163.2936,-1.10748 c 4.9662,-11.49877 15.89415,-22.63644 26.53932,-27.04863 7.50042,-3.10874 7.50042,-3.10874 7.50042,-10.19672 0,-3.8984 -0.28738,-7.08798 -0.6386,-7.08798 -0.35123,0 -5.30123,1.61593 -11,3.59097 -20.92979,7.25367 -44.97746,4.55612 -62.38441,-6.99795 -7.35973,-4.88512 -7.35973,-4.88512 -17.25613,4.51551 -19.74316,18.75405 -48.11465,31.37269 -77.24892,34.35759 -8.80528,0.90213 -8.80528,0.90213 -8.80528,8.49578 0,4.17651 0.4,7.99366 0.88889,8.48254 0.48888,0.48889 31.85538,0.88889 69.7033,0.88889 68.81441,0 68.81441,0 72.70141,-9 z m 34.03974,0.33333 c 0,-4.76666 -0.39336,-8.66666 -0.87415,-8.66666 -3.37989,0 -15.10257,12.66266 -15.12087,16.33333 -0.003,0.55 3.59502,1 7.99502,1 8,0 8,0 8,-8.66667 z M 242.66667,473.22131 c 12.00722,-5.44355 17.87951,-14.38403 17.87951,-27.22129 0,-23.04018 -22.94973,-36.94379 -43.37115,-26.27551 -33.31713,17.40506 -8.72696,69.01004 25.49164,53.4968 z m 200.91284,0.84515 c 25.78931,-5.48742 35.59163,-11.01412 34.76645,-19.60187 -3.44532,-35.85611 -58.87677,-31.27379 -58.89648,4.86876 -0.009,16.3434 4.27356,18.95815 24.13003,14.73311 z M 261.92152,300.55812 c 7.89069,-5.76654 14.5316,-1.02672 15.41182,10.99988 0.5996,8.19229 0.96848,9.15154 3.66667,9.53474 3,0.42607 3,0.42607 3,-32.33333 0,-37.84179 1.14021,-36.06715 -18.55511,-28.87924 -24.96401,9.11073 -43.95571,28.08548 -52.9718,52.92453 -6.53365,18.00003 -8.82585,89.7901 -2.80643,87.89534 18.18703,-5.72479 26.98843,-5.841 40.33334,-0.5326 8,3.18228 8,3.18228 8.66667,-47.2678 0.6341,-47.98643 0.79305,-50.54246 3.25484,-52.34152 z m 116.74516,-7.75783 c 0,-28.53305 0,-28.53305 -9.66667,-25.01827 -14.26432,5.1865 -41.06901,5.1865 -55.33333,0 -9.66667,-3.51478 -9.66667,-3.51478 -9.66667,25.01827 0,28.53305 0,28.53305 37.33333,28.53305 37.33334,0 37.33334,0 37.33334,-28.53305 z M 231.12658,256.1565 c 4.73063,-3.5806 9.33092,-6.75344 10.22287,-7.05074 1.14352,-0.38118 0.78396,-1.9017 -1.21939,-5.1565 -4.62197,-7.50928 -8.13005,-20.7476 -8.13005,-30.68015 0,-16.9257 -4.86066,-21.40697 -15.47712,-14.2691 -19.97986,13.43322 -20.35694,44.31274 -0.72399,59.28729 6.99467,5.335 5.1196,5.59567 15.32768,-2.1308 z m 235.74121,2.1308 c 19.29392,-14.71596 19.31824,-44.82903 0.0476,-58.96933 -10.73417,-7.87648 -16.23445,-3.22378 -16.26457,13.75825 -0.0191,10.73099 -2.48916,20.65681 -7.26878,29.20848 -2.30758,4.12874 -3.00344,6.50819 -2.00097,6.84234 0.84533,0.28178 5.2304,3.3883 9.7446,6.90338 9.95037,7.74808 8.76536,7.5782 15.74208,2.25688 z m -106.86778,-8.48113 c 14.79176,-4.13401 31.93888,-17.95194 38.68386,-31.17319 12.23489,-23.98237 11.64081,-68.30601 -1.09579,-81.75508 -11.70844,-12.3634 -51.44151,-14.99336 -67.1676,-4.44588 -12.00072,8.04886 -26.45782,13.21985 -45.30856,16.20588 -12.56024,1.98959 -13.27326,46.19057 -1.1291,69.99508 13.32558,26.1203 46.06231,39.545 76.01719,31.17319 z m -58.21764,-62.44172 c -8.91031,-6.24103 -1.14949,-19.99579 9.23888,-16.37438 2.03595,0.70974 4.28905,2.38787 5.00691,3.72919 4.91694,9.1874 -5.71224,18.62232 -14.24579,12.64519 z m 66.45006,-1.11704 c -4.97855,-5.29943 -3.27234,-12.92682 3.41301,-15.25734 4.62972,-1.61393 8.89664,-0.10386 11.67101,4.13036 6.08158,9.28166 -7.44421,19.25918 -15.08402,11.12698 z m -97.96841,51.22513 c 1.12778,-0.58903 0.50738,-2.59389 -2.11048,-6.82008 -2.0393,-3.29217 -4.78962,-8.83579 -6.11182,-12.31912 -3.87542,-10.20977 -10.7525,-9.60551 -9.6734,0.84997 1.64898,15.97707 8.64102,23.12287 17.8957,18.28923 z m 154.72205,-2.75181 c 6.73512,-9.94016 7.78237,-22.72072 1.86176,-22.72072 -3.33024,0 -4.1258,0.81033 -6.21782,6.33333 -1.31944,3.48333 -3.69318,8.43333 -5.27501,11 -1.58183,2.56667 -3.30519,5.39397 -3.82971,6.28289 -0.62644,1.0617 0.54944,2.04751 3.4272,2.87322 5.80778,1.66638 6.53636,1.39272 10.03358,-3.76872 z M 256.00001,178.66667 c 0,-14.39614 -4.10212,-18.68245 -9.9244,-10.36998 -5.4659,7.80365 -1.44123,23.70332 6,23.70332 3.9244,0 3.9244,0 3.9244,-13.33334 z m 180.59107,10.36999 c 5.4659,-7.80365 1.44123,-23.70332 -6,-23.70332 -3.9244,0 -3.9244,0 -3.9244,13.33333 0,14.39615 4.10212,18.68246 9.9244,10.36999 z M 95.513149,618.56991 c -2.365927,-1.86104 -3.513146,-4.03804 -3.513146,-6.66666 0,-3.90323 0,-3.90323 -9.13437,-3.90323 -17.851589,0 -25.066532,-6.7856 -17.475708,-16.43577 2.504939,-3.18451 3.649896,-3.49288 14.281952,-3.84648 11.558697,-0.38442 11.558697,-0.38442 12.439998,-4.70954 2.431998,-11.93537 18.554795,-11.07358 18.554795,0.99179 0,4 0,4 230.66667,4 230.66668,0 230.66668,0 230.66668,-4 0,-12.10433 17.54745,-12.72367 18.88845,-0.66667 0.44488,4 0.44488,4 12.05496,4.38442 10.68759,0.35388 11.82646,0.6595 14.33334,3.84648 7.59082,9.65017 0.37588,16.43577 -17.47571,16.43577 -9.13437,0 -9.13437,0 -9.13437,3.90323 0,4.2156 -5.161,9.4301 -9.33334,9.4301 -4.17233,0 -9.33333,-5.2145 -9.33333,-9.4301 0,-3.90323 0,-3.90323 -230.66668,-3.90323 -230.66667,0 -230.66667,0 -230.66667,3.90323 0,4.2156 -5.161,9.4301 -9.33333,9.4301 -1.26888,0 -3.887962,-1.24354 -5.820191,-2.76344 z M 112.66667,456.38476 C 101.3306,452.97667 97.50699,445.1597 104,438.66668 c 6.94005,-6.94005 28,0.73679 28,10.20666 0,9.0453 -6.20828,11.45736 -19.33333,7.51142 z m 16.99386,-30.19941 c -8.20024,-7.88022 -9.62933,-13.0632 -5.00943,-18.16812 7.2253,-7.98388 28.02187,6.85816 25.22484,18.00238 -2.35436,9.38055 -10.55639,9.44779 -20.21541,0.16574 z m 30.67302,-12.23511 c -6.70392,-4.69561 -9.02952,-22.82709 -3.48706,-27.18679 7.4135,-5.83146 13.76401,-1.67113 16.97764,11.1224 3.61545,14.39319 -3.60358,22.98951 -13.49058,16.06439 z m 404.31756,-3.30077 c -7.62164,-8.42182 -0.99729,-15.71355 17.6665,-19.44631 8.02154,-1.60431 13.82621,8.191 8.96597,15.12997 -4.24371,6.05874 -22.39356,9.00028 -26.63247,4.31634 z M 548.53295,386.9796 c -6.67488,-4.45693 -5.31213,-11.26149 4.02358,-20.09081 9.46217,-8.94892 15.87118,-8.95131 19.27174,-0.007 3.6536,9.60968 -14.9568,25.66573 -23.29532,20.09796 z m -27.10283,-19.82607 c -3.26488,-4.15062 -3.28173,-4.42084 -0.84628,-13.57029 4.30743,-16.18211 20.74951,-19.71768 20.74951,-4.4618 0,16.80129 -12.18659,27.8422 -19.90323,18.03209 z"
         id="path2900" />
      <path
         style="fill:#000000;fill-opacity:1;stroke-width:1.33333"
         d="m 44.666668,654.91037 c -66.31219,-18.59793 -55.072817,-110.4617 14.289539,-116.79394 14.377129,-1.31252 14.377129,-1.31252 14.377129,-10.13913 0,-30.61519 20.386143,-47.65507 60.666664,-50.7086 20.48714,-1.55307 30.46379,-3.19827 41.33334,-6.81611 10.29791,-3.42756 10.14065,-3.194 7.90583,-11.74315 -2.74366,-10.49558 -2.31418,-19.3952 1.44981,-30.04276 3.25681,-9.21284 3.29948,-9.9064 3.30521,-53.72288 0.008,-56.34203 1.85879,-66.70012 15.89422,-88.92366 5.31433,-8.41464 5.31433,-8.41464 -0.19224,-12.21738 -37.40563,-25.83172 -26.04154,-84.46991 19.30384,-99.60683 1.56272,-0.52166 2.33333,-2.16426 2.33333,-4.97364 0,-2.30711 1.45643,-6.97594 3.23651,-10.37518 2.86549,-5.47196 3.31405,-8.39666 3.91305,-25.51377 2.9514,-84.33976 91.24443,-136.5863629 161.37069,-95.489643 17.58978,10.308303 5.48448,23.405397 -13.7973,14.927698 -61.76021,-27.154383 -126.16017,13.266663 -128.35356,80.561945 -0.34576,10.60853 -0.19169,11.35872 2.40904,11.73036 2.40743,0.34402 2.69732,-0.15555 2.17104,-3.74131 -1.09536,-7.46317 3.16429,-10.22568 17.49129,-11.34361 35.38724,-2.76124 59.39604,-17.4595 66.91104,-40.96313 3.73419,-11.678921 10.78587,-14.999189 17.53075,-8.254314 3.95798,3.957978 3.74094,9.119176 -0.8321,19.787654 -2.62235,6.11768 -2.62235,6.11768 7.81496,6.11768 27.52782,0 47.5915,11.12113 56.21528,31.15967 2.82489,6.56404 3.69101,7.5108 6.58598,7.19916 8.01659,-0.86298 1.75287,-38.50533 -9.48909,-57.025497 -5.34321,-8.802479 -5.8474,-12.122156 -2.48949,-16.391042 12.84862,-16.33439 32.49271,19.576671 34.12916,62.391039 0.62503,16.35246 1.11449,19.4329 3.94812,24.84711 1.77905,3.39924 3.23464,8.06807 3.23464,10.37518 0,2.80938 0.77061,4.45198 2.33333,4.97364 45.34538,15.13692 56.70947,73.77511 19.30384,99.60683 -5.50657,3.80274 -5.50657,3.80274 -0.19224,12.21738 18.34758,29.05134 22.61604,78.42431 6.78006,78.42431 -7.82063,0 -9.05292,-2.59273 -10.04406,-21.13265 -2.2211,-41.54724 -24.5495,-72.85658 -60.18093,-84.38692 -18.21624,-5.89478 -16.66667,-8.60112 -16.66667,29.10846 0,33.3 0,33.3 3.33333,33.3 3.21368,0 3.33334,-0.3111 3.33334,-8.66666 0,-10.03222 2.64518,-14 9.33333,-14 9.50784,0 9.33333,-1.14434 9.33333,61.20524 0,55.87189 0,55.87189 7,53.09044 10.06283,-3.99848 27.26417,-3.95793 36.1695,0.0852 8.97912,4.07668 8.83051,4.20488 8.83051,-7.61749 0,-12.11179 3.48944,-17.1776 10.60896,-15.40159 7.72037,1.92588 8.0577,3.07401 8.0577,27.42467 0,29.70632 0.67151,31.44463 9.10108,23.55975 11.69878,-10.94285 19.43152,-11.35274 33.97441,-1.80094 15.2646,10.02583 32.37204,11.3597 52.69666,4.10874 10.58559,-3.77648 15.05211,-3.62959 22.22786,0.731 8.99952,5.46888 9.26184,6.84906 10,52.61493 0.66666,41.33334 0.66666,41.33334 8.2574,42.14924 46.97409,5.04912 67.93356,66.6238 34.13112,100.27027 -19.78247,19.69123 0.0984,18.24722 -251.2223,18.24722 -240.99157,0 -220.49957,0.85849 -220.49957,-9.23756 0,-10.35131 -21.8,-9.38694 220.66667,-9.76182 216.00001,-0.33396 216.00001,-0.33396 223.37656,-3.32121 32.38803,-13.11606 33.37703,-59.41767 1.58288,-74.10567 -9.94687,-4.59517 -585.305347,-4.59517 -595.252214,0 -31.79048,14.68631 -30.798584,61.10312 1.582891,74.07298 7.129527,2.85561 9.236456,2.96984 62.918663,3.41129 52.85122,0.43463 55.65488,0.58136 57.86968,3.02869 3.22254,3.56087 2.79815,10.64556 -0.81285,13.56958 -4.28324,3.46836 -108.193165,3.40006 -120.598952,-0.0793 z M 320.00001,534.66668 c 0,-2.64574 -0.88889,-2.66666 -113.33334,-2.66666 -112.444444,0 -113.333333,0.0209 -113.333333,2.66666 0,2.64575 0.888889,2.66667 113.333333,2.66667 112.44445,0 113.33334,-0.0209 113.33334,-2.66667 z m 36,-6.42466 c 0,-23.50674 13.09296,-40.2016 37.07954,-47.28019 8.69449,-2.5658 9.64738,-3.16856 8.8304,-5.58565 -2.50628,-7.41507 -2.15748,-25.36275 0.63574,-32.7119 2.63479,-6.93228 2.78635,-9.88675 2.78699,-54.33093 6.7e-4,-47.00001 6.7e-4,-47.00001 -64.04918,-47.00001 -64.04982,0 -64.04982,0 -63.44313,45.66667 0.84553,63.64379 0.47043,61.50174 10.62633,60.68107 4.50999,-0.36444 13.02487,-2.29858 18.92195,-4.29809 27.50603,-9.32643 32.59301,-0.64884 32.60392,55.61703 0.007,38.33333 0.007,38.33333 8.00744,38.33333 8,0 8,0 8,-9.09133 z m 246.66668,6.42466 c 0,-2.64574 -0.8889,-2.66666 -113.33334,-2.66666 -112.44444,0 -113.33334,0.0209 -113.33334,2.66666 0,2.64575 0.8889,2.66667 113.33334,2.66667 112.44444,0 113.33334,-0.0209 113.33334,-2.66667 z M 122.66667,505.30795 c 0,-8.0254 0,-8.0254 -3.66667,-7.11505 -8.97889,2.22925 -21.666663,10.39544 -21.666663,13.94524 0,0.65737 5.700003,1.19521 12.666663,1.19521 12.66667,0 12.66667,0 12.66667,-8.0254 z m 163.25262,-0.80285 c 4.97097,-11.41056 14.74228,-21.51658 25.76455,-26.6471 8.28841,-3.85798 8.28841,-3.85798 8.30229,-10.85798 0.008,-3.85 -0.27349,-7 -0.62472,-7 -0.35123,0 -5.11988,1.50432 -10.597,3.34293 -5.94141,1.99447 -14.77573,3.68487 -21.90091,4.19063 -10.38462,0.73712 -12.11486,1.21417 -13.26384,3.65706 -11.13502,23.67476 -49.71788,31.58982 -71.81817,14.7331 -4.36207,-3.32711 -4.36207,-3.32711 -12.44924,0.0767 -9.39151,3.95284 -26.39774,8.13994 -38.33224,9.43778 -8.33334,0.90621 -8.33334,0.90621 -8.33334,9.40066 0,8.49451 0,8.49451 69.70331,8.49451 69.7033,0 69.7033,0 73.54931,-8.82825 z m 34.08072,0.16158 c 0,-4.76666 -0.57912,-8.66666 -1.28693,-8.66666 -3.35784,0 -14.71307,12.81188 -14.71307,16.60045 0,0.40308 3.6,0.73288 8,0.73288 8,0 8,0 8,-8.66667 z m 85.33334,0.64127 c 0,-8.0254 0,-8.0254 -3.66667,-7.11505 -8.97889,2.22925 -21.66667,10.39544 -21.66667,13.94524 0,0.65737 5.7,1.19521 12.66667,1.19521 12.66667,0 12.66667,0 12.66667,-8.0254 z m 163.25262,-0.80285 c 4.97097,-11.41056 14.74228,-21.51658 25.76454,-26.6471 8.28842,-3.85798 8.28842,-3.85798 8.3023,-10.85798 0.008,-3.85 -0.2735,-7 -0.62472,-7 -0.35123,0 -5.00123,1.4563 -10.33334,3.23624 -23.39298,7.80892 -46.40588,4.92594 -65.42879,-8.19666 -5.06737,-3.49565 -5.06737,-3.49565 -13.33333,4.58055 -20.01013,19.55079 -48.58519,32.54183 -78.59928,35.73348 -9,0.95704 -9,0.95704 -9,9.46839 0,8.51133 0,8.51133 69.70331,8.51133 69.70329,0 69.70329,0 73.54931,-8.82825 z m 34.08072,0.16158 c 0,-4.76666 -0.57912,-8.66666 -1.28694,-8.66666 -3.35784,0 -14.71306,12.81188 -14.71306,16.60045 0,0.40308 3.6,0.73288 8,0.73288 8,0 8,0 8,-8.66667 z M 448.33184,473.30702 c 30.1683,-7.78812 36.16435,-15.0187 25.64111,-30.92039 -16.95323,-25.61806 -59.30242,-9.6824 -54.7604,20.60591 2.09829,13.99245 7.48332,15.8999 29.11929,10.31448 z m -208.33183,1.37964 c 10.5014,-2.922 21.289,-17.0212 21.32031,-27.86528 0.0853,-29.57359 -39.13941,-42.17818 -55.29325,-17.76809 -15.53086,23.46873 6.63351,53.2405 33.97294,45.63337 z m 18.66667,-120.68665 c 0,-55.76869 -0.0735,-55.33333 9.33333,-55.33333 6.68815,0 9.33333,3.96778 9.33333,14 0,8.35556 0.1196,8.66666 3.33334,8.66666 3.33333,0 3.33333,0 3.33333,-33.3 0,-33.3 0,-33.3 -4.33333,-32.49862 -31.85899,5.89172 -58.16059,29.34478 -68.55686,61.13196 -5.31876,16.26238 -6.64619,85.64832 -1.60848,84.0766 10.67204,-3.32957 16.98329,-4.74327 21.17577,-4.74327 6.02715,0 19.82013,3.54551 23.3229,5.99519 1.46667,1.02572 3.11667,1.89641 3.66667,1.93488 0.55,0.0385 1,-22.43007 1,-49.93007 z m 121.02696,-61.81967 c 0.33881,-26.78801 0.21959,-28.43221 -2,-27.57856 -25.02549,9.62482 -47.6873,9.62804 -72.69363,0.0107 -2.41231,-0.9278 -3.79949,53.47728 -1.42409,55.85268 0.50008,0.50008 17.75008,0.75008 38.33333,0.55555 37.4241,-0.354 37.4241,-0.354 37.78439,-28.84034 z M 225.29401,260.71406 c 0.89129,-1.07393 5.01476,-4.17138 9.16326,-6.88322 4.14851,-2.71186 7.74563,-5.08607 7.99362,-5.27606 0.24798,-0.18998 -1.05074,-2.94253 -2.88606,-6.11676 -4.81602,-8.32951 -7.56482,-18.94363 -7.56482,-29.21059 0,-14.47522 -4.29846,-20.73122 -11.721,-17.05884 -23.72232,11.73687 -25.90092,46.68196 -3.90374,62.61665 6.15514,4.45876 6.71806,4.58049 8.91874,1.92882 z m 240.99741,-1.92882 c 21.99718,-15.93469 19.81858,-50.87978 -3.90374,-62.61665 -7.42254,-3.67238 -11.721,2.58362 -11.721,17.05884 0,10.26696 -2.7488,20.88108 -7.56482,29.21059 -1.83532,3.17423 -3.13404,5.92678 -2.88606,6.11676 0.24799,0.18999 3.84511,2.5642 7.99362,5.27606 4.1485,2.71184 8.27197,5.80929 9.16326,6.88322 2.20068,2.65167 2.7636,2.52994 8.91874,-1.92882 z m -104.68925,-9.3138 c 15.73286,-5.41542 28.07516,-15.45137 36.33566,-29.54575 13.75058,-23.4618 12.56005,-71.29635 -2.11162,-84.84293 -11.08422,-10.23424 -51.30881,-12.61497 -63.62624,-3.76579 -11.12212,7.99045 -34.65512,16.63892 -45.45108,16.70345 -14.32537,0.0856 -15.65236,48.64524 -1.9674,71.99507 15.7196,26.82141 48.2438,39.29241 76.82068,29.45595 z m -60.34333,-62.59699 c -3.74779,-3.03478 -4.0483,-9.72212 -0.60774,-13.5239 3.32202,-3.67078 10.43676,-3.55145 13.96363,0.2342 7.99501,8.58163 -4.19308,20.7093 -13.35589,13.2897 z m 66.83795,-1.05426 c -3.49735,-4.44616 -3.51226,-8.5136 -0.0448,-12.23544 5.94166,-6.37762 16.39249,-2.14422 16.39249,6.64024 0,8.53814 -11.05616,12.32226 -16.34767,5.5952 z m -99.32374,52.26779 c 5.00048,-1.42507 -7.94679,-26.25217 -13.43971,-25.77141 -3.80442,0.33298 -3.97833,0.61086 -3.55674,5.68344 0.83897,10.09469 7.90662,22.61409 12.11378,21.45797 1.1603,-0.31884 3.3575,-0.93535 4.88267,-1.37 z m 154.30272,-0.47003 c 7.60627,-8.40482 10.35966,-24.76729 4.25758,-25.30138 -6.66483,-0.58334 -18.23767,24.47146 -12.12314,26.2462 5.73942,1.66586 5.4741,1.69773 7.86556,-0.94482 z M 256.00001,178.66667 c 0,-14.38894 -2.606,-17.42148 -9.56168,-11.12668 -6.5295,5.90911 -2.15469,24.46002 5.76833,24.46002 3.79335,0 3.79335,0 3.79335,-13.33334 z m 180.22835,11.12668 c 6.5295,-5.9091 2.15469,-24.46001 -5.76833,-24.46001 -3.79335,0 -3.79335,0 -3.79335,13.33333 0,14.38895 2.606,17.42148 9.56168,11.12668 z M 95.513149,618.56991 c -2.365927,-1.86104 -3.513146,-4.03804 -3.513146,-6.66666 0,-3.90323 0,-3.90323 -9.246534,-3.90323 -13.771895,0 -19.944736,-3.20091 -20.044396,-10.39393 -0.0926,-6.68326 5.352867,-9.60607 17.89699,-9.60607 11.39394,0 11.39394,0 11.39394,-4 0,-5.13237 4.200955,-9.33333 9.333337,-9.33333 5.13238,0 9.33333,4.20096 9.33333,9.33333 0,4 0,4 230.66667,4 230.66668,0 230.66668,0 230.66668,-4 0,-5.13237 4.20096,-9.33333 9.33333,-9.33333 5.13238,0 9.33334,4.20096 9.33334,9.33333 0,4 0,4 11.39393,4 12.39405,0 17.9394,2.89344 17.9394,9.36039 0,7.57205 -5.82365,10.63961 -20.19896,10.63961 -9.13437,0 -9.13437,0 -9.13437,3.90323 0,4.2156 -5.161,9.4301 -9.33334,9.4301 -4.17233,0 -9.33333,-5.2145 -9.33333,-9.4301 0,-3.90323 0,-3.90323 -230.66668,-3.90323 -230.66667,0 -230.66667,0 -230.66667,3.90323 0,4.2156 -5.161,9.4301 -9.33333,9.4301 -1.26888,0 -3.887962,-1.24354 -5.820191,-2.76344 z M 114.65908,456.76871 C 103.17169,453.59543 99.899587,449.89404 101.81948,442.24458 104.58247,431.23596 132,437.11087 132,448.71152 c 0,8.67572 -5.63078,11.29199 -17.34092,8.05719 z m 15.00145,-30.58336 c -8.20024,-7.88022 -9.62933,-13.0632 -5.00943,-18.16812 8.07592,-8.9238 29.75993,8.87441 24.11389,19.79265 -4.07396,7.87816 -9.715,7.39848 -19.10446,-1.62453 z m 30.72736,-12.19706 c -6.61214,-4.63132 -8.99326,-22.93641 -3.5414,-27.22484 8.67153,-6.82102 17.44798,2.50942 18.07609,19.21711 0.31448,8.365 -7.71155,12.78685 -14.53469,8.00773 z m 404.40008,-3.1876 c -7.75735,-8.57176 2.18872,-18.73325 18.7969,-19.20402 8.0504,-0.2282 12.3995,8.02514 7.73676,14.68213 -4.08881,5.8376 -22.50297,8.97576 -26.53366,4.52189 z M 546.6881,384.39105 c -6.62207,-8.41858 10.60501,-28.02116 20.18773,-22.97148 7.72594,4.07124 7.16603,10.47838 -1.71108,19.58044 -8.21681,8.42506 -13.72213,9.43546 -18.47665,3.39104 z m -25.25798,-17.23752 c -3.26488,-4.15062 -3.28173,-4.42084 -0.84628,-13.57029 4.28318,-16.09102 20.79474,-19.74068 20.73509,-4.58323 -0.0664,16.8662 -12.19409,27.93578 -19.88881,18.15352 z"
         id="path2898" />
      <path
         style="fill:#000000;fill-opacity:1;stroke-width:1.33333"
         d="M 48.23506,655.90669 C 8.1140512,648.01118 -12.080532,600.53945 9.9885673,566.00002 21.176673,548.48998 37.009399,539.83097 61.314345,537.92962 73.022433,537.01371 73.022433,537.01371 73.605725,525.50687 75.129956,495.43772 94.920233,480.11215 136,477.18879 c 27.19155,-1.93503 50.53721,-8.12837 48.69877,-12.91925 -4.28451,-11.16528 -4.07914,-26.59062 0.49162,-36.92357 2.67378,-6.04452 2.80962,-8.4973 2.80962,-50.73149 0,-56.37818 2.58737,-70.78106 16.3929,-91.25284 4.92628,-7.30503 4.92628,-7.30503 0.60003,-10.62252 -38.25569,-29.33547 -28.3136,-84.84118 18.00707,-100.5317 1.49974,-0.50803 2.33333,-2.16339 2.33333,-4.63365 0,-2.11379 1.5,-6.66438 3.33333,-10.1124 2.97818,-5.60118 3.3358,-7.85983 3.35648,-21.19858 0.13147,-84.804676 80.64722,-137.72600621 156.21752,-102.678589 11.83009,5.486476 14.67504,9.417902 11.54341,15.951834 -3.11548,6.500242 -7.24805,6.790799 -19.28512,1.355915 -46.39774,-20.949162 -99.12838,-2.492496 -120.32686,42.116551 -8.51125,17.910679 -12.75309,50.324839 -6.58569,50.324839 2.82955,0 3.21007,-0.51118 2.74405,-3.68634 -1.11698,-7.6105 3.27095,-10.48784 17.59768,-11.53949 23.8569,-1.75121 42.97258,-9.2545 54.7169,-21.47747 6.07668,-6.32434 8.27324,-10.123366 14.79884,-25.59503 3.12311,-7.404621 13.35672,-7.256074 16.77375,0.24348 1.43532,3.150178 -0.31606,10.813353 -4.81195,21.05485 -0.92392,2.10466 -0.0543,2.33333 8.87347,2.33333 27.91188,0 47.28909,10.48766 56.68414,30.67955 3.26336,7.01365 4.15948,7.961 7.54203,7.97324 8.25852,0.0299 1.61528,-37.67441 -10.19688,-57.873346 -4.47821,-7.657791 -5.00571,-13.062319 -1.63813,-16.783456 12.81038,-14.155319 31.90476,22.188708 33.61951,63.991002 0.68862,16.78745 1.20226,20.09095 3.91802,25.19859 1.71903,3.23304 3.12551,7.60773 3.12551,9.72152 0,2.47026 0.83359,4.12562 2.33333,4.63365 46.3523,15.70123 56.29054,71.31424 17.95295,100.46219 -4.38039,3.3304 -4.38039,3.3304 0.60003,10.66373 18.28656,26.92576 23.12749,79.11111 7.33868,79.11111 -7.80144,0 -9.05914,-2.61829 -9.99231,-20.80208 -2.14987,-41.8926 -23.38525,-72.15408 -59.11988,-84.24876 -19.43172,-6.57684 -17.77947,-9.23833 -17.77947,28.63973 0,33.3 0,33.3 3.33333,33.3 3.20426,0 3.33334,-0.3266 3.33334,-8.43425 0,-12.79843 8.54244,-18.83729 15.76758,-11.14648 2.88084,3.06652 2.89908,3.43571 2.89908,58.66667 0,30.5694 0.22374,55.58073 0.49718,55.58073 0.27345,0 3.42345,-1.30612 7,-2.90249 9.05615,-4.04215 24.97085,-4.04388 35.16949,-0.004 4.03334,1.59775 7.78334,2.90529 8.33334,2.90567 0.55,3.6e-4 1,-4.70635 1,-10.45935 0,-11.87936 2.11318,-15.31776 9.41402,-15.31776 7.89894,0 8.51564,1.93899 9.25264,29.09091 0.77734,28.63799 1.39888,30.24035 8.6267,22.24003 9.96541,-11.03054 20.29132,-11.89947 33.58096,-2.82587 14.8258,10.12243 31.22097,12.0354 49.55725,5.78231 12.75548,-4.34991 20.20916,-4.4514 26.18522,-0.35654 9.30742,6.37755 9.33648,6.53422 9.80228,52.84694 0.41908,41.66667 0.41908,41.66667 5.33333,41.68109 58.20796,0.17095 73.69419,88.04988 19.85959,112.69618 -13.06712,5.98249 -12.03131,5.95623 -234.8949,5.95623 -238.17824,0 -219.38377,0.81366 -219.38377,-9.49776 0,-9.30503 -21.18783,-8.42556 220.89231,-9.16891 217.1077,-0.66667 217.1077,-0.66667 224.44104,-4.1504 32.84088,-15.60122 31.42571,-61.89559 -2.27756,-74.5056 -11.27242,-4.21755 -578.839159,-4.21755 -590.111574,0 -33.703269,12.61001 -35.118437,58.90438 -2.277554,74.5056 7.333333,3.48373 7.333333,3.48373 63.331188,3.91013 62.09691,0.47284 60.66882,0.25831 60.66882,9.11359 0,10.03775 1.39962,9.81145 -59.66667,9.64725 -29.883337,-0.0803 -56.927562,-0.6566 -60.09828,-1.28057 z m 271.76495,-121.2475 c 0,-3.92416 -226.990412,-3.58447 -227.746244,0.34083 -0.425072,2.20755 5.701663,2.33333 113.648484,2.33333 113.31536,0 114.09776,-0.0183 114.09776,-2.67416 z m 36.26475,-8.99251 c 1.15029,-22.70985 14.64333,-38.79914 37.79367,-45.06564 7.87138,-2.13069 8.71017,-2.6761 7.93306,-5.15848 -2.55653,-8.16654 -2.29973,-23.52466 0.5423,-32.4317 2.75226,-8.62571 2.85929,-11.00541 2.50402,-55.67751 -0.37113,-46.66667 -0.37113,-46.66667 -63.70447,-46.66667 -63.33333,0 -63.33333,0 -63.26013,45.33333 0.0973,60.28877 0.34236,62.00001 8.87689,62.00001 3.61886,0 11.18552,-1.57068 16.81482,-3.4904 12.75548,-4.34991 20.20916,-4.4514 26.18521,-0.35654 9.29024,6.36578 9.33639,6.61143 9.80339,52.18027 0.42017,41 0.42017,41 8.17024,41 7.75007,0 7.75007,0 8.341,-11.66667 z m 246.40193,8.99251 c 0,-3.92416 -226.99041,-3.58447 -227.74625,0.34083 -0.42507,2.20755 5.70167,2.33333 113.64848,2.33333 113.31537,0 114.09777,-0.0183 114.09777,-2.67416 z M 123.74732,506.14734 c 0.22769,-3.58564 -0.11478,-7.04812 -0.76105,-7.69439 -3.06215,-3.06215 -25.652933,9.00184 -25.652933,13.69925 0,0.75346 5.333973,1.12114 13.000003,0.8961 13,-0.38162 13,-0.38162 13.41398,-6.90096 z m 162.19157,-1.68726 c 4.90767,-11.26522 14.98268,-21.5911 26.00139,-26.6488 8.05973,-3.69949 8.05973,-3.69949 8.05973,-10.75538 0,-7.96334 -0.11827,-8.02144 -9.11249,-4.47627 -7.42778,2.92776 -27.16278,5.97503 -31.55563,4.87249 -2.37528,-0.59614 -3.70763,0.48752 -7.17121,5.83275 -14.86775,22.94483 -48.76925,29.12157 -70.18447,12.78739 -4.16734,-3.17858 -4.16734,-3.17858 -19.40511,1.98886 -8.69084,2.94726 -20.53679,5.83778 -27.57109,6.72762 -12.33334,1.56016 -12.33334,1.56016 -12.33334,10.05238 0,8.49223 0,8.49223 69.70331,8.49223 69.7033,0 69.7033,0 73.56891,-8.87327 z m 34.06112,0.2066 c 0,-10.62582 -1.0556,-10.84673 -9.57845,-2.00442 -8.73175,9.05904 -8.4933,10.67109 1.57845,10.67109 8,0 8,0 8,-8.66667 z m 86.41399,1.48066 c 0.22769,-3.58564 -0.1148,-7.04812 -0.76105,-7.69439 -3.06215,-3.06215 -25.65294,9.00184 -25.65294,13.69925 0,0.75346 5.33398,1.12114 13,0.8961 13,-0.38162 13,-0.38162 13.41399,-6.90096 z m 162.19157,-1.68726 c 4.90766,-11.26522 14.98268,-21.5911 26.00138,-26.6488 8.05974,-3.69949 8.05974,-3.69949 8.05974,-10.75538 0,-7.96334 -0.11827,-8.02144 -9.1125,-4.47627 -21.20293,8.35743 -56.66289,4.12179 -67.71275,-8.08817 -3.2801,-3.62447 -3.8497,-3.36787 -14.44761,6.50856 -18.78016,17.50165 -46.76395,30.31949 -73.72715,33.77038 -12.33333,1.5785 -12.33333,1.5785 -12.33333,10.07072 0,8.49223 0,8.49223 69.70331,8.49223 69.70329,0 69.70329,0 73.56891,-8.87327 z m 34.06112,0.2066 c 0,-10.62582 -1.0556,-10.84673 -9.57846,-2.00442 -8.73174,9.05904 -8.49329,10.67109 1.57846,10.67109 8,0 8,0 8,-8.66667 z M 448.59122,473.0961 c 28.62026,-7.07418 33.60285,-11.87506 27.75804,-26.74578 -11.77342,-29.95461 -60.99263,-16.64011 -57.36785,15.51884 1.79612,15.9351 5.25532,17.24671 29.60981,11.22694 z m -205.18347,0.38908 c 18.86458,-8.56855 23.47849,-33.58043 8.94197,-48.47411 -16.85835,-17.27254 -45.79129,-8.794 -50.87453,14.90832 -5.0301,23.45455 20.02986,43.51431 41.93256,33.56579 z m 15.25893,-119.0659 c 0,-49.07062 0.0299,-49.61248 2.89908,-52.66667 7.22514,-7.69081 15.76758,-1.65195 15.76758,11.14648 0,8.10765 0.12907,8.43425 3.33334,8.43425 3.33333,0 3.33333,0 3.33333,-33.3 0,-37.87806 1.65225,-35.21657 -17.77947,-28.63973 -26.60673,9.00527 -48.34105,32.15861 -56.26619,59.93973 -4.18088,14.65584 -4.53876,82.6833 -0.42833,81.41721 18.09975,-5.57502 29.08813,-5.60447 40.56622,-0.10867 3.61594,1.73132 7.02444,3.19519 7.57444,3.25303 0.55,0.0579 1,-22.20618 1,-49.47558 z m 121.33333,-61.90811 c 0,-26.84581 -0.16,-28.77088 -2.33333,-28.07404 -1.28333,0.41147 -5.93333,2.08703 -10.33333,3.72345 -6.81934,2.53622 -10.6565,2.97532 -26.00001,2.97532 -15.3435,0 -19.18066,-0.4391 -26,-2.97532 -4.4,-1.63642 -9.05,-3.31198 -10.33333,-3.72345 -2.17333,-0.69684 -2.33333,1.22823 -2.33333,28.07404 0,28.82217 0,28.82217 38.66666,28.82217 38.66667,0 38.66667,0 38.66667,-28.82217 z M 230.89929,256.60065 c 4.53206,-3.33631 9.04558,-6.51679 10.03005,-7.06772 1.41423,-0.79144 0.96011,-2.66673 -2.16348,-8.93398 -4.88725,-9.80596 -6.69107,-17.4253 -6.73325,-28.44157 -0.0293,-7.65197 -1.71596,-12.72304 -6.20391,-18.65269 -0.2062,-0.27244 -2.952,1.02404 -6.1018,2.88104 -23.92592,14.10588 -25.56181,46.10958 -3.19351,62.47615 6.35232,4.6479 4.60744,4.92254 14.3659,-2.26123 z m 235.23401,2.26123 c 22.3683,-16.36657 20.73241,-48.37027 -3.19351,-62.47615 -3.1498,-1.857 -5.8956,-3.15348 -6.1018,-2.88104 -4.48795,5.92965 -6.17459,11.00072 -6.20391,18.65269 -0.0421,11.01627 -1.846,18.63561 -6.73325,28.44157 -3.12151,6.26309 -3.57711,8.14287 -2.16509,8.93307 0.98358,0.55046 5.34542,3.6869 9.69297,6.9699 9.52445,7.19226 8.35643,7.00481 14.70459,2.35996 z m -110.74675,-7.55736 c 35.60714,-9.09054 51.85672,-33.08381 51.90342,-76.63785 0.0307,-28.5466 -3.90272,-37.39351 -19.94692,-44.86492 -12.71634,-5.9217 -46.49036,-4.64782 -56.41683,2.12792 -11.969,8.16997 -26.30262,13.54728 -41.34778,15.51176 -11.84886,1.54714 -14.13867,6.82712 -14.11991,32.55858 0.0355,48.66397 37.54357,82.12529 79.92802,71.30451 z m -53.98549,-64.3149 c -6.3877,-5.17244 -2.40961,-16.34317 5.8056,-16.30253 4.87279,0.0241 6.52724,0.96589 8.59375,4.89193 4.72591,8.97851 -6.45803,17.84109 -14.39935,11.4106 z m 67.20502,-0.92901 c -3.62045,-3.62044 -4.0354,-6.12031 -1.7398,-10.48159 4.73393,-8.99372 17.70684,-5.46317 17.41675,4.73992 -0.23918,8.41232 -9.58384,11.83479 -15.67695,5.74167 z m -100.9766,52.53544 c 4.02738,-1.40396 4.02738,-1.40396 -2.13438,-13.96142 -10.32682,-21.04573 -19.86636,-16.86796 -10.6178,4.64999 4.38902,10.21164 6.25704,11.57564 12.75218,9.31143 z m 155.44629,-0.9781 c 3.09354,-3.4183 7.13272,-13.35058 8.11364,-19.95128 0.84212,-5.66666 0.84212,-5.66666 -3.50697,-5.62808 -6.66015,0.0591 -18.79112,24.41047 -13.18467,26.46652 5.09931,1.87006 6.18431,1.75784 8.578,-0.88716 z M 256.00001,178.66667 c 0,-14.38894 -2.606,-17.42148 -9.56168,-11.12668 -6.5295,5.90911 -2.15469,24.46002 5.76833,24.46002 3.79335,0 3.79335,0 3.79335,-13.33334 z m 180.22835,11.12668 c 6.5295,-5.9091 2.15469,-24.46001 -5.76833,-24.46001 -3.79335,0 -3.79335,0 -3.79335,13.33333 0,14.38895 2.606,17.42148 9.56168,11.12668 z M 97.953713,620.05223 c -3.835202,-1.537 -5.647782,-4.09876 -6.169063,-8.71888 -0.451314,-4 -0.451314,-4 -10.451314,-4.33737 -13.375124,-0.45124 -15.274319,-1.00937 -17.104748,-5.02673 -4.301693,-9.44119 1.00697,-13.96923 16.377475,-13.96923 11.39394,0 11.39394,0 11.39394,-4 0,-8.33576 10.299127,-12.47867 15.948057,-6.41525 1.49524,1.60494 2.71861,4.60494 2.71861,6.66666 0,3.74859 0,3.74859 230.66667,3.74859 230.66668,0 230.66668,0 230.66668,-3.74859 0,-2.06172 1.22337,-5.06172 2.71861,-6.66666 5.64894,-6.06342 15.94806,-1.92051 15.94806,6.41525 0,4 0,4 11.39393,4 15.37051,0 20.67917,4.52804 16.37748,13.96923 -1.83043,4.01736 -3.72963,4.57549 -17.10475,5.02673 -10,0.33737 -10,0.33737 -10.4074,4.53108 -1.15688,11.9088 -16.36108,12.14117 -18.78549,0.28711 -1.45056,-7.09242 -460.16367,-7.09242 -461.61423,0 -1.43222,7.00277 -6.8298,10.5395 -12.572517,8.23806 z M 114.65908,456.76871 c -11.05647,-3.05424 -14.47452,-6.57955 -13.11048,-13.52193 2.29259,-11.66839 30.4514,-6.55494 30.4514,5.52978 0,8.1976 -6.21984,11.06422 -17.34092,7.99215 z m 15.26111,-30.29544 c -10.75634,-10.1729 -9.67276,-21.13992 2.0887,-21.13992 3.64359,0 16.88369,12.18882 17.37997,16 1.66209,12.76397 -8.55519,15.46144 -19.46867,5.13992 z m 29.60014,-13.49839 c -3.06239,-3.06239 -6.9097,-16.9482 -5.99159,-21.625 1.40511,-7.15751 12.47816,-8.96459 16.57917,-2.70564 9.75842,14.89323 0.72776,35.64599 -10.58758,24.33064 z m 406.1097,-1.71713 c -4.20568,-2.94578 -4.17948,-11.73275 0.0432,-14.49958 14.41664,-9.44616 32.89254,-3.57961 26.24242,8.3326 -3.56359,6.38339 -20.35296,10.32239 -26.28566,6.16698 z m -18.31225,-25.94162 c -8.43609,-9.32177 11.19343,-30.39954 21.07328,-22.62804 5.99888,4.71871 5.00708,10.02227 -3.43297,18.35747 -7.89168,7.79367 -13.27298,9.09643 -17.64031,4.27057 z m -24.77246,-17.14628 c -5.57578,-4.515 -1.39762,-24.91385 5.60079,-27.34448 9.74706,-3.38525 14.49911,2.70991 11.84896,15.19794 -2.89576,13.64546 -9.72663,18.40034 -17.44975,12.14654 z"
         id="path2896" />
    </g>
  </g>
</svg>
