<?xml version="1.0" encoding="iso-8859-1"?>
<!-- Generator: Adobe Illustrator 19.0.0, SVG Export Plug-In . SVG Version: 6.00 Build 0)  -->
<svg version="1.1" id="Capa_1" xmlns="http://www.w3.org/2000/svg" xmlns:xlink="http://www.w3.org/1999/xlink" x="0px" y="0px"
	 viewBox="0 0 463 463" style="enable-background:new 0 0 463 463;" xml:space="preserve">
<g>
	<path d="M407.5,352H407v-72.5c0-4.142-3.358-7.5-7.5-7.5h-80c-4.142,0-7.5,3.358-7.5,7.5V352h-33v-69.394l29.803-29.803
		c2.929-2.929,2.929-7.677,0-10.606c-2.929-2.929-7.678-2.929-10.606,0L268.394,272h-73.787l-29.803-29.803
		c-2.929-2.929-7.678-2.929-10.606,0c-2.929,2.929-2.929,7.677,0,10.606L184,282.606V352h-32.5H151v-15.441
		c0-8.208-4.372-15.929-11.409-20.151l-5.996-3.598c0.913-2.944,1.405-6.071,1.405-9.311c0-11.667-6.381-21.865-15.831-27.309
		L49.172,66.201l161.885-31.132c2.832,4.985,7.432,8.835,12.943,10.697v51.469c-9.29,3.138-16,11.93-16,22.266v30.653l-28.66,19.107
		c-2.086,1.391-3.34,3.732-3.34,6.24v24c0,0.015,0.003,0.029,0.003,0.044c0.003,0.544,0.064,1.093,0.191,1.641
		c0.018,0.077,0.043,0.152,0.064,0.229c0.04,0.153,0.077,0.306,0.127,0.458c0.008,0.025,0.022,0.047,0.031,0.072
		c0.107,0.311,0.229,0.616,0.377,0.911l8,16c1.314,2.628,3.962,4.148,6.714,4.148c1.127,0,2.271-0.255,3.348-0.794
		c3.705-1.853,5.207-6.357,3.354-10.062l-4.133-8.265l37.425-12.475l37.424,12.475l-4.132,8.266
		c-1.852,3.705-0.35,8.21,3.355,10.062c1.077,0.538,2.221,0.793,3.348,0.793c2.751,0,5.4-1.52,6.714-4.148l7.924-15.852
		c0.004-0.007,0.007-0.014,0.011-0.021l0.065-0.13c0.146-0.292,0.267-0.594,0.373-0.9c0.01-0.027,0.024-0.051,0.034-0.079
		c0.056-0.168,0.097-0.337,0.141-0.506c0.015-0.058,0.035-0.115,0.048-0.174c0.128-0.551,0.19-1.103,0.193-1.649
		c0-0.015,0.003-0.03,0.003-0.045V175.5c0-2.508-1.253-4.85-3.34-6.24L255,150.153V119.5c0-10.335-6.71-19.127-16-22.266V45.766
		c9.29-3.138,16-11.93,16-22.266C255,10.542,244.458,0,231.5,0c-11.886,0-21.732,8.872-23.281,20.34L43.943,51.931
		C39.899,44.814,32.254,40,23.5,40C10.542,40,0,50.542,0,63.5c0,2.562,0.418,5.026,1.179,7.337
		c0.01,0.031,73.396,220.203,73.396,220.203C72.921,294.864,72,299.076,72,303.5c0,3.24,0.493,6.367,1.405,9.311l-5.996,3.598
		C60.372,320.63,56,328.352,56,336.559V352h-0.5c-4.142,0-7.5,3.358-7.5,7.5V416H23.5c-4.142,0-7.5,3.358-7.5,7.5V448H7.5
		c-4.142,0-7.5,3.358-7.5,7.5s3.358,7.5,7.5,7.5h400c30.603,0,55.5-24.897,55.5-55.5S438.103,352,407.5,352z M327,287h25v16.5
		c0,4.142,3.358,7.5,7.5,7.5s7.5-3.358,7.5-7.5V287h25v65h-65V287z M199,287h65v65h-65V287z M101.973,272.039
		c-5.955,0.286-11.481,2.232-16.125,5.386L22.364,86.971C22.74,86.989,23.119,87,23.5,87c5.692,0,10.917-2.035,14.988-5.415
		L101.973,272.039z M87,303.5c0-9.098,7.402-16.5,16.5-16.5s16.5,7.402,16.5,16.5s-7.402,16.5-16.5,16.5S87,312.598,87,303.5z
		 M224,157.514v20.581l-33,11v-9.581L224,157.514z M272,189.094l-33-11v-20.581l33,22V189.094z M240,140.153l-4.296-2.864
		c-0.008-0.005-0.017-0.011-0.025-0.017l-0.015-0.01c-0.11-0.074-0.226-0.138-0.339-0.206c-0.096-0.057-0.189-0.117-0.287-0.169
		c-0.092-0.049-0.187-0.09-0.28-0.135c-0.128-0.062-0.255-0.126-0.388-0.181c-0.01-0.004-0.019-0.009-0.029-0.013
		c-0.094-0.039-0.191-0.068-0.286-0.103c-0.125-0.045-0.247-0.093-0.375-0.132c-0.006-0.002-0.012-0.004-0.017-0.005
		c-0.125-0.038-0.252-0.065-0.378-0.096c-0.103-0.025-0.205-0.055-0.309-0.076c-0.005,0-0.009-0.001-0.014-0.002
		c-0.159-0.032-0.319-0.052-0.479-0.073c-0.082-0.011-0.162-0.026-0.245-0.034c-0.147-0.014-0.295-0.018-0.442-0.024
		c-0.094-0.003-0.188-0.012-0.282-0.013c-0.004,0-0.008,0-0.013,0c-0.003,0-0.007,0-0.01,0c-0.109,0-0.217,0.01-0.325,0.015
		c-0.133,0.006-0.265,0.009-0.397,0.021c-0.009,0.001-0.018,0-0.027,0.001c-0.079,0.008-0.155,0.025-0.233,0.035
		c-0.155,0.021-0.309,0.04-0.463,0.07c-0.007,0.001-0.015,0.002-0.022,0.004c-0.104,0.021-0.205,0.05-0.308,0.076
		c-0.125,0.031-0.249,0.058-0.373,0.095c-0.008,0.002-0.016,0.005-0.024,0.007c-0.126,0.038-0.248,0.086-0.371,0.131
		c-0.094,0.034-0.19,0.063-0.283,0.101c-0.012,0.005-0.024,0.011-0.036,0.016c-0.122,0.051-0.239,0.11-0.357,0.167
		c-0.104,0.05-0.209,0.096-0.31,0.15c-0.089,0.048-0.174,0.103-0.261,0.154c-0.123,0.073-0.248,0.143-0.367,0.223l-0.01,0.006
		c-0.008,0.006-0.017,0.011-0.025,0.017L223,140.153V119.5c0-4.687,3.813-8.5,8.5-8.5s8.5,3.813,8.5,8.5V140.153z M231.5,15
		c4.687,0,8.5,3.813,8.5,8.5s-3.813,8.5-8.5,8.5s-8.5-3.813-8.5-8.5S226.813,15,231.5,15z M23.5,55c4.687,0,8.5,3.813,8.5,8.5
		S28.187,72,23.5,72S15,68.187,15,63.5S18.813,55,23.5,55z M71,336.559c0-2.968,1.581-5.761,4.127-7.289l6.013-3.608
		C86.852,331.424,94.765,335,103.5,335s16.648-3.576,22.36-9.338l6.013,3.608c2.546,1.527,4.127,4.32,4.127,7.289V352H71V336.559z
		 M63,367h0.481c0.007,0,0.013,0.001,0.019,0.001S63.513,367,63.519,367h50.091C102.784,377.135,96,391.536,96,407.5
		c0,2.89,0.223,5.728,0.651,8.5H63V367z M31,448v-17h70.237c3.021,6.436,7.242,12.196,12.373,17H31z M407.5,448h-256
		c-22.332,0-40.5-18.168-40.5-40.5s18.168-40.5,40.5-40.5h40h80h48h80h8c22.332,0,40.5,18.168,40.5,40.5S429.832,448,407.5,448z"/>
	<path d="M151.5,384c-12.958,0-23.5,10.542-23.5,23.5s10.542,23.5,23.5,23.5s23.5-10.542,23.5-23.5S164.458,384,151.5,384z
		 M151.5,416c-4.687,0-8.5-3.813-8.5-8.5s3.813-8.5,8.5-8.5s8.5,3.813,8.5,8.5S156.187,416,151.5,416z"/>
	<path d="M215.5,384c-12.958,0-23.5,10.542-23.5,23.5s10.542,23.5,23.5,23.5s23.5-10.542,23.5-23.5S228.458,384,215.5,384z
		 M215.5,416c-4.687,0-8.5-3.813-8.5-8.5s3.813-8.5,8.5-8.5s8.5,3.813,8.5,8.5S220.187,416,215.5,416z"/>
	<path d="M279.5,384c-12.958,0-23.5,10.542-23.5,23.5s10.542,23.5,23.5,23.5s23.5-10.542,23.5-23.5S292.458,384,279.5,384z
		 M279.5,416c-4.687,0-8.5-3.813-8.5-8.5s3.813-8.5,8.5-8.5s8.5,3.813,8.5,8.5S284.187,416,279.5,416z"/>
	<path d="M343.5,384c-12.958,0-23.5,10.542-23.5,23.5s10.542,23.5,23.5,23.5s23.5-10.542,23.5-23.5S356.458,384,343.5,384z
		 M343.5,416c-4.687,0-8.5-3.813-8.5-8.5s3.813-8.5,8.5-8.5s8.5,3.813,8.5,8.5S348.187,416,343.5,416z"/>
	<path d="M407.5,384c-12.958,0-23.5,10.542-23.5,23.5s10.542,23.5,23.5,23.5s23.5-10.542,23.5-23.5S420.458,384,407.5,384z
		 M407.5,416c-4.687,0-8.5-3.813-8.5-8.5s3.813-8.5,8.5-8.5s8.5,3.813,8.5,8.5S412.187,416,407.5,416z"/>
</g>
<g>
</g>
<g>
</g>
<g>
</g>
<g>
</g>
<g>
</g>
<g>
</g>
<g>
</g>
<g>
</g>
<g>
</g>
<g>
</g>
<g>
</g>
<g>
</g>
<g>
</g>
<g>
</g>
<g>
</g>
</svg>
