<?xml version="1.0" encoding="iso-8859-1"?>
<!-- Generator: Adobe Illustrator 19.0.0, SVG Export Plug-In . SVG Version: 6.00 Build 0)  -->
<svg version="1.1" id="Capa_1" xmlns="http://www.w3.org/2000/svg" xmlns:xlink="http://www.w3.org/1999/xlink" x="0px" y="0px"
	 viewBox="0 0 463 463" style="enable-background:new 0 0 463 463;" xml:space="preserve">
<path d="M351.5,80c-10.336,0-19.128,6.71-22.266,16H303V55.5c0-4.142-3.357-7.5-7.5-7.5H279V7.5c0-4.142-3.357-7.5-7.5-7.5h-32
	c-4.143,0-7.5,3.358-7.5,7.5V48h-16.5c-4.143,0-7.5,3.358-7.5,7.5V96h-8.5c-12.958,0-23.5,10.542-23.5,23.5V136h-0.5
	c-35.014,0-63.5,28.486-63.5,63.5V416h-8.5c-8.547,0-15.5,6.953-15.5,15.5v24c0,4.142,3.357,7.5,7.5,7.5h224
	c4.143,0,7.5-3.358,7.5-7.5v-24c0-8.547-6.953-15.5-15.5-15.5H207v-17h96.5c12.958,0,23.5-10.542,23.5-23.5V367h16.5
	c4.143,0,7.5-3.358,7.5-7.5s-3.357-7.5-7.5-7.5H207v-33h8.5c4.143,0,7.5-3.358,7.5-7.5V231h9v24.5c0,8.547,6.953,15.5,15.5,15.5h0.5
	v56.5c0,4.142,3.357,7.5,7.5,7.5s7.5-3.358,7.5-7.5V271h0.5c8.547,0,15.5-6.953,15.5-15.5V231h16.5c4.143,0,7.5-3.358,7.5-7.5V111
	h26.234c3.138,9.29,11.93,16,22.266,16c12.958,0,23.5-10.542,23.5-23.5S364.458,80,351.5,80z M247,15h17v33h-17V15z M223,63h65v121
	h-65V63z M312,431.5V448H103v-16.5c0-0.276,0.225-0.5,0.5-0.5h208C311.775,431,312,431.224,312,431.5z M127,416v-17h65v17H127z
	 M312,375.5c0,4.687-3.813,8.5-8.5,8.5h-104H127V199.5c0-26.743,21.757-48.5,48.5-48.5h0.5v144.5c0,10.336,6.71,19.128,16,22.266
	V359.5c0,4.142,3.357,7.5,7.5,7.5H312V375.5z M208,304h-8.452c-0.016,0-0.032-0.002-0.048-0.002c-0.008,0-0.016,0.001-0.024,0.001
	c-4.675-0.013-8.476-3.82-8.476-8.499v-176c0-4.687,3.813-8.5,8.5-8.5h8.5v112.5V304z M264,255.5c0,0.276-0.225,0.5-0.5,0.5h-16
	c-0.275,0-0.5-0.224-0.5-0.5V231h17V255.5z M223,216v-17h65v17H223z M351.5,112c-4.687,0-8.5-3.813-8.5-8.5s3.813-8.5,8.5-8.5
	s8.5,3.813,8.5,8.5S356.187,112,351.5,112z"/>
<g>
</g>
<g>
</g>
<g>
</g>
<g>
</g>
<g>
</g>
<g>
</g>
<g>
</g>
<g>
</g>
<g>
</g>
<g>
</g>
<g>
</g>
<g>
</g>
<g>
</g>
<g>
</g>
<g>
</g>
</svg>
