<?xml version="1.0" encoding="iso-8859-1"?>
<!-- Generator: Adobe Illustrator 19.0.0, SVG Export Plug-In . SVG Version: 6.00 Build 0)  -->
<svg version="1.1" id="Layer_1" xmlns="http://www.w3.org/2000/svg" xmlns:xlink="http://www.w3.org/1999/xlink" x="0px" y="0px"
	 viewBox="0 0 512.005 512.005" style="enable-background:new 0 0 512.005 512.005;" xml:space="preserve">
<g>
	<g>
		<g>
			<path d="M106.671,320.002c-23.573,0-42.667,19.093-42.667,42.667c0,23.573,19.093,42.667,42.667,42.667
				c23.573,0,42.667-19.093,42.667-42.667C149.338,339.096,130.245,320.002,106.671,320.002z"/>
			<path d="M29.53,234.37l266.667,64c0.832,0.213,1.664,0.299,2.475,0.299c4.437,0,8.533-2.773,10.069-7.147L380.89,85.336h56.448
				c5.888,0,10.667-4.779,10.667-10.667s-4.779-10.667-10.667-10.667H10.671c-3.093,0-6.037,1.344-8.064,3.669
				c-2.027,2.325-2.944,5.44-2.496,8.491l21.333,149.333C22.063,229.826,25.263,233.346,29.53,234.37z M242.522,107.053
				c5.76-1.6,11.563,1.813,13.099,7.488l32,117.333c1.536,5.675-1.792,11.541-7.488,13.099c-0.939,0.256-1.899,0.384-2.816,0.384
				c-4.693,0-9.003-3.115-10.283-7.872l-32-117.333C233.498,114.456,236.847,108.589,242.522,107.053z M156.933,107.117
				c5.611-1.685,11.584,1.515,13.269,7.147l32,106.667c1.707,5.632-1.493,11.584-7.147,13.291c-1.003,0.299-2.027,0.448-3.051,0.448
				c-4.587,0-8.832-2.987-10.219-7.595l-32-106.667C148.079,114.754,151.301,108.824,156.933,107.117z M72.09,106.989
				c5.611-1.493,11.499,2.048,12.928,7.765l21.333,85.333c1.408,5.717-2.048,11.499-7.765,12.928
				c-0.853,0.213-1.728,0.32-2.581,0.32c-4.8,0-9.152-3.221-10.347-8.085l-21.333-85.333
				C62.895,114.221,66.351,108.418,72.09,106.989z"/>
			<path d="M467.589,214.232l-9.515-47.552c-5.44-27.243-25.536-49.024-52.459-56.853c-5.547-1.643-11.179,1.365-13.035,6.72
				l-36.373,103.936l-27.051,77.333l-0.021,0.043c-6.336,5.376-12.032,11.435-16.576,18.411c-7.189,3.648-14.379,4.544-21.376,2.859
				L61.658,264.045c-2.432-0.597-4.992-0.299-7.253,0.832l-27.179,13.589c-3.072,1.536-5.205,4.437-5.76,7.829
				c-0.555,3.392,0.555,6.827,2.987,9.259l15.083,15.083C28.314,325.08,21.338,343,21.338,362.669
				c0,47.061,38.272,85.333,85.333,85.333c39.659,0,72.768-27.307,82.304-64h112.725c9.536,36.693,42.645,64,82.304,64
				c39.659,0,72.768-27.307,82.304-64h35.029c5.888,0,10.667-4.779,10.667-10.667V266.669
				C512.005,240.322,492.762,218.52,467.589,214.232z M169.903,370.328c-0.064,0.384-0.085,0.619-0.149,1.045
				c0,0.064,0.021,0.149,0.021,0.213c-4.395,31.04-30.869,55.083-63.104,55.083c-35.285,0-64-28.715-64-64
				c0-19.328,8.789-36.48,22.379-48.213c1.963-1.707,3.883-3.499,6.016-4.928c2.304-1.536,4.821-2.731,7.317-3.968
				c1.195-0.597,2.304-1.365,3.541-1.899c2.795-1.173,5.76-1.941,8.747-2.709c1.109-0.277,2.133-0.747,3.243-0.981
				c4.139-0.853,8.384-1.301,12.757-1.301c35.285,0,64,28.715,64,64C170.671,365.293,170.202,367.789,169.903,370.328z
				 M409.071,134.018c14.464,7.296,24.875,20.736,28.096,36.864l8.491,42.453h-64.341L409.071,134.018z M447.066,371.949
				c-4.544,30.869-30.955,54.72-63.061,54.72c-32.405,0-58.987-24.299-63.147-55.573v-0.064c-0.405-2.752-0.853-5.504-0.853-8.363
				c0-5.355,0.832-10.624,2.197-15.787c0.213-0.811,0.512-1.6,0.747-2.389c1.557-4.992,3.563-9.877,6.379-14.613
				c3.925-6.507,8.96-12.181,14.869-16.917c0,0,0.043,0,0.043-0.021c2.752-2.197,5.632-4.117,8.576-5.803
				c0.448-0.256,0.896-0.491,1.344-0.725c2.539-1.387,5.163-2.56,7.829-3.584c1.493-0.555,3.051-0.981,4.608-1.429
				c1.92-0.555,3.819-1.152,5.781-1.536c3.797-0.725,7.659-1.195,11.627-1.195c35.285,0,64,28.715,64,64
				c0,2.859-0.448,5.611-0.96,9.109C447.045,371.842,447.066,371.885,447.066,371.949z"/>
			<path d="M384.005,320.002c-23.573,0-42.667,19.093-42.667,42.667c0,23.573,19.093,42.667,42.667,42.667
				c23.573,0,42.667-19.093,42.667-42.667C426.671,339.096,407.578,320.002,384.005,320.002z"/>
		</g>
	</g>
</g>
<g>
</g>
<g>
</g>
<g>
</g>
<g>
</g>
<g>
</g>
<g>
</g>
<g>
</g>
<g>
</g>
<g>
</g>
<g>
</g>
<g>
</g>
<g>
</g>
<g>
</g>
<g>
</g>
<g>
</g>
</svg>
