<svg version="1.1" xmlns="http://www.w3.org/2000/svg" width="1201.05pt" height="1342.29pt" viewBox="0 0 1201.05 1342.29"><style type="text/css">.dashed {stroke-dasharray: 5,5} .dotted {stroke-dasharray: 1,5} .overlay {fill: none; pointer-events: all}</style><g><g transform="translate(4, 1338.2900390625)"><polygon stroke="#fffffe" stroke-opacity="0" fill="#ffffff" points="-4,4 -4,-1338.29 1197.05,-1338.29 1197.05,4"></polygon><g class="node"><title>11952;D(COP);1;\nTisch;50</title><path stroke="#000000" fill="none" d="M 442.18,-1304.88 m -82.01,0 a 82.01,29.33 0 1,0 164.02,0 a 82.01,29.33 0 1,0 -164.02,0"></path><text x="442.18" y="-1309.08" text-anchor="middle" font-family="'Times-Roman',serif" font-size="14" fill="#000000">11952;D(COP);1;</text><text x="442.18" y="-1292.28" text-anchor="middle" font-family="'Times-Roman',serif" font-size="14" fill="#000000">Tisch;50</text></g><g class="node"><title>12102;P(SE:W);1.00;\nTisch;228</title><path stroke="#000000" fill="none" d="M 442.18,-1193.25 m -97.26,0 a 97.26,29.33 0 1,0 194.52,0 a 97.26,29.33 0 1,0 -194.52,0"></path><text x="442.18" y="-1197.45" text-anchor="middle" font-family="'Times-Roman',serif" font-size="14" fill="#000000">12102;P(SE:W);1.00;</text><text x="442.18" y="-1180.65" text-anchor="middle" font-family="'Times-Roman',serif" font-size="14" fill="#000000">Tisch;228</text></g><g class="relation" style="opacity: 1;"><title>11952;D(COP);1;\nTisch;50-&gt;12102;P(SE:W);1.00;\nTisch;228</title><path stroke="#000000" fill="none" d="M 442.18,-1275.36 C 442.18,-1262.52,442.18,-1247.15,442.18,-1233.27"></path><path class="solid" stroke="#000000" fill="#000000" d="M 445.68,-1233 L 442.18,-1223,438.68,-1233 Z"></path><text x="456.18" y="-1244.86" text-anchor="middle" font-family="'Times-Roman',serif" font-size="14" fill="#000000"> 1.00</text></g><g class="node"><title>12104;D(SE:I);1.00;\nTisch;228</title><path stroke="#000000" fill="none" d="M 442.18,-1081.61 m -92.95,0 a 92.95,29.33 0 1,0 185.9,0 a 92.95,29.33 0 1,0 -185.9,0"></path><text x="442.18" y="-1085.81" text-anchor="middle" font-family="'Times-Roman',serif" font-size="14" fill="#000000">12104;D(SE:I);1.00;</text><text x="442.18" y="-1069.01" text-anchor="middle" font-family="'Times-Roman',serif" font-size="14" fill="#000000">Tisch;228</text></g><g class="relation" style="opacity: 1;"><title>12102;P(SE:W);1.00;\nTisch;228-&gt;12104;D(SE:I);1.00;\nTisch;228</title><path stroke="#000000" fill="none" d="M 442.18,-1163.73 C 442.18,-1150.89,442.18,-1135.52,442.18,-1121.64"></path><path class="solid" stroke="#000000" fill="#000000" d="M 445.68,-1121.37 L 442.18,-1111.37,438.68,-1121.37 Z"></path><text x="456.18" y="-1133.23" text-anchor="middle" font-family="'Times-Roman',serif" font-size="14" fill="#000000"> 1.00</text></g><g class="node"><title>12106;P(PrO);1.00;\nTisch;228</title><path stroke="#000000" fill="none" d="M 442.18,-969.98 m -89.86,0 a 89.86,29.33 0 1,0 179.72,0 a 89.86,29.33 0 1,0 -179.72,0"></path><text x="442.18" y="-974.18" text-anchor="middle" font-family="'Times-Roman',serif" font-size="14" fill="#000000">12106;P(PrO);1.00;</text><text x="442.18" y="-957.38" text-anchor="middle" font-family="'Times-Roman',serif" font-size="14" fill="#000000">Tisch;228</text></g><g class="relation" style="opacity: 1;"><title>12104;D(SE:I);1.00;\nTisch;228-&gt;12106;P(PrO);1.00;\nTisch;228</title><path stroke="#000000" fill="none" d="M 442.18,-1052.1 C 442.18,-1039.26,442.18,-1023.89,442.18,-1010"></path><path class="solid" stroke="#000000" fill="#000000" d="M 445.68,-1009.74 L 442.18,-999.74,438.68,-1009.74 Z"></path><text x="456.18" y="-1021.6" text-anchor="middle" font-family="'Times-Roman',serif" font-size="14" fill="#000000"> 1.00</text></g><g class="node"><title>12107;D(PrOB);1.00;\nTischplatte;217;bs(217);be(228);\n12109: Tisch zusammenbauen</title><path stroke="#000000" fill="none" d="M 142.18,-846.47 m -142.35,0 a 142.35,41.09 0 1,0 284.7,0 a 142.35,41.09 0 1,0 -284.7,0"></path><text x="142.18" y="-859.07" text-anchor="middle" font-family="'Times-Roman',serif" font-size="14" fill="#000000">12107;D(PrOB);1.00;</text><text x="142.18" y="-842.27" text-anchor="middle" font-family="'Times-Roman',serif" font-size="14" fill="#000000">Tischplatte;217;bs(217);be(228);</text><text x="142.18" y="-825.47" text-anchor="middle" font-family="'Times-Roman',serif" font-size="14" fill="#000000">12109: Tisch zusammenbauen</text></g><g class="relation" style="opacity: 1;"><title>12106;P(PrO);1.00;\nTisch;228-&gt;12107;D(PrOB);1.00;\nTischplatte;217;bs(217);be(228);\n12109: Tisch zusammenbauen</title><path stroke="#000000" fill="none" d="M 387.15,-946.7 C 344.09,-929.25,283.28,-904.62,233.02,-884.27"></path><path class="solid" stroke="#000000" fill="#000000" d="M 234.02,-880.9 L 223.44,-880.39,231.4,-887.39 Z"></path><text x="333.18" y="-909.97" text-anchor="middle" font-family="'Times-Roman',serif" font-size="14" fill="#000000"> 1.00</text></g><g class="node"><title>12111;D(PrOB);16.00;\nSchrauben;217;bs(217);be(228);\n12109: Tisch zusammenbauen</title><path stroke="#000000" fill="none" d="M 442.18,-846.47 m -139.94,0 a 139.94,41.09 0 1,0 279.88,0 a 139.94,41.09 0 1,0 -279.88,0"></path><text x="442.18" y="-859.07" text-anchor="middle" font-family="'Times-Roman',serif" font-size="14" fill="#000000">12111;D(PrOB);16.00;</text><text x="442.18" y="-842.27" text-anchor="middle" font-family="'Times-Roman',serif" font-size="14" fill="#000000">Schrauben;217;bs(217);be(228);</text><text x="442.18" y="-825.47" text-anchor="middle" font-family="'Times-Roman',serif" font-size="14" fill="#000000">12109: Tisch zusammenbauen</text></g><g class="relation" style="opacity: 1;"><title>12106;P(PrO);1.00;\nTisch;228-&gt;12111;D(PrOB);16.00;\nSchrauben;217;bs(217);be(228);\n12109: Tisch zusammenbauen</title><path stroke="#000000" fill="none" d="M 442.18,-940.49 C 442.18,-927.96,442.18,-912.85,442.18,-898.49"></path><path class="solid" stroke="#000000" fill="#000000" d="M 445.68,-898.21 L 442.18,-888.21,438.68,-898.21 Z"></path><text x="459.68" y="-909.97" text-anchor="middle" font-family="'Times-Roman',serif" font-size="14" fill="#000000"> 16.00</text></g><g class="node"><title>12110;D(PrOB);4.00;\nTischbein;228;bs(217);be(228);\n12109: Tisch zusammenbauen</title><path stroke="#000000" fill="none" d="M 737.18,-846.47 m -137.46,0 a 137.46,41.09 0 1,0 274.92,0 a 137.46,41.09 0 1,0 -274.92,0"></path><text x="737.18" y="-859.07" text-anchor="middle" font-family="'Times-Roman',serif" font-size="14" fill="#000000">12110;D(PrOB);4.00;</text><text x="737.18" y="-842.27" text-anchor="middle" font-family="'Times-Roman',serif" font-size="14" fill="#000000">Tischbein;228;bs(217);be(228);</text><text x="737.18" y="-825.47" text-anchor="middle" font-family="'Times-Roman',serif" font-size="14" fill="#000000">12109: Tisch zusammenbauen</text></g><g class="relation" style="opacity: 1;"><title>12106;P(PrO);1.00;\nTisch;228-&gt;12110;D(PrOB);4.00;\nTischbein;228;bs(217);be(228);\n12109: Tisch zusammenbauen</title><path stroke="#000000" fill="none" d="M 496.63,-946.55 C 539.09,-929.06,598.94,-904.41,648.32,-884.07"></path><path class="solid" stroke="#000000" fill="#000000" d="M 649.82,-887.24 L 657.73,-880.2,647.15,-880.77 Z"></path><text x="604.18" y="-909.97" text-anchor="middle" font-family="'Times-Roman',serif" font-size="14" fill="#000000"> 4.00</text></g><g class="node"><title>12116;P(SE:W);1.00;\nTischplatte;217</title><path stroke="#000000" fill="none" d="M 142.18,-722.96 m -97.26,0 a 97.26,29.33 0 1,0 194.52,0 a 97.26,29.33 0 1,0 -194.52,0"></path><text x="142.18" y="-727.16" text-anchor="middle" font-family="'Times-Roman',serif" font-size="14" fill="#000000">12116;P(SE:W);1.00;</text><text x="142.18" y="-710.36" text-anchor="middle" font-family="'Times-Roman',serif" font-size="14" fill="#000000">Tischplatte;217</text></g><g class="relation" style="opacity: 1;"><title>12107;D(PrOB);1.00;\nTischplatte;217;bs(217);be(228);\n12109: Tisch zusammenbauen-&gt;12116;P(SE:W);1.00;\nTischplatte;217</title><path stroke="#000000" fill="none" d="M 142.18,-805.01 C 142.18,-791.5,142.18,-776.48,142.18,-763.07"></path><path class="solid" stroke="#000000" fill="#000000" d="M 145.68,-762.73 L 142.18,-752.73,138.68,-762.73 Z"></path><text x="156.18" y="-774.58" text-anchor="middle" font-family="'Times-Roman',serif" font-size="14" fill="#000000"> 1.00</text></g><g class="node"><title>12118;D(SE:I);1.00;\nTischplatte;217</title><path stroke="#000000" fill="none" d="M 142.18,-611.33 m -92.95,0 a 92.95,29.33 0 1,0 185.9,0 a 92.95,29.33 0 1,0 -185.9,0"></path><text x="142.18" y="-615.53" text-anchor="middle" font-family="'Times-Roman',serif" font-size="14" fill="#000000">12118;D(SE:I);1.00;</text><text x="142.18" y="-598.73" text-anchor="middle" font-family="'Times-Roman',serif" font-size="14" fill="#000000">Tischplatte;217</text></g><g class="relation" style="opacity: 1;"><title>12116;P(SE:W);1.00;\nTischplatte;217-&gt;12118;D(SE:I);1.00;\nTischplatte;217</title><path stroke="#000000" fill="none" d="M 142.18,-693.44 C 142.18,-680.6,142.18,-665.24,142.18,-651.35"></path><path class="solid" stroke="#000000" fill="#000000" d="M 145.68,-651.09 L 142.18,-641.09,138.68,-651.09 Z"></path><text x="156.18" y="-662.95" text-anchor="middle" font-family="'Times-Roman',serif" font-size="14" fill="#000000"> 1.00</text></g><g class="node"><title>12120;P(SE:W);16.00;\nSchrauben;217</title><path stroke="#000000" fill="none" d="M 442.18,-722.96 m -102.16,0 a 102.16,29.33 0 1,0 204.32,0 a 102.16,29.33 0 1,0 -204.32,0"></path><text x="442.18" y="-727.16" text-anchor="middle" font-family="'Times-Roman',serif" font-size="14" fill="#000000">12120;P(SE:W);16.00;</text><text x="442.18" y="-710.36" text-anchor="middle" font-family="'Times-Roman',serif" font-size="14" fill="#000000">Schrauben;217</text></g><g class="relation" style="opacity: 1;"><title>12111;D(PrOB);16.00;\nSchrauben;217;bs(217);be(228);\n12109: Tisch zusammenbauen-&gt;12120;P(SE:W);16.00;\nSchrauben;217</title><path stroke="#000000" fill="none" d="M 442.18,-805.01 C 442.18,-791.5,442.18,-776.48,442.18,-763.07"></path><path class="solid" stroke="#000000" fill="#000000" d="M 445.68,-762.73 L 442.18,-752.73,438.68,-762.73 Z"></path><text x="459.68" y="-774.58" text-anchor="middle" font-family="'Times-Roman',serif" font-size="14" fill="#000000"> 16.00</text></g><g class="node"><title>12123;P(PuOP);1;\nTischplatte;217</title><path stroke="#000000" fill="none" d="M 142.18,-499.7 m -84.42,0 a 84.42,29.33 0 1,0 168.84,0 a 84.42,29.33 0 1,0 -168.84,0"></path><text x="142.18" y="-503.9" text-anchor="middle" font-family="'Times-Roman',serif" font-size="14" fill="#000000">12123;P(PuOP);1;</text><text x="142.18" y="-487.1" text-anchor="middle" font-family="'Times-Roman',serif" font-size="14" fill="#000000">Tischplatte;217</text></g><g class="relation" style="opacity: 1;"><title>12118;D(SE:I);1.00;\nTischplatte;217-&gt;12123;P(PuOP);1;\nTischplatte;217</title><path stroke="#000000" fill="none" d="M 142.18,-581.81 C 142.18,-568.97,142.18,-553.61,142.18,-539.72"></path><path class="solid" stroke="#000000" fill="#000000" d="M 145.68,-539.46 L 142.18,-529.46,138.68,-539.46 Z"></path><text x="156.18" y="-551.32" text-anchor="middle" font-family="'Times-Roman',serif" font-size="14" fill="#000000"> 1.00</text></g><g class="node"><title>12125;P(SE:W);4.00;\nTischbein;228</title><path stroke="#000000" fill="none" d="M 737.18,-722.96 m -97.26,0 a 97.26,29.33 0 1,0 194.52,0 a 97.26,29.33 0 1,0 -194.52,0"></path><text x="737.18" y="-727.16" text-anchor="middle" font-family="'Times-Roman',serif" font-size="14" fill="#000000">12125;P(SE:W);4.00;</text><text x="737.18" y="-710.36" text-anchor="middle" font-family="'Times-Roman',serif" font-size="14" fill="#000000">Tischbein;228</text></g><g class="relation" style="opacity: 1;"><title>12110;D(PrOB);4.00;\nTischbein;228;bs(217);be(228);\n12109: Tisch zusammenbauen-&gt;12125;P(SE:W);4.00;\nTischbein;228</title><path stroke="#000000" fill="none" d="M 737.18,-805.01 C 737.18,-791.5,737.18,-776.48,737.18,-763.07"></path><path class="solid" stroke="#000000" fill="#000000" d="M 740.68,-762.73 L 737.18,-752.73,733.68,-762.73 Z"></path><text x="751.18" y="-774.58" text-anchor="middle" font-family="'Times-Roman',serif" font-size="14" fill="#000000"> 4.00</text></g><g class="node"><title>12127;D(SE:I);4.00;\nTischbein;228</title><path stroke="#000000" fill="none" d="M 737.18,-611.33 m -92.95,0 a 92.95,29.33 0 1,0 185.9,0 a 92.95,29.33 0 1,0 -185.9,0"></path><text x="737.18" y="-615.53" text-anchor="middle" font-family="'Times-Roman',serif" font-size="14" fill="#000000">12127;D(SE:I);4.00;</text><text x="737.18" y="-598.73" text-anchor="middle" font-family="'Times-Roman',serif" font-size="14" fill="#000000">Tischbein;228</text></g><g class="relation" style="opacity: 1;"><title>12125;P(SE:W);4.00;\nTischbein;228-&gt;12127;D(SE:I);4.00;\nTischbein;228</title><path stroke="#000000" fill="none" d="M 737.18,-693.44 C 737.18,-680.6,737.18,-665.24,737.18,-651.35"></path><path class="solid" stroke="#000000" fill="#000000" d="M 740.68,-651.09 L 737.18,-641.09,733.68,-651.09 Z"></path><text x="751.18" y="-662.95" text-anchor="middle" font-family="'Times-Roman',serif" font-size="14" fill="#000000"> 4.00</text></g><g class="node"><title>12129;P(PrO);4.00;\nTischbein;228</title><path stroke="#000000" fill="none" d="M 737.18,-499.7 m -89.86,0 a 89.86,29.33 0 1,0 179.72,0 a 89.86,29.33 0 1,0 -179.72,0"></path><text x="737.18" y="-503.9" text-anchor="middle" font-family="'Times-Roman',serif" font-size="14" fill="#000000">12129;P(PrO);4.00;</text><text x="737.18" y="-487.1" text-anchor="middle" font-family="'Times-Roman',serif" font-size="14" fill="#000000">Tischbein;228</text></g><g class="relation" style="opacity: 1;"><title>12127;D(SE:I);4.00;\nTischbein;228-&gt;12129;P(PrO);4.00;\nTischbein;228</title><path stroke="#000000" fill="none" d="M 737.18,-581.81 C 737.18,-568.97,737.18,-553.61,737.18,-539.72"></path><path class="solid" stroke="#000000" fill="#000000" d="M 740.68,-539.46 L 737.18,-529.46,733.68,-539.46 Z"></path><text x="751.18" y="-551.32" text-anchor="middle" font-family="'Times-Roman',serif" font-size="14" fill="#000000"> 4.00</text></g><g class="node"><title>12130;D(PrOB);4.00;\nAnschraubplatte;100;bs(100);be(180);\n12132: Anschraubplatte anschweißen</title><path stroke="#000000" fill="none" d="M 395.18,-376.19 m -163.13,0 a 163.13,41.09 0 1,0 326.26,0 a 163.13,41.09 0 1,0 -326.26,0"></path><text x="395.18" y="-388.79" text-anchor="middle" font-family="'Times-Roman',serif" font-size="14" fill="#000000">12130;D(PrOB);4.00;</text><text x="395.18" y="-371.99" text-anchor="middle" font-family="'Times-Roman',serif" font-size="14" fill="#000000">Anschraubplatte;100;bs(100);be(180);</text><text x="395.18" y="-355.19" text-anchor="middle" font-family="'Times-Roman',serif" font-size="14" fill="#000000">12132: Anschraubplatte anschweißen</text></g><g class="relation" style="opacity: 1;"><title>12129;P(PrO);4.00;\nTischbein;228-&gt;12130;D(PrOB);4.00;\nAnschraubplatte;100;bs(100);be(180);\n12132: Anschraubplatte anschweißen</title><path stroke="#000000" fill="none" d="M 677.6,-477.53 C 628.11,-459.95,556.57,-434.53,497.87,-413.68"></path><path class="solid" stroke="#000000" fill="#000000" d="M 498.79,-410.29 L 488.19,-410.24,496.44,-416.88 Z"></path><text x="611.18" y="-439.68" text-anchor="middle" font-family="'Times-Roman',serif" font-size="14" fill="#000000"> 4.00</text></g><g class="node"><title>12133;D(PrOB);4.00;\nStahlrohr;100;bs(100);be(180);\n12132: Anschraubplatte anschweißen</title><path stroke="#000000" fill="none" d="M 737.18,-376.19 m -160.66,0 a 160.66,41.09 0 1,0 321.32,0 a 160.66,41.09 0 1,0 -321.32,0"></path><text x="737.18" y="-388.79" text-anchor="middle" font-family="'Times-Roman',serif" font-size="14" fill="#000000">12133;D(PrOB);4.00;</text><text x="737.18" y="-371.99" text-anchor="middle" font-family="'Times-Roman',serif" font-size="14" fill="#000000">Stahlrohr;100;bs(100);be(180);</text><text x="737.18" y="-355.19" text-anchor="middle" font-family="'Times-Roman',serif" font-size="14" fill="#000000">12132: Anschraubplatte anschweißen</text></g><g class="relation" style="opacity: 1;"><title>12129;P(PrO);4.00;\nTischbein;228-&gt;12133;D(PrOB);4.00;\nStahlrohr;100;bs(100);be(180);\n12132: Anschraubplatte anschweißen</title><path stroke="#000000" fill="none" d="M 737.18,-470.21 C 737.18,-457.68,737.18,-442.57,737.18,-428.2"></path><path class="solid" stroke="#000000" fill="#000000" d="M 740.68,-427.92 L 737.18,-417.92,733.68,-427.92 Z"></path><text x="751.18" y="-439.68" text-anchor="middle" font-family="'Times-Roman',serif" font-size="14" fill="#000000"> 4.00</text></g><g class="node"><title>12134;D(PrOB);4.00;\nFilzgleiter;216;bs(216);be(228);\n12136: Flizgleiter anstecken</title><path stroke="#000000" fill="none" d="M 1054.18,-376.19 m -138.76,0 a 138.76,41.09 0 1,0 277.52,0 a 138.76,41.09 0 1,0 -277.52,0"></path><text x="1054.18" y="-388.79" text-anchor="middle" font-family="'Times-Roman',serif" font-size="14" fill="#000000">12134;D(PrOB);4.00;</text><text x="1054.18" y="-371.99" text-anchor="middle" font-family="'Times-Roman',serif" font-size="14" fill="#000000">Filzgleiter;216;bs(216);be(228);</text><text x="1054.18" y="-355.19" text-anchor="middle" font-family="'Times-Roman',serif" font-size="14" fill="#000000">12136: Flizgleiter anstecken</text></g><g class="relation" style="opacity: 1;"><title>12129;P(PrO);4.00;\nTischbein;228-&gt;12134;D(PrOB);4.00;\nFilzgleiter;216;bs(216);be(228);\n12136: Flizgleiter anstecken</title><path stroke="#000000" fill="none" d="M 794.22,-476.84 C 840.54,-459.08,906.82,-433.67,960.86,-412.96"></path><path class="solid" stroke="#000000" fill="#000000" d="M 962.37,-416.13 L 970.45,-409.28,959.86,-409.59 Z"></path><text x="910.18" y="-439.68" text-anchor="middle" font-family="'Times-Roman',serif" font-size="14" fill="#000000"> 4.00</text></g><g class="node"><title>12141;P(SE:W);4.00;\nAnschraubplatte;100</title><path stroke="#000000" fill="none" d="M 395.18,-252.68 m -97.26,0 a 97.26,29.33 0 1,0 194.52,0 a 97.26,29.33 0 1,0 -194.52,0"></path><text x="395.18" y="-256.88" text-anchor="middle" font-family="'Times-Roman',serif" font-size="14" fill="#000000">12141;P(SE:W);4.00;</text><text x="395.18" y="-240.08" text-anchor="middle" font-family="'Times-Roman',serif" font-size="14" fill="#000000">Anschraubplatte;100</text></g><g class="relation" style="opacity: 1;"><title>12130;D(PrOB);4.00;\nAnschraubplatte;100;bs(100);be(180);\n12132: Anschraubplatte anschweißen-&gt;12141;P(SE:W);4.00;\nAnschraubplatte;100</title><path stroke="#000000" fill="none" d="M 395.18,-334.73 C 395.18,-321.22,395.18,-306.2,395.18,-292.79"></path><path class="solid" stroke="#000000" fill="#000000" d="M 398.68,-292.45 L 395.18,-282.45,391.68,-292.45 Z"></path><text x="409.18" y="-304.29" text-anchor="middle" font-family="'Times-Roman',serif" font-size="14" fill="#000000"> 4.00</text></g><g class="node"><title>12143;D(SE:I);4.00;\nAnschraubplatte;100</title><path stroke="#000000" fill="none" d="M 395.18,-141.05 m -93.57,0 a 93.57,29.33 0 1,0 187.14,0 a 93.57,29.33 0 1,0 -187.14,0"></path><text x="395.18" y="-145.25" text-anchor="middle" font-family="'Times-Roman',serif" font-size="14" fill="#000000">12143;D(SE:I);4.00;</text><text x="395.18" y="-128.45" text-anchor="middle" font-family="'Times-Roman',serif" font-size="14" fill="#000000">Anschraubplatte;100</text></g><g class="relation" style="opacity: 1;"><title>12141;P(SE:W);4.00;\nAnschraubplatte;100-&gt;12143;D(SE:I);4.00;\nAnschraubplatte;100</title><path stroke="#000000" fill="none" d="M 395.18,-223.16 C 395.18,-210.32,395.18,-194.95,395.18,-181.07"></path><path class="solid" stroke="#000000" fill="#000000" d="M 398.68,-180.8 L 395.18,-170.8,391.68,-180.8 Z"></path><text x="409.18" y="-192.66" text-anchor="middle" font-family="'Times-Roman',serif" font-size="14" fill="#000000"> 4.00</text></g><g class="node"><title>12145;P(SE:W);4.00;\nStahlrohr;100</title><path stroke="#000000" fill="none" d="M 737.18,-252.68 m -97.26,0 a 97.26,29.33 0 1,0 194.52,0 a 97.26,29.33 0 1,0 -194.52,0"></path><text x="737.18" y="-256.88" text-anchor="middle" font-family="'Times-Roman',serif" font-size="14" fill="#000000">12145;P(SE:W);4.00;</text><text x="737.18" y="-240.08" text-anchor="middle" font-family="'Times-Roman',serif" font-size="14" fill="#000000">Stahlrohr;100</text></g><g class="relation" style="opacity: 1;"><title>12133;D(PrOB);4.00;\nStahlrohr;100;bs(100);be(180);\n12132: Anschraubplatte anschweißen-&gt;12145;P(SE:W);4.00;\nStahlrohr;100</title><path stroke="#000000" fill="none" d="M 737.18,-334.73 C 737.18,-321.22,737.18,-306.2,737.18,-292.79"></path><path class="solid" stroke="#000000" fill="#000000" d="M 740.68,-292.45 L 737.18,-282.45,733.68,-292.45 Z"></path><text x="751.18" y="-304.29" text-anchor="middle" font-family="'Times-Roman',serif" font-size="14" fill="#000000"> 4.00</text></g><g class="node"><title>12147;D(SE:I);4.00;\nStahlrohr;100</title><path stroke="#000000" fill="none" d="M 737.18,-141.05 m -92.95,0 a 92.95,29.33 0 1,0 185.9,0 a 92.95,29.33 0 1,0 -185.9,0"></path><text x="737.18" y="-145.25" text-anchor="middle" font-family="'Times-Roman',serif" font-size="14" fill="#000000">12147;D(SE:I);4.00;</text><text x="737.18" y="-128.45" text-anchor="middle" font-family="'Times-Roman',serif" font-size="14" fill="#000000">Stahlrohr;100</text></g><g class="relation" style="opacity: 1;"><title>12145;P(SE:W);4.00;\nStahlrohr;100-&gt;12147;D(SE:I);4.00;\nStahlrohr;100</title><path stroke="#000000" fill="none" d="M 737.18,-223.16 C 737.18,-210.32,737.18,-194.95,737.18,-181.07"></path><path class="solid" stroke="#000000" fill="#000000" d="M 740.68,-180.8 L 737.18,-170.8,733.68,-180.8 Z"></path><text x="751.18" y="-192.66" text-anchor="middle" font-family="'Times-Roman',serif" font-size="14" fill="#000000"> 4.00</text></g><g class="node"><title>12150;P(PuOP);10;\nAnschraubplatte;100</title><path stroke="#000000" fill="none" d="M 395.18,-29.42 m -93.57,0 a 93.57,29.33 0 1,0 187.14,0 a 93.57,29.33 0 1,0 -187.14,0"></path><text x="395.18" y="-33.62" text-anchor="middle" font-family="'Times-Roman',serif" font-size="14" fill="#000000">12150;P(PuOP);10;</text><text x="395.18" y="-16.82" text-anchor="middle" font-family="'Times-Roman',serif" font-size="14" fill="#000000">Anschraubplatte;100</text></g><g class="relation" style="opacity: 1;"><title>12143;D(SE:I);4.00;\nAnschraubplatte;100-&gt;12150;P(PuOP);10;\nAnschraubplatte;100</title><path stroke="#000000" fill="none" d="M 395.18,-111.53 C 395.18,-98.69,395.18,-83.32,395.18,-69.44"></path><path class="solid" stroke="#000000" fill="#000000" d="M 398.68,-69.17 L 395.18,-59.17,391.68,-69.17 Z"></path><text x="409.18" y="-81.03" text-anchor="middle" font-family="'Times-Roman',serif" font-size="14" fill="#000000"> 4.00</text></g><g class="node"><title>12153;P(PuOP);10;\nStahlrohr;100</title><path stroke="#000000" fill="none" d="M 737.18,-29.42 m -89.32,0 a 89.32,29.33 0 1,0 178.64,0 a 89.32,29.33 0 1,0 -178.64,0"></path><text x="737.18" y="-33.62" text-anchor="middle" font-family="'Times-Roman',serif" font-size="14" fill="#000000">12153;P(PuOP);10;</text><text x="737.18" y="-16.82" text-anchor="middle" font-family="'Times-Roman',serif" font-size="14" fill="#000000">Stahlrohr;100</text></g><g class="relation" style="opacity: 1;"><title>12147;D(SE:I);4.00;\nStahlrohr;100-&gt;12153;P(PuOP);10;\nStahlrohr;100</title><path stroke="#000000" fill="none" d="M 737.18,-111.53 C 737.18,-98.69,737.18,-83.32,737.18,-69.44"></path><path class="solid" stroke="#000000" fill="#000000" d="M 740.68,-69.17 L 737.18,-59.17,733.68,-69.17 Z"></path><text x="751.18" y="-81.03" text-anchor="middle" font-family="'Times-Roman',serif" font-size="14" fill="#000000"> 4.00</text></g><g class="node"><title>12155;P(SE:W);4.00;\nFilzgleiter;216</title><path stroke="#000000" fill="none" d="M 1054.18,-252.68 m -97.26,0 a 97.26,29.33 0 1,0 194.52,0 a 97.26,29.33 0 1,0 -194.52,0"></path><text x="1054.18" y="-256.88" text-anchor="middle" font-family="'Times-Roman',serif" font-size="14" fill="#000000">12155;P(SE:W);4.00;</text><text x="1054.18" y="-240.08" text-anchor="middle" font-family="'Times-Roman',serif" font-size="14" fill="#000000">Filzgleiter;216</text></g><g class="relation" style="opacity: 1;"><title>12134;D(PrOB);4.00;\nFilzgleiter;216;bs(216);be(228);\n12136: Flizgleiter anstecken-&gt;12155;P(SE:W);4.00;\nFilzgleiter;216</title><path stroke="#000000" fill="none" d="M 1054.18,-334.73 C 1054.18,-321.22,1054.18,-306.2,1054.18,-292.79"></path><path class="solid" stroke="#000000" fill="#000000" d="M 1057.68,-292.45 L 1054.18,-282.45,1050.68,-292.45 Z"></path><text x="1068.18" y="-304.29" text-anchor="middle" font-family="'Times-Roman',serif" font-size="14" fill="#000000"> 4.00</text></g><g class="node"><title>12157;D(SE:I);4.00;\nFilzgleiter;216</title><path stroke="#000000" fill="none" d="M 1054.18,-141.05 m -92.95,0 a 92.95,29.33 0 1,0 185.9,0 a 92.95,29.33 0 1,0 -185.9,0"></path><text x="1054.18" y="-145.25" text-anchor="middle" font-family="'Times-Roman',serif" font-size="14" fill="#000000">12157;D(SE:I);4.00;</text><text x="1054.18" y="-128.45" text-anchor="middle" font-family="'Times-Roman',serif" font-size="14" fill="#000000">Filzgleiter;216</text></g><g class="relation" style="opacity: 1;"><title>12155;P(SE:W);4.00;\nFilzgleiter;216-&gt;12157;D(SE:I);4.00;\nFilzgleiter;216</title><path stroke="#000000" fill="none" d="M 1054.18,-223.16 C 1054.18,-210.32,1054.18,-194.95,1054.18,-181.07"></path><path class="solid" stroke="#000000" fill="#000000" d="M 1057.68,-180.8 L 1054.18,-170.8,1050.68,-180.8 Z"></path><text x="1068.18" y="-192.66" text-anchor="middle" font-family="'Times-Roman',serif" font-size="14" fill="#000000"> 4.00</text></g><g class="node"><title>12160;P(PuOP);10;\nFilzgleiter;216</title><path stroke="#000000" fill="none" d="M 1054.18,-29.42 m -89.32,0 a 89.32,29.33 0 1,0 178.64,0 a 89.32,29.33 0 1,0 -178.64,0"></path><text x="1054.18" y="-33.62" text-anchor="middle" font-family="'Times-Roman',serif" font-size="14" fill="#000000">12160;P(PuOP);10;</text><text x="1054.18" y="-16.82" text-anchor="middle" font-family="'Times-Roman',serif" font-size="14" fill="#000000">Filzgleiter;216</text></g><g class="relation" style="opacity: 1;"><title>12157;D(SE:I);4.00;\nFilzgleiter;216-&gt;12160;P(PuOP);10;\nFilzgleiter;216</title><path stroke="#000000" fill="none" d="M 1054.18,-111.53 C 1054.18,-98.69,1054.18,-83.32,1054.18,-69.44"></path><path class="solid" stroke="#000000" fill="#000000" d="M 1057.68,-69.17 L 1054.18,-59.17,1050.68,-69.17 Z"></path><text x="1068.18" y="-81.03" text-anchor="middle" font-family="'Times-Roman',serif" font-size="14" fill="#000000"> 4.00</text></g></g></g></svg>