<?xml version="1.0" encoding="iso-8859-1"?>
<!-- Generator: Adobe Illustrator 16.0.0, SVG Export Plug-In . SVG Version: 6.00 Build 0)  -->
<!DOCTYPE svg PUBLIC "-//W3C//DTD SVG 1.1//EN" "http://www.w3.org/Graphics/SVG/1.1/DTD/svg11.dtd">
<svg version="1.1" id="Capa_1" xmlns="http://www.w3.org/2000/svg" xmlns:xlink="http://www.w3.org/1999/xlink" x="0px" y="0px"
	 width="111.034px" height="111.034px" viewBox="0 0 111.034 111.034" style="enable-background:new 0 0 111.034 111.034;"
	 xml:space="preserve">
<g>
	<g>
		<path d="M56.898,25.296c4.701,0,8.527-3.825,8.527-8.526S61.6,8.243,56.898,8.243s-8.526,3.825-8.526,8.527
			S52.197,25.296,56.898,25.296z"/>
		<path d="M18.24,62.966c4.701,0,8.526-3.824,8.526-8.527c0-4.702-3.825-8.526-8.526-8.526c-4.701,0-8.526,3.825-8.526,8.526
			S13.538,62.966,18.24,62.966z M18.24,48.371c3.346,0,6.067,2.722,6.067,6.067c0,3.345-2.722,6.067-6.067,6.067
			c-3.345,0-6.067-2.722-6.067-6.067C12.173,51.093,14.894,48.371,18.24,48.371z"/>
		<path d="M56.898,45.913c-4.701,0-8.526,3.825-8.526,8.526s3.825,8.527,8.526,8.527s8.527-3.824,8.527-8.527
			C65.426,49.737,61.6,45.913,56.898,45.913z M56.898,60.507c-3.346,0-6.067-2.723-6.067-6.068c0-3.345,2.722-6.067,6.067-6.067
			c3.345,0,6.066,2.722,6.066,6.067C62.965,57.784,60.244,60.507,56.898,60.507z"/>
		<path d="M84.855,54.439c0,4.703,3.826,8.527,8.527,8.527s8.526-3.824,8.526-8.527c0-4.702-3.825-8.526-8.526-8.526
			S84.855,49.737,84.855,54.439z M93.383,60.507c-3.346,0-6.066-2.723-6.066-6.068c0-3.345,2.722-6.067,6.066-6.067
			c3.346,0,6.067,2.722,6.067,6.067C99.45,57.784,96.729,60.507,93.383,60.507z"/>
		<path d="M8.526,85.738C3.825,85.738,0,89.563,0,94.265s3.825,8.526,8.526,8.526c4.701,0,8.526-3.825,8.526-8.526
			C17.052,89.562,13.227,85.738,8.526,85.738z M8.526,100.332c-3.346,0-6.067-2.722-6.067-6.067c0-3.345,2.722-6.066,6.067-6.066
			c3.345,0,6.067,2.722,6.067,6.066C14.593,97.61,11.871,100.332,8.526,100.332z"/>
		<path d="M26.775,85.738c-4.701,0-8.526,3.825-8.526,8.526s3.825,8.526,8.526,8.526c4.702,0,8.527-3.825,8.527-8.526
			C35.302,89.562,31.477,85.738,26.775,85.738z M26.775,100.332c-3.345,0-6.066-2.722-6.066-6.067c0-3.345,2.722-6.066,6.066-6.066
			c3.346,0,6.067,2.722,6.067,6.066C32.842,97.61,30.121,100.332,26.775,100.332z"/>
		<path d="M47.774,85.738c-4.701,0-8.526,3.825-8.526,8.526s3.825,8.526,8.526,8.526c4.701,0,8.527-3.825,8.527-8.526
			C56.301,89.562,52.475,85.738,47.774,85.738z M47.774,100.332c-3.346,0-6.067-2.722-6.067-6.067c0-3.345,2.722-6.066,6.067-6.066
			c3.345,0,6.067,2.722,6.067,6.066C53.841,97.61,51.12,100.332,47.774,100.332z"/>
		<path d="M66.023,85.738c-4.701,0-8.526,3.825-8.526,8.526s3.825,8.526,8.526,8.526s8.527-3.825,8.527-8.526
			C74.551,89.562,70.725,85.738,66.023,85.738z M66.023,100.332c-3.346,0-6.066-2.722-6.066-6.067c0-3.345,2.723-6.066,6.066-6.066
			c3.346,0,6.068,2.722,6.068,6.066C72.092,97.61,69.37,100.332,66.023,100.332z"/>
		<path d="M84.26,85.738c-4.703,0-8.527,3.825-8.527,8.526s3.824,8.526,8.527,8.526c4.7,0,8.525-3.825,8.525-8.526
			C92.785,89.562,88.96,85.738,84.26,85.738z M84.26,100.332c-3.347,0-6.068-2.722-6.068-6.067c0-3.345,2.723-6.066,6.068-6.066
			c3.344,0,6.065,2.722,6.065,6.066C90.326,97.61,87.604,100.332,84.26,100.332z"/>
		<path d="M102.508,85.738c-4.701,0-8.525,3.825-8.525,8.526s3.824,8.526,8.525,8.526s8.526-3.825,8.526-8.526
			C111.034,89.562,107.209,85.738,102.508,85.738z M102.508,100.332c-3.346,0-6.066-2.722-6.066-6.067
			c0-3.345,2.722-6.066,6.066-6.066c3.346,0,6.067,2.722,6.067,6.066C108.576,97.61,105.854,100.332,102.508,100.332z"/>
		<polygon points="16.241,34.968 55.916,34.968 55.916,43.515 57.871,43.515 57.871,34.968 95.895,34.968 95.895,43.515 
			97.85,43.515 97.85,32.991 57.902,32.991 57.902,28.563 55.947,28.563 55.947,32.991 14.286,32.991 14.286,43.515 16.241,43.515 
					"/>
		<polygon points="25.522,82.873 25.522,72.349 19.074,72.349 19.074,67.921 17.119,67.921 17.119,72.349 10.957,72.349 
			10.957,82.873 12.913,82.873 12.913,74.326 23.567,74.326 23.567,82.873 		"/>
		<polygon points="100.665,82.873 100.665,72.349 94.217,72.349 94.217,67.921 92.262,67.921 92.262,72.349 86.102,72.349 
			86.102,82.873 88.057,82.873 88.057,74.326 98.71,74.326 98.71,82.873 		"/>
		<polygon points="64.182,82.873 64.182,72.349 57.732,72.349 57.732,67.921 55.778,67.921 55.778,72.349 49.617,72.349 
			49.617,82.873 51.572,82.873 51.572,74.326 62.227,74.326 62.227,82.873 		"/>
	</g>
</g>
<g>
</g>
<g>
</g>
<g>
</g>
<g>
</g>
<g>
</g>
<g>
</g>
<g>
</g>
<g>
</g>
<g>
</g>
<g>
</g>
<g>
</g>
<g>
</g>
<g>
</g>
<g>
</g>
<g>
</g>
</svg>
