<?xml version="1.0" encoding="iso-8859-1"?>
<!-- Generator: Adobe Illustrator 16.0.0, SVG Export Plug-In . SVG Version: 6.00 Build 0)  -->
<!DOCTYPE svg PUBLIC "-//W3C//DTD SVG 1.1//EN" "http://www.w3.org/Graphics/SVG/1.1/DTD/svg11.dtd">
<svg version="1.1" id="Capa_1" xmlns="http://www.w3.org/2000/svg" xmlns:xlink="http://www.w3.org/1999/xlink" x="0px" y="0px"
	 width="99.138px" height="99.138px" viewBox="0 0 99.138 99.138" style="enable-background:new 0 0 99.138 99.138;"
	 xml:space="preserve">
<g>
	<g>
		<path d="M2.819,37.569h30.5c0.829,0,1.5-0.672,1.5-1.5v-30.5c0-0.828-0.671-1.5-1.5-1.5h-30.5c-0.829,0-1.5,0.672-1.5,1.5v30.5
			C1.319,36.897,1.99,37.569,2.819,37.569z M28.569,6.819c1.036,0,1.875,0.84,1.875,1.875s-0.839,1.875-1.875,1.875
			s-1.875-0.84-1.875-1.875S27.533,6.819,28.569,6.819z M21.444,6.819c1.036,0,1.875,0.84,1.875,1.875s-0.839,1.875-1.875,1.875
			s-1.875-0.84-1.875-1.875S20.408,6.819,21.444,6.819z M4.319,13.319h27.5v21.25h-27.5V13.319z"/>
		<path d="M13.271,18.985l-7.08,3.647c-0.211,0.109-0.346,0.327-0.346,0.565v0.823c0,0.238,0.134,0.456,0.346,0.565l7.08,3.647
			c0.092,0.047,0.191,0.07,0.292,0.07c0.114,0,0.229-0.03,0.331-0.093c0.188-0.115,0.305-0.321,0.305-0.543v-1.053
			c0-0.24-0.136-0.461-0.352-0.568l-4.861-2.438l4.861-2.438c0.216-0.107,0.352-0.328,0.352-0.568v-1.053
			c0-0.222-0.116-0.428-0.305-0.543C13.705,18.892,13.468,18.884,13.271,18.985z"/>
		<path d="M20.855,16.58h-1.038c-0.264,0-0.499,0.162-0.595,0.407L14.965,28.05c-0.075,0.195-0.049,0.416,0.069,0.589
			c0.118,0.173,0.314,0.275,0.524,0.275h1.021c0.263,0,0.499-0.161,0.593-0.406l4.273-11.063c0.076-0.196,0.05-0.416-0.069-0.589
			C21.26,16.682,21.065,16.58,20.855,16.58z"/>
		<path d="M30.189,22.615l-7.08-3.631c-0.199-0.102-0.434-0.092-0.622,0.023c-0.189,0.115-0.306,0.321-0.306,0.543v1.053
			c0,0.241,0.138,0.462,0.354,0.569l4.896,2.438l-4.896,2.437c-0.216,0.107-0.354,0.328-0.354,0.569v1.053
			c0,0.222,0.115,0.428,0.306,0.543c0.102,0.062,0.216,0.093,0.332,0.093c0.1,0,0.199-0.022,0.291-0.069l7.08-3.632
			c0.212-0.109,0.346-0.328,0.346-0.566v-0.854C30.535,22.943,30.401,22.725,30.189,22.615z"/>
		<path d="M63.971,37.569h30.5c0.829,0,1.5-0.672,1.5-1.5v-30.5c0-0.828-0.671-1.5-1.5-1.5h-30.5c-0.828,0-1.5,0.672-1.5,1.5v30.5
			C62.471,36.897,63.144,37.569,63.971,37.569z M89.721,6.819c1.036,0,1.875,0.84,1.875,1.875s-0.839,1.875-1.875,1.875
			c-1.035,0-1.875-0.84-1.875-1.875S88.687,6.819,89.721,6.819z M82.596,6.819c1.036,0,1.875,0.84,1.875,1.875
			s-0.839,1.875-1.875,1.875c-1.035,0-1.875-0.84-1.875-1.875S81.562,6.819,82.596,6.819z M65.471,13.319h27.5v21.25h-27.5V13.319z"
			/>
		<path d="M85.356,22.801l-7.813-6.205c-0.472-0.372-1.117-0.447-1.659-0.184c-0.542,0.261-0.888,0.811-0.888,1.414v12.409
			c0,0.604,0.345,1.153,0.888,1.414c0.217,0.106,0.45,0.156,0.683,0.156c0.349,0,0.693-0.114,0.978-0.339l7.813-6.206
			c0.375-0.298,0.594-0.751,0.594-1.229C85.949,23.552,85.731,23.101,85.356,22.801z"/>
		<path d="M34.628,79.263l-1.922-0.709c0.151-1.4,0.103-2.829-0.162-4.25l1.856-0.855c1.159-0.533,1.667-1.91,1.133-3.07
			l-1.083-2.352c-0.534-1.159-1.911-1.668-3.069-1.135l-1.856,0.855c-0.908-1.125-1.962-2.091-3.125-2.887l0.709-1.921
			c0.44-1.196-0.173-2.531-1.369-2.974l-2.431-0.896c-1.16-0.428-2.545,0.21-2.973,1.369l-0.709,1.922
			c-1.4-0.152-2.831-0.104-4.25,0.161l-0.854-1.854c-0.534-1.16-1.911-1.668-3.07-1.136l-2.354,1.084
			c-1.158,0.534-1.667,1.911-1.134,3.07l0.855,1.856c-1.124,0.907-2.09,1.963-2.886,3.125l-1.92-0.709
			c-1.157-0.43-2.546,0.209-2.974,1.368l-0.896,2.431c-0.215,0.582-0.189,1.209,0.068,1.771c0.26,0.561,0.723,0.989,1.3,1.201
			l1.922,0.71c-0.151,1.399-0.103,2.83,0.161,4.251l-1.855,0.854c-1.159,0.534-1.667,1.912-1.134,3.069l1.082,2.356
			c0.533,1.158,1.91,1.666,3.069,1.133l1.857-0.855c0.908,1.125,1.962,2.092,3.126,2.887l-0.709,1.92
			c-0.215,0.58-0.191,1.207,0.068,1.771c0.258,0.562,0.72,0.989,1.3,1.203l2.43,0.897c0.579,0.213,1.208,0.189,1.771-0.068
			c0.562-0.26,0.988-0.723,1.201-1.301l0.71-1.922c1.4,0.151,2.83,0.104,4.251-0.162l0.854,1.856
			c0.534,1.159,1.912,1.668,3.07,1.136l2.354-1.086c1.159-0.533,1.667-1.91,1.134-3.069l-0.854-1.856
			c1.124-0.908,2.09-1.962,2.885-3.125l1.922,0.71c0.58,0.216,1.209,0.189,1.771-0.069c0.562-0.258,0.987-0.722,1.203-1.299
			l0.896-2.432C36.438,81.039,35.824,79.706,34.628,79.263z M21.4,84.227c-3.993,1.839-8.721,0.094-10.561-3.898
			C9,76.335,10.746,71.607,14.739,69.768c3.993-1.839,8.721-0.095,10.56,3.899C27.137,77.66,25.393,82.388,21.4,84.227z"/>
		<path d="M18.069,72.335c-2.575,0-4.669,2.094-4.669,4.668s2.095,4.67,4.669,4.67s4.669-2.096,4.669-4.67
			S20.644,72.335,18.069,72.335z M18.069,80.083c-1.698,0-3.08-1.383-3.08-3.08s1.382-3.08,3.08-3.08s3.08,1.383,3.08,3.08
			S19.768,80.083,18.069,80.083z"/>
		<path d="M91.804,72.128v7.297c0,0.869-0.558,1.602-1.333,1.877v-22.09h-20v22.09c-0.774-0.275-1.333-1.008-1.333-1.877v-7.297
			h-7.334v22.668h37.334V72.128H91.804z M88.471,81.423h-16V61.212h16V81.423z"/>
		<polygon points="76.374,72.396 79.881,76.656 82.061,69.574 84.461,70.946 87.585,65.591 85.859,64.583 83.733,68.226 
			80.883,66.597 79.063,72.515 75.571,68.275 73.018,76.411 74.925,77.011 		"/>
		<rect x="77.721" y="40.232" width="3" height="16.333"/>
		<rect x="16.707" y="40.232" width="3" height="16.333"/>
		<rect x="37.555" y="21.247" width="22.5" height="3"/>
	</g>
</g>
<g>
</g>
<g>
</g>
<g>
</g>
<g>
</g>
<g>
</g>
<g>
</g>
<g>
</g>
<g>
</g>
<g>
</g>
<g>
</g>
<g>
</g>
<g>
</g>
<g>
</g>
<g>
</g>
<g>
</g>
</svg>
